COMMENT @(#)35	1.4  src/bos/usr/lpp/kls/fonts/HGPRT32.bdf, cmdkr, bos411, 9428A410j 2/24/94 11:23:03
COMMENT
COMMENT   COMPONENT_NAME: cmdkr
COMMENT
COMMENT   FUNCTIONS: none
COMMENT
COMMENT   ORIGINS: 27
COMMENT
COMMENT   IBM CONFIDENTIAL -- (IBM Confidential Restricted when
COMMENT   combined with the aggregated modules for this product)
COMMENT                    SOURCE MATERIALS
COMMENT
COMMENT   (C) COPYRIGHT International Business Machines Corp. 1992
COMMENT   All Rights Reserved
COMMENT   US Government Users Restricted Rights - Use, duplication or
COMMENT   disclosure restricted by GSA ADP Schedule Contract with IBM Corp.
COMMENT
STARTFONT 2.1  
COMMENT IBM Korea Hangul & Hanja fonts
FONT -ibm_aix-HGPRT32-medium-r-normal--35-230-100-100-c-340-ksc5601.1987-0
SIZE 35 100 100  
FONTBOUNDINGBOX 34 35 0 -1  
STARTPROPERTIES 20 
FONTNAME_REGISTRY "-" 
FOUNDRY "IBM_AIX" 
FAMILY_NAME "HGPRT32" 
WEIGHT_NAME "Medium" 
SLANT "R" 
SETWIDTH_NAME "Normal" 
ADD_STYLE_NAME "" 
PIXEL_SIZE 35 
POINT_SIZE 230 
RESOLUTION_X 100 
RESOLUTION_Y 100 
SPACING "M" 
AVERAGE_WIDTH 340 
CHARSET_REGISTRY "ksc5601.1987" 
CHARSET_ENCODING "0" 
FONT_ASCENT 34 
FONT_DESCENT 1 
DEFAULT_CHAR 41377 
CAP_HEIGHT 35
Copyright "Copyright (c) 1992 IBM Korea, Inc."
ENDPROPERTIES 
CHARS 8224
STARTCHAR a1a1
ENCODING 41377 
SWIDTH 230 0
DWIDTH 34 0
BBX 34 35 0 -1
BITMAP 
0000000000
0000000000
0000000000
0000000000
0000000000
0000000000
0000000000
0000000000
0000000000
0000000000
0000000000
0000000000
0000000000
0000000000
0000000000
0000000000
0000000000
0000000000
0000000000
0000000000
0000000000
0000000000
0000000000
0000000000
0000000000
0000000000
0000000000
0000000000
0000000000
0000000000
0000000000
0000000000
0000000000
0000000000
0000000000
ENDCHAR
STARTCHAR a1a2
ENCODING 41378 
SWIDTH 230 0
DWIDTH 34 0
BBX 34 35 0 -1
BITMAP 
0000000000
0000000000
0000000000
0000000000
0000000000
0000000000
0000000000
0000000000
0000000000
0000000000
0000000000
0000000000
0000000000
0000000000
0000000000
0000000000
0000000000
0000000000
0000000000
0000000000
0000000000
0000000000
0000000000
0000000000
3000000000
1c00000000
0e00000000
0700000000
0380000000
0380000000
01c0000000
01c0000000
0080000000
0000000000
0000000000
ENDCHAR
STARTCHAR a1a3
ENCODING 41379 
SWIDTH 230 0
DWIDTH 34 0
BBX 34 35 0 -1
BITMAP 
0000000000
0000000000
0000000000
0000000000
0000000000
0000000000
0000000000
0000000000
0000000000
0000000000
0000000000
0000000000
0000000000
0000000000
0000000000
0000000000
0000000000
0000000000
0000000000
0000000000
0000000000
0000000000
0000000000
0000000000
0f00000000
3fc0000000
70e0000000
6060000000
6060000000
6060000000
70e0000000
3fc0000000
0f00000000
0000000000
0000000000
ENDCHAR
STARTCHAR a1a4
ENCODING 41380 
SWIDTH 230 0
DWIDTH 34 0
BBX 34 35 0 -1
BITMAP 
0000000000
0000000000
0000000000
0000000000
0000000000
0000000000
0000000000
0000000000
0000000000
0000000000
0000000000
0000000000
0000000000
0000e00000
0001f00000
0003f80000
0003f80000
0001f00000
0000e00000
0000000000
0000000000
0000000000
0000000000
0000000000
0000000000
0000000000
0000000000
0000000000
0000000000
0000000000
0000000000
0000000000
0000000000
0000000000
0000000000
ENDCHAR
STARTCHAR a1a5
ENCODING 41381 
SWIDTH 230 0
DWIDTH 34 0
BBX 34 35 0 -1
BITMAP 
0000000000
0000000000
0000000000
0000000000
0000000000
0000000000
0000000000
0000000000
0000000000
0000000000
0000000000
0000000000
01c000e000
03e001f000
07f003f800
07f003f800
07f003f800
03e001f000
01c000e000
0000000000
0000000000
0000000000
0000000000
0000000000
0000000000
0000000000
0000000000
0000000000
0000000000
0000000000
0000000000
0000000000
0000000000
0000000000
0000000000
ENDCHAR
STARTCHAR a1a6
ENCODING 41382 
SWIDTH 230 0
DWIDTH 34 0
BBX 34 35 0 -1
BITMAP 
0000000000
0000000000
0000000000
0000000000
0000000000
0000000000
0000000000
0000000000
0000000000
0000000000
0000000000
0000000000
0000000000
0700e01c00
0f81f03e00
0f81f03e00
0f81f03e00
0700e01c00
0000000000
0000000000
0000000000
0000000000
0000000000
0000000000
0000000000
0000000000
0000000000
0000000000
0000000000
0000000000
0000000000
0000000000
0000000000
0000000000
0000000000
ENDCHAR
STARTCHAR a1a7
ENCODING 41383 
SWIDTH 230 0
DWIDTH 34 0
BBX 34 35 0 -1
BITMAP 
0000000000
0000000000
001c0e0000
003e1f0000
003e1f0000
003e1f0000
001c0e0000
0000000000
0000000000
0000000000
0000000000
0000000000
0000000000
0000000000
0000000000
0000000000
0000000000
0000000000
0000000000
0000000000
0000000000
0000000000
0000000000
0000000000
0000000000
0000000000
0000000000
0000000000
0000000000
0000000000
0000000000
0000000000
0000000000
0000000000
0000000000
ENDCHAR
STARTCHAR a1a8
ENCODING 41384 
SWIDTH 230 0
DWIDTH 34 0
BBX 34 35 0 -1
BITMAP 
0000000000
0000000000
0000000000
0000000000
0000000000
0000000000
0000000000
0004040000
0006060000
0007070000
0007070000
0006060000
0006060000
0006060000
000e0e0000
000c0c0000
000c0c0000
000c0c0000
000c0c0000
001c1c0000
0018180000
0018180000
0030300000
0020200000
0040400000
0000000000
0000000000
0000000000
0000000000
0000000000
0000000000
0000000000
0000000000
0000000000
0000000000
ENDCHAR
STARTCHAR a1a9
ENCODING 41385 
SWIDTH 230 0
DWIDTH 34 0
BBX 34 35 0 -1
BITMAP 
0000000000
0000000000
0000000000
0000000000
0000000000
0000000000
0000000000
0000000000
0000000000
0000000000
0000000000
0000000000
0000000000
0000000000
0000000000
00ffffc000
00ffffc000
0000000000
0000000000
0000000000
0000000000
0000000000
0000000000
0000000000
0000000000
0000000000
0000000000
0000000000
0000000000
0000000000
0000000000
0000000000
0000000000
0000000000
0000000000
ENDCHAR
STARTCHAR a1aa
ENCODING 41386 
SWIDTH 230 0
DWIDTH 34 0
BBX 34 35 0 -1
BITMAP 
0000000000
0000000000
0000000000
0000000000
0000000000
0000000000
0000000000
0000000000
0000000000
0000000000
0000000000
0000000000
0000000000
0000000000
0000000000
3fffffff00
3fffffff00
0000000000
0000000000
0000000000
0000000000
0000000000
0000000000
0000000000
0000000000
0000000000
0000000000
0000000000
0000000000
0000000000
0000000000
0000000000
0000000000
0000000000
0000000000
ENDCHAR
STARTCHAR a1ab
ENCODING 41387 
SWIDTH 230 0
DWIDTH 34 0
BBX 34 35 0 -1
BITMAP 
0000000000
0000000000
0000000000
0000000000
0000000000
000c0c0000
000c0c0000
000c0c0000
000c0c0000
000c0c0000
000c0c0000
000c0c0000
000c0c0000
000c0c0000
000c0c0000
000c0c0000
000c0c0000
000c0c0000
000c0c0000
000c0c0000
000c0c0000
000c0c0000
000c0c0000
000c0c0000
000c0c0000
000c0c0000
000c0c0000
000c0c0000
000c0c0000
0000000000
0000000000
0000000000
0000000000
0000000000
0000000000
ENDCHAR
STARTCHAR a1ac
ENCODING 41388 
SWIDTH 230 0
DWIDTH 34 0
BBX 34 35 0 -1
BITMAP 
0000000000
0000000000
6000000000
3000000000
1800000000
0c00000000
0600000000
0300000000
0180000000
00c0000000
0060000000
0030000000
0018000000
000c000000
0006000000
0003000000
0001800000
0000c00000
0000600000
0000300000
0000180000
00000c0000
0000060000
0000030000
0000018000
000000c000
0000006000
0000003000
0000001800
0000000c00
0000000600
0000000300
0000000000
0000000000
0000000000
ENDCHAR
STARTCHAR a3fe
ENCODING 41982 
SWIDTH 230 0
DWIDTH 34 0
BBX 34 35 0 -1
BITMAP 
0000000000
7fffffff10
7fffffff10
0000000000
0000000000
0000000000
0000000000
0000000000
0000000000
0000000000
0000000000
0000000000
0000000000
0000000000
0000000000
0000000000
0000000000
0000000000
0000000000
0000000000
0000000000
0000000000
0000000000
0000000000
0000000000
0000000000
0000000000
0000000000
0000000000
0000000000
0000000000
0000000000
0000000000
0000000000
0000000000
ENDCHAR
STARTCHAR a1ae
ENCODING 41390 
SWIDTH 230 0
DWIDTH 34 0
BBX 34 35 0 -1
BITMAP 
0000000000
0000000300
0000000600
0000000c00
0000000c00
0000001c00
0000001e00
0000001f00
0000000f10
0000000f10
0000000700
0000000000
0000000000
0000000000
0000000000
0000000000
0000000000
0000000000
0000000000
0000000000
0000000000
0000000000
0000000000
0000000000
0000000000
0000000000
0000000000
0000000000
0000000000
0000000000
0000000000
0000000000
0000000000
0000000000
0000000000
ENDCHAR
STARTCHAR a1af
ENCODING 41391 
SWIDTH 230 0
DWIDTH 34 0
BBX 34 35 0 -1
BITMAP 
0000000000
3800000000
7c00000000
7c00000000
3e00000000
1e00000000
0e00000000
0c00000000
0c00000000
1800000000
3000000000
0000000000
0000000000
0000000000
0000000000
0000000000
0000000000
0000000000
0000000000
0000000000
0000000000
0000000000
0000000000
0000000000
0000000000
0000000000
0000000000
0000000000
0000000000
0000000000
0000000000
0000000000
0000000000
0000000000
0000000000
ENDCHAR
STARTCHAR a1b0
ENCODING 41392 
SWIDTH 230 0
DWIDTH 34 0
BBX 34 35 0 -1
BITMAP 
0000000000
0000018300
0000030600
0000060c00
0000060c00
00000e1c00
00000f1e00
00000f9f00
000007cf10
000007cf10
0000038700
0000000000
0000000000
0000000000
0000000000
0000000000
0000000000
0000000000
0000000000
0000000000
0000000000
0000000000
0000000000
0000000000
0000000000
0000000000
0000000000
0000000000
0000000000
0000000000
0000000000
0000000000
0000000000
0000000000
0000000000
ENDCHAR
STARTCHAR a1b1
ENCODING 41393 
SWIDTH 230 0
DWIDTH 34 0
BBX 34 35 0 -1
BITMAP 
0000000000
3870000000
7cf8000000
7cf8000000
3e7c000000
1e3c000000
0e1c000000
0c18000000
0c18000000
1830000000
3060000000
0000000000
0000000000
0000000000
0000000000
0000000000
0000000000
0000000000
0000000000
0000000000
0000000000
0000000000
0000000000
0000000000
0000000000
0000000000
0000000000
0000000000
0000000000
0000000000
0000000000
0000000000
0000000000
0000000000
0000000000
ENDCHAR
STARTCHAR a1b2
ENCODING 41394 
SWIDTH 230 0
DWIDTH 34 0
BBX 34 35 0 -1
BITMAP 
0000000000
0000040000
00001c0000
0000780000
0001e00000
0007800000
0006000000
0006000000
0006000000
0006000000
0006000000
0006000000
0006000000
0006000000
0006000000
0006000000
0006000000
0006000000
0006000000
0006000000
0006000000
0006000000
0006000000
0006000000
0006000000
0006000000
0006000000
0006000000
0007800000
0001e00000
0000780000
00001c0000
0000040000
0000000000
0000000000
ENDCHAR
STARTCHAR a1b3
ENCODING 41395 
SWIDTH 230 0
DWIDTH 34 0
BBX 34 35 0 -1
BITMAP 
0000000000
0004000000
0007000000
0003c00000
0000f00000
00003c0000
00000c0000
00000c0000
00000c0000
00000c0000
00000c0000
00000c0000
00000c0000
00000c0000
00000c0000
00000c0000
00000c0000
00000c0000
00000c0000
00000c0000
00000c0000
00000c0000
00000c0000
00000c0000
00000c0000
00000c0000
00000c0000
00000c0000
00003c0000
0000f00000
0003c00000
0007000000
0004000000
0000000000
0000000000
ENDCHAR
STARTCHAR a1b4
ENCODING 41396 
SWIDTH 230 0
DWIDTH 34 0
BBX 34 35 0 -1
BITMAP 
0000000000
0000000000
0000020000
0000060000
00000c0000
0000180000
0000300000
0000600000
0000c00000
0001800000
0003000000
0006000000
000c000000
0018000000
0030000000
0060000000
00c0000000
00c0000000
0060000000
0030000000
0018000000
000c000000
0006000000
0003000000
0001800000
0000c00000
0000600000
0000300000
0000180000
00000c0000
0000060000
0000020000
0000000000
0000000000
0000000000
ENDCHAR
STARTCHAR a1b5
ENCODING 41397 
SWIDTH 230 0
DWIDTH 34 0
BBX 34 35 0 -1
BITMAP 
0000000000
0000000000
0020000000
0030000000
0018000000
000c000000
0006000000
0003000000
0001800000
0000c00000
0000600000
0000300000
0000180000
00000c0000
0000060000
0000030000
0000018000
0000018000
0000030000
0000060000
00000c0000
0000180000
0000300000
0000600000
0000c00000
0001800000
0003000000
0006000000
000c000000
0018000000
0030000000
0020000000
0000000000
0000000000
0000000000
ENDCHAR
STARTCHAR a1b6
ENCODING 41398 
SWIDTH 230 0
DWIDTH 34 0
BBX 34 35 0 -1
BITMAP 
0000000000
0000000000
0000101000
0000303000
0000606000
0000c0c000
0001818000
0003030000
0006060000
000c0c0000
0018180000
0030300000
0060600000
00c0c00000
0181800000
0303000000
0606000000
0606000000
0303000000
0181800000
00c0c00000
0060600000
0030300000
0018180000
000c0c0000
0006060000
0003030000
0001818000
0000c0c000
0000606000
0000303000
0000101000
0000000000
0000000000
0000000000
ENDCHAR
STARTCHAR a1b7
ENCODING 41399 
SWIDTH 230 0
DWIDTH 34 0
BBX 34 35 0 -1
BITMAP 
0000000000
0000000000
0202000000
0303000000
0181800000
00c0c00000
0060600000
0030300000
0018180000
000c0c0000
0006060000
0003030000
0001818000
0000c0c000
0000606000
0000303000
0000181800
0000181800
0000303000
0000606000
0000c0c000
0001818000
0003030000
0006060000
000c0c0000
0018180000
0030300000
0060600000
00c0c00000
0181800000
0303000000
0202000000
0000000000
0000000000
0000000000
ENDCHAR
STARTCHAR a1b8
ENCODING 41400 
SWIDTH 230 0
DWIDTH 34 0
BBX 34 35 0 -1
BITMAP 
0000000000
003ffffc00
003ffffc00
0030000000
0030000000
0030000000
0030000000
0030000000
0030000000
0030000000
0030000000
0030000000
0030000000
0030000000
0030000000
0030000000
0030000000
0030000000
0030000000
0030000000
0030000000
0030000000
0030000000
0000000000
0000000000
0000000000
0000000000
0000000000
0000000000
0000000000
0000000000
0000000000
0000000000
0000000000
0000000000
ENDCHAR
STARTCHAR a1b9
ENCODING 41401 
SWIDTH 230 0
DWIDTH 34 0
BBX 34 35 0 -1
BITMAP 
0000000000
0000000000
0000000000
0000000000
0000000000
0000000000
0000000000
0000000000
0000000000
0000000000
0000000000
0000030000
0000030000
0000030000
0000030000
0000030000
0000030000
0000030000
0000030000
0000030000
0000030000
0000030000
0000030000
0000030000
0000030000
0000030000
0000030000
0000030000
0000030000
0000030000
0000030000
0fffff0000
0fffff0000
0000000000
0000000000
ENDCHAR
STARTCHAR a1ba
ENCODING 41402 
SWIDTH 230 0
DWIDTH 34 0
BBX 34 35 0 -1
BITMAP 
0000000000
0000000000
0007fff800
0004000800
0004000800
0004000800
00047ff800
0004400000
0004400000
0004400000
0004400000
0004400000
0004400000
0004400000
0004400000
0004400000
0004400000
0004400000
0004400000
0004400000
0004400000
0004400000
0004400000
0004400000
0004400000
0004400000
0007c00000
0000000000
0000000000
0000000000
0000000000
0000000000
0000000000
0000000000
0000000000
ENDCHAR
STARTCHAR a1bb
ENCODING 41403 
SWIDTH 230 0
DWIDTH 34 0
BBX 34 35 0 -1
BITMAP 
0000000000
0000000000
0000000000
0000000000
0000000000
0000000000
0000000000
0000f80000
0000880000
0000880000
0000880000
0000880000
0000880000
0000880000
0000880000
0000880000
0000880000
0000880000
0000880000
0000880000
0000880000
0000880000
0000880000
0000880000
0000880000
0000880000
0000880000
07ff880000
0400080000
0400080000
0400080000
07fff80000
0000000000
0000000000
0000000000
ENDCHAR
STARTCHAR a1bc
ENCODING 41404 
SWIDTH 230 0
DWIDTH 34 0
BBX 34 35 0 -1
BITMAP 
0000000000
0007f00000
0007e00000
0007e00000
0007c00000
0007c00000
0007800000
0007800000
0007800000
0007000000
0007000000
0007000000
0007000000
0006000000
0006000000
0006000000
0006000000
0006000000
0006000000
0006000000
0006000000
0007000000
0007000000
0007000000
0007000000
0007800000
0007800000
0007800000
0007c00000
0007c00000
0007e00000
0007e00000
0007f00000
0000000000
0000000000
ENDCHAR
STARTCHAR a1bd
ENCODING 41405 
SWIDTH 230 0
DWIDTH 34 0
BBX 34 35 0 -1
BITMAP 
0000000000
0003f80000
0001f80000
0001f80000
0000f80000
0000f80000
0000780000
0000780000
0000780000
0000380000
0000380000
0000380000
0000380000
0000180000
0000180000
0000180000
0000180000
0000180000
0000180000
0000180000
0000180000
0000380000
0000380000
0000380000
0000380000
0000780000
0000780000
0000780000
0000f80000
0000f80000
0001f80000
0001f80000
0003f80000
0000000000
0000000000
ENDCHAR
STARTCHAR a1be
ENCODING 41406 
SWIDTH 230 0
DWIDTH 34 0
BBX 34 35 0 -1
BITMAP 
0000000000
0000000000
0000000000
0000000000
0000000000
0000c00000
0000c00000
0000c00000
0000c00000
0000c00000
0000c00000
0000c00000
0000c00000
03fffff000
03fffff000
0000c00000
0000c00000
0000c00000
0000c00000
0000c00000
0000c00000
0000c00000
0000c00000
0000c00000
0000c00000
0000c00000
0000000000
0000000000
03fffff000
03fffff000
0000000000
0000000000
0000000000
0000000000
0000000000
ENDCHAR
STARTCHAR a1bf
ENCODING 41407 
SWIDTH 230 0
DWIDTH 34 0
BBX 34 35 0 -1
BITMAP 
0000000000
0000000000
0000000000
0000000000
0000000000
0200001000
0300003000
0180006000
00c000c000
0060018000
0030030000
0018060000
000c0c0000
0006180000
0003300000
0001e00000
0000c00000
0000c00000
0001e00000
0003300000
0006180000
000c0c0000
0018060000
0030030000
0060018000
00c000c000
0180006000
0300003000
0200001000
0000000000
0000000000
0000000000
0000000000
0000000000
0000000000
ENDCHAR
STARTCHAR a1c0
ENCODING 41408 
SWIDTH 230 0
DWIDTH 34 0
BBX 34 35 0 -1
BITMAP 
0000000000
0000000000
0000000000
0000000000
0001c00000
0003e00000
0007f00000
0007f00000
0003e00000
0001c00000
0000000000
0000000000
0000000000
0000000000
0000000000
0ffffffc00
0ffffffc00
0000000000
0000000000
0000000000
0000000000
0000000000
0001c00000
0003e00000
0007f00000
0007f00000
0003e00000
0001c00000
0000000000
0000000000
0000000000
0000000000
0000000000
0000000000
0000000000
ENDCHAR
STARTCHAR a1c4
ENCODING 41412 
SWIDTH 230 0
DWIDTH 34 0
BBX 34 35 0 -1
BITMAP 
0000000000
0000000000
0000000000
0000000000
0000000000
0000000000
0000000000
0000000000
0000000000
03e001f000
0ff807fc00
180c0c0600
3006180300
3003300300
6003300110
6001e00110
6000c00110
6001e00110
6003300110
3003300300
3006180300
180c0c0600
0ff807fc00
03e001f000
0000000000
0000000000
0000000000
0000000000
0000000000
0000000000
0000000000
0000000000
0000000000
0000000000
0000000000
ENDCHAR
STARTCHAR a1c5
ENCODING 41413 
SWIDTH 230 0
DWIDTH 34 0
BBX 34 35 0 -1
BITMAP 
0000000000
0000000000
0000000000
0000000000
0000e00000
0001f00000
0003f80000
0003f80000
0001f00000
0000e00000
0000000000
0000000000
0000000000
0000000000
0000000000
0000000000
0000000000
0000000000
0000000000
0000000000
0000000000
0000000000
0000000000
0600001800
0f00003c00
1f80007e00
1f80007e00
0f00003c00
0600001800
0000000000
0000000000
0000000000
0000000000
0000000000
0000000000
ENDCHAR
STARTCHAR a1c6
ENCODING 41414 
SWIDTH 230 0
DWIDTH 34 0
BBX 34 35 0 -1
BITMAP 
0000000000
1f00000000
3180000000
60c0000000
4040000000
4040000000
4040000000
60c0000000
3180000000
1f00000000
0000000000
0000000000
0000000000
0000000000
0000000000
0000000000
0000000000
0000000000
0000000000
0000000000
0000000000
0000000000
0000000000
0000000000
0000000000
0000000000
0000000000
0000000000
0000000000
0000000000
0000000000
0000000000
0000000000
0000000000
0000000000
ENDCHAR
STARTCHAR a1c7
ENCODING 41415 
SWIDTH 230 0
DWIDTH 34 0
BBX 34 35 0 -1
BITMAP 
0000000000
0600000000
0700000000
0780000000
0700000000
0e00000000
0c00000000
0c00000000
1800000000
3000000000
0000000000
0000000000
0000000000
0000000000
0000000000
0000000000
0000000000
0000000000
0000000000
0000000000
0000000000
0000000000
0000000000
0000000000
0000000000
0000000000
0000000000
0000000000
0000000000
0000000000
0000000000
0000000000
0000000000
0000000000
0000000000
ENDCHAR
STARTCHAR a1c8
ENCODING 41416 
SWIDTH 230 0
DWIDTH 34 0
BBX 34 35 0 -1
BITMAP 
0000000000
0618000000
071c000000
079e000000
071c000000
0e38000000
0c30000000
0c70000000
1860000000
30c0000000
0000000000
0000000000
0000000000
0000000000
0000000000
0000000000
0000000000
0000000000
0000000000
0000000000
0000000000
0000000000
0000000000
0000000000
0000000000
0000000000
0000000000
0000000000
0000000000
0000000000
0000000000
0000000000
0000000000
0000000000
0000000000
ENDCHAR
STARTCHAR a1c9
ENCODING 41417 
SWIDTH 230 0
DWIDTH 34 0
BBX 34 35 0 -1
BITMAP 
0000000000
0000000000
0e00000000
1f00000000
3180000000
60c07f0800
60c1c7c800
60c701f800
318e007800
1f1c003800
0e38001800
0038001800
0070000800
0070000800
0070000000
00e0000000
00e0000000
00e0000000
00e0000000
00e0000000
00e0000000
0070000000
0070000800
0070000800
0038000800
0038001800
001c001800
000e003800
000700f000
0001c3c000
00007f0000
0000000000
0000000000
0000000000
0000000000
ENDCHAR
STARTCHAR a3de
ENCODING 41950 
SWIDTH 230 0
DWIDTH 34 0
BBX 34 35 0 -1
BITMAP 
0000000000
0000c00000
0001e00000
0003f00000
0007f80000
000f3c0000
001c0e0000
0030030000
0000000000
0000000000
0000000000
0000000000
0000000000
0000000000
0000000000
0000000000
0000000000
0000000000
0000000000
0000000000
0000000000
0000000000
0000000000
0000000000
0000000000
0000000000
0000000000
0000000000
0000000000
0000000000
0000000000
0000000000
0000000000
0000000000
0000000000
ENDCHAR
STARTCHAR a1cc
ENCODING 41420 
SWIDTH 230 0
DWIDTH 34 0
BBX 34 35 0 -1
BITMAP 
0000000000
0000000000
0000000000
0000000000
0000000000
0000ff0000
000381c000
0007006000
000e00f000
000e00f000
001c00f000
001c006000
001c000000
001c000000
03fff80000
000e000000
000e000000
000e000000
000e000000
000e000000
000f000000
01c7001000
03f7001000
063f003000
0c0e003000
080e006000
080f80e000
0c1bffc000
07f0ff8000
01e03c0000
0000000000
0000000000
0000000000
0000000000
0000000000
ENDCHAR
STARTCHAR a1cd
ENCODING 41421 
SWIDTH 230 0
DWIDTH 34 0
BBX 34 35 0 -1
BITMAP 
0000000000
0000000000
0000000000
0000000000
0000000000
1ff001fc00
0380003000
0380006000
01c000c000
00e000c000
00e0018000
0070030000
0038030000
0038060000
001c0c0000
07ffffe000
000e180000
0007300000
0003e00000
0001c00000
07ffffe000
0001c00000
0001c00000
0001c00000
0001c00000
0001c00000
0001c00000
0001c00000
0001c00000
000ff80000
0000000000
0000000000
0000000000
0000000000
0000000000
ENDCHAR
STARTCHAR a7a2
ENCODING 42914 
SWIDTH 230 0
DWIDTH 34 0
BBX 34 35 0 -1
BITMAP 
0000000000
0000000000
0000000000
0000000000
0000000000
0000000000
000000f000
000003fc00
0000079e00
0000070e00
0000070e00
0000070e00
0000070e00
3800070e00
3fff070e00
3861870e00
3861870e00
3861870c00
3861871c00
3861831c00
3861833800
386183b800
386181f010
386180e010
386181f110
3861839110
3861861910
38618c0d10
3861980f10
7cf3c00700
0000000000
0000000000
0000000000
0000000000
0000000000
ENDCHAR
STARTCHAR a7a3
ENCODING 42915 
SWIDTH 230 0
DWIDTH 34 0
BBX 34 35 0 -1
BITMAP 
0000000000
0000000000
0000000000
0000000000
0000000000
0000000000
000fe0f000
000383fc00
0003879e00
0003870e00
0003870e00
0003870e00
0003870e00
0003870e00
0003870e00
0003870e00
0003870e00
0003870c00
03f3871c00
0fff831c00
1c07833800
380383b800
380381f010
380380e010
380381f110
380383b110
3803863910
1c038c1d10
0fffb80f10
0007e00700
0000000000
0000000000
0000000000
0000000000
0000000000
ENDCHAR
STARTCHAR a7a4
ENCODING 42916 
SWIDTH 230 0
DWIDTH 34 0
BBX 34 35 0 -1
BITMAP 
0000000000
0000000000
0000000000
0000000000
0000000000
0000000000
000fe00000
007ff80000
00f03c0000
01e01e0000
01c00e0000
01c00e0000
01c00e0000
01c00e0000
01c00e0000
01c00e0000
01c00e0000
01c00e0000
01c00e0000
01c00e0000
01c00e0000
01c00e0000
00e01c0100
00f03c0300
0078780700
003cf00700
000fe00e00
001ff00e00
00fc7c3c00
0fc01ff800
000007e000
0000000000
0000000000
0000000000
0000000000
ENDCHAR
STARTCHAR a7a6
ENCODING 42918 
SWIDTH 230 0
DWIDTH 34 0
BBX 34 35 0 -1
BITMAP 
0000000000
0000000000
0000000000
0000000000
0000000000
0000000000
0000000000
03fc03fc00
0fff0fff00
1e079e0710
1c039c0310
3803b80310
3800380000
3800380000
3800380000
3800380000
3800380000
3800380000
3800380000
3800380000
3800380000
3800380000
3803b80310
3c03bc0310
1e071e0700
0fff0fff00
07fc07fc00
0000000000
0000000000
0000000000
0000000000
0000000000
0000000000
0000000000
0000000000
ENDCHAR
STARTCHAR a7a6
ENCODING 42918 
SWIDTH 230 0
DWIDTH 34 0
BBX 34 35 0 -1
BITMAP 
0000000000
0000000000
0000000000
0000000000
0000000000
0000000000
0000000000
0000000000
3800380000
3fff3fff00
3861b86110
3861b86110
3861b86110
3861b86110
3861b86110
3861b86110
3861b86110
3861b86110
3861b86110
3861b86110
3861b86110
3861b86110
3861b86110
3861b86110
7c61fc6110
0000000000
0000000000
0000000000
0000000000
0000000000
0000000000
0000000000
0000000000
0000000000
0000000000
ENDCHAR
STARTCHAR a7af
ENCODING 42927 
SWIDTH 230 0
DWIDTH 34 0
BBX 34 35 0 -1
BITMAP 
0000000000
0000000000
0000000000
0000000000
0000000000
0000000000
0000000000
0000000000
03fc380000
0fff3fff00
1e07b86110
1c03b86110
3803b86110
3800386110
3800386110
3800386110
3800386110
3800386110
3800386110
3800386110
3800386110
3800386110
3800386110
3803b86110
3c03b86110
1e07386110
0fff386110
07fc3c6110
0000000000
0000000000
0000000000
0000000000
0000000000
0000000000
0000000000
ENDCHAR
STARTCHAR a7b0
ENCODING 42928 
SWIDTH 230 0
DWIDTH 34 0
BBX 34 35 0 -1
BITMAP 
0000000000
0000000000
0000000000
0000000000
0000000000
7c00000000
3800000000
3800000000
3800000000
3800000000
380fb80000
38073fff00
380e386110
381c386110
3838386110
3870386110
38e0386110
39c0386110
3b80386110
3fc0386110
3ee0386110
3c70386110
3838386110
381c386110
380e386110
3807386110
7c0ffc6110
0000000000
0000000000
0000000000
0000000000
0000000000
0000000000
0000000000
0000000000
ENDCHAR
STARTCHAR a7b7
ENCODING 42935 
SWIDTH 230 0
DWIDTH 34 0
BBX 34 35 0 -1
BITMAP 
0000000000
0000000000
0000000000
0000000000
3800000110
3fff000310
38618ff700
38619c3e00
3861b81c00
3861b81c00
3861b81c00
3861b81c00
38619c3800
38618ff000
3861870000
38618e0000
38618e0000
38619ff800
3861bc0e00
3861b80700
3861b80310
3861b80310
3861b80310
3861b80310
3861b80310
38619c0700
38618e0e00
7c6187fc00
0000000000
0000000000
0000000000
0000000000
0000000000
0000000000
0000000000
ENDCHAR
STARTCHAR a7b8
ENCODING 42936 
SWIDTH 230 0
DWIDTH 34 0
BBX 34 35 0 -1
BITMAP 
0000000000
0000000000
0000000000
7c00000000
3800000000
3800000000
3800000000
3800000110
3800000310
3807efe700
38039c7600
3807383c00
380e381c00
381c381c00
38383c3c00
38701ff800
38e00ff000
39c00e0000
3b800e0000
3f801ff800
3dc03c0e00
38e0380700
3870380310
3838380310
381c380310
380e380310
3807380310
38039c0700
3801ce0e00
7c03e7fc00
0000000000
0000000000
0000000000
0000000000
0000000000
ENDCHAR
STARTCHAR a1d7
ENCODING 41431 
SWIDTH 230 0
DWIDTH 34 0
BBX 34 35 0 -1
BITMAP 
0000000000
0000000000
0003e00000
0006380000
000c0e0000
00180f0000
00180f0000
000c0f0000
000c060000
0006000000
0003800000
0001c00000
0003f00000
0006380000
000c0c0000
0008060000
0008060000
000c030000
000c030000
0006060000
00038c0000
0001f80000
0000700000
0000380000
00000c0000
000c060000
001e060000
001e030000
001e030000
000e060000
00070c0000
0001f80000
0000000000
0000000000
0000000000
ENDCHAR
STARTCHAR a1d8
ENCODING 41432 
SWIDTH 230 0
DWIDTH 34 0
BBX 34 35 0 -1
BITMAP 
0000000000
0000000000
0000000000
0800c00400
0c01e00c00
0603f01800
0303f03000
0181e06000
00c0c0c000
0060018000
0030030000
0018060000
000c0c0000
0c06180c00
1e03301e00
3f01e03f00
3f00c03f00
3f00c03f00
1e01e01e00
0c03300c00
0006180000
000c0c0000
0018060000
0030030000
0060018000
00c0c0c000
0181e06000
0303f03000
0603f01800
0c01e00c00
0800c00400
0000000000
0000000000
0000000000
0000000000
ENDCHAR
STARTCHAR a1d9
ENCODING 41433 
SWIDTH 230 0
DWIDTH 34 0
BBX 34 35 0 -1
BITMAP 
0000000000
0000400000
0000e00000
0000a00000
0000a00000
0001b00000
0001100000
0003180000
0002080000
0002080000
00060c0000
0004040000
000c060000
7ff803ff10
3000000300
0800000400
0400000800
0300003000
0080004000
0040008000
0020010000
0020010000
0020010000
0060c18000
0041208000
00c210c000
0084084000
0188046000
0110022000
0120012000
03c000f000
0300003000
0200001000
0000000000
0000000000
ENDCHAR
STARTCHAR a1da
ENCODING 41434 
SWIDTH 230 0
DWIDTH 34 0
BBX 34 35 0 -1
BITMAP 
0000000000
0000400000
0000e00000
0000e00000
0000e00000
0001f00000
0001f00000
0003f80000
0003f80000
0003f80000
0007fc0000
0007fc0000
000ffe0000
7fffffff10
3fffffff00
0ffffffc00
07fffff800
03fffff000
00ffffc000
007fff8000
003fff0000
003fff0000
003fff0000
007fff8000
007f3f8000
00fe1fc000
00fc0fc000
01f807e000
01f003e000
01e001e000
03c000f000
0300003000
0200001000
0000000000
0000000000
ENDCHAR
STARTCHAR a1db
ENCODING 41435 
SWIDTH 230 0
DWIDTH 34 0
BBX 34 35 0 -1
BITMAP 
0000000000
0003f00000
001e1e0000
0070038000
01c000e000
0300003000
0600001800
0c00000c00
1800000600
1000000200
3000000300
2000000100
2000000100
6000000110
4000000010
4000000010
4000000010
4000000010
4000000010
4000000010
6000000110
2000000100
2000000100
1000000300
1000000200
0800000600
0c00000c00
0600001800
0300003000
01c000e000
0070038000
001e1e0000
0003f00000
0000000000
0000000000
ENDCHAR
STARTCHAR a1dc
ENCODING 41436 
SWIDTH 230 0
DWIDTH 34 0
BBX 34 35 0 -1
BITMAP 
0000000000
0003f00000
001ffe0000
007fff8000
01ffffe000
03fffff000
07fffff800
0ffffffc00
1ffffffe00
1ffffffe00
3fffffff00
3fffffff00
3fffffff00
7fffffff10
7fffffff10
7fffffff10
7fffffff10
7fffffff10
7fffffff10
7fffffff10
7fffffff10
3fffffff00
3fffffff00
3fffffff00
1ffffffe00
1ffffffe00
0ffffffc00
07fffff800
03fffff000
01ffffe000
007fff8000
001ffe0000
0003f00000
0000000000
0000000000
ENDCHAR
STARTCHAR a1dd
ENCODING 41437 
SWIDTH 230 0
DWIDTH 34 0
BBX 34 35 0 -1
BITMAP 
0000000000
0003f00000
001e1e0000
0070038000
01c000e000
0300003000
0603f01800
0c0e1c0c00
1838070600
1060018200
30c000c300
2080004100
2180006100
6100002110
4300003010
4200001010
4200001010
4200001010
4200001010
4300003010
6100002110
2180006100
2080004100
30c000c300
1060018200
1838070600
0c0e1c0c00
0603f01800
0300003000
01c000e000
0070038000
001e1e0000
0003f00000
0000000000
0000000000
ENDCHAR
STARTCHAR a1de
ENCODING 41438 
SWIDTH 230 0
DWIDTH 34 0
BBX 34 35 0 -1
BITMAP 
0000000000
0000800000
0001400000
0002200000
0004100000
0008080000
0010040000
0020020000
0040010000
0080008000
0100004000
0200002000
0400001000
0800000800
1000000400
2000000200
4000000100
2000000010
1000000100
0800000200
0400000400
0200000800
0100001000
0080002000
0040004000
0020008000
0010010000
0008020000
0004040000
0002080000
0001100000
0000a00000
0000400000
0000000000
0000000000
ENDCHAR
STARTCHAR a1df
ENCODING 41439 
SWIDTH 230 0
DWIDTH 34 0
BBX 34 35 0 -1
BITMAP 
0000000000
0000800000
0001c00000
0003e00000
0007f00000
000ff80000
001ffc0000
003ffe0000
007fff0000
00ffff8000
01ffffc000
03ffffe000
07fffff000
0ffffff800
1ffffffc00
3ffffffe00
7fffffff00
3fffffff10
1fffffff00
0ffffffe00
07fffffc00
03fffff800
01fffff000
00ffffe000
007fffc000
003fff8000
001fff0000
000ffe0000
0007fc0000
0003f80000
0001f00000
0000e00000
0000400000
0000000000
0000000000
ENDCHAR
STARTCHAR a1e0
ENCODING 41440 
SWIDTH 230 0
DWIDTH 34 0
BBX 34 35 0 -1
BITMAP 
0000000000
0000000000
0000000000
0000000000
0000000000
07fffff800
0400000800
0400000800
0400000800
0400000800
0400000800
0400000800
0400000800
0400000800
0400000800
0400000800
0400000800
0400000800
0400000800
0400000800
0400000800
0400000800
0400000800
0400000800
0400000800
0400000800
0400000800
0400000800
07fffff800
0000000000
0000000000
0000000000
0000000000
0000000000
0000000000
ENDCHAR
STARTCHAR a1e1
ENCODING 41441 
SWIDTH 230 0
DWIDTH 34 0
BBX 34 35 0 -1
BITMAP 
0000000000
0000000000
0000000000
0000000000
0000000000
07fffff800
07fffff800
07fffff800
07fffff800
07fffff800
07fffff800
07fffff800
07fffff800
07fffff800
07fffff800
07fffff800
07fffff800
07fffff800
07fffff800
07fffff800
07fffff800
07fffff800
07fffff800
07fffff800
07fffff800
07fffff800
07fffff800
07fffff800
07fffff800
0000000000
0000000000
0000000000
0000000000
0000000000
0000000000
ENDCHAR
STARTCHAR a1e2
ENCODING 41442 
SWIDTH 230 0
DWIDTH 34 0
BBX 34 35 0 -1
BITMAP 
0000000000
0000c00000
0001e00000
0001200000
0003300000
0002100000
0006180000
0004080000
000c0c0000
0008040000
0018060000
0010020000
0010020000
0030030000
0020010000
0060018000
0040008000
00c000c000
0080004000
0180006000
0100002000
0300003000
0200001000
0600001800
0400000800
0c00000c00
0800000400
1800000600
1000000200
3000000300
2000000300
7fffffff10
0000000000
0000000000
0000000000
ENDCHAR
STARTCHAR a1e3
ENCODING 41443 
SWIDTH 230 0
DWIDTH 34 0
BBX 34 35 0 -1
BITMAP 
0000000000
0000c00000
0001e00000
0001e00000
0003f00000
0003f00000
0007f80000
0007f80000
000ffc0000
000ffc0000
001ffe0000
001ffe0000
001ffe0000
003fff0000
003fff0000
007fff8000
007fff8000
00ffffc000
00ffffc000
01ffffe000
01ffffe000
03fffff000
03fffff000
07fffff800
07fffff800
0ffffffc00
0ffffffc00
1ffffffe00
1ffffffe00
3fffffff00
3fffffff00
7fffffff10
0000000000
0000000000
0000000000
ENDCHAR
STARTCHAR a1e4
ENCODING 41444 
SWIDTH 230 0
DWIDTH 34 0
BBX 34 35 0 -1
BITMAP 
0000000000
0000000000
0000000000
0000000000
0000000000
7fffffff10
2000000100
3000000300
1000000200
1800000600
0800000400
0c00000c00
0400000800
0600001800
0200001000
0300003000
0100002000
0180006000
00c000c000
0040008000
0060018000
0020010000
0030030000
0010020000
0018060000
0008040000
000c0c0000
0004080000
0006180000
0003300000
0001200000
0001e00000
0000c00000
0000000000
0000000000
ENDCHAR
STARTCHAR a1e5
ENCODING 41445 
SWIDTH 230 0
DWIDTH 34 0
BBX 34 35 0 -1
BITMAP 
0000000000
0000000000
0000000000
0000000000
0000000000
7fffffff10
3fffffff00
3fffffff00
1ffffffe00
1ffffffe00
0ffffffc00
0ffffffc00
07fffff800
07fffff800
03fffff000
03fffff000
01ffffe000
01ffffe000
00ffffc000
007fff8000
007fff8000
003fff0000
003fff0000
001ffe0000
001ffe0000
000ffc0000
000ffc0000
0007f80000
0007f80000
0003f00000
0001e00000
0001e00000
0000c00000
0000000000
0000000000
ENDCHAR
STARTCHAR a1e6
ENCODING 41446 
SWIDTH 230 0
DWIDTH 34 0
BBX 34 35 0 -1
BITMAP 
0000000000
0000000000
0000000000
0000000000
0000000000
0000000000
0000000000
0000000000
0000008000
000000c000
0000006000
0000003000
0000001800
0000000c00
0000000600
7fffffff10
0000000600
0000000c00
0000001800
0000003000
0000006000
000000c000
0000008000
0000000000
0000000000
0000000000
0000000000
0000000000
0000000000
0000000000
0000000000
0000000000
0000000000
0000000000
0000000000
ENDCHAR
STARTCHAR a1e7
ENCODING 41447 
SWIDTH 230 0
DWIDTH 34 0
BBX 34 35 0 -1
BITMAP 
0000000000
0000000000
0000000000
0000000000
0000000000
0000000000
0000000000
0000000000
0040000000
00c0000000
0180000000
0300000000
0600000000
0c00000000
1800000000
7fffffff10
1800000000
0c00000000
0600000000
0300000000
0180000000
00c0000000
0040000000
0000000000
0000000000
0000000000
0000000000
0000000000
0000000000
0000000000
0000000000
0000000000
0000000000
0000000000
0000000000
ENDCHAR
STARTCHAR a1e8
ENCODING 41448 
SWIDTH 230 0
DWIDTH 34 0
BBX 34 35 0 -1
BITMAP 
0000000000
0000800000
0000800000
0001c00000
0003e00000
0006b00000
000c980000
00188c0000
0030860000
0060830000
0000800000
0000800000
0000800000
0000800000
0000800000
0000800000
0000800000
0000800000
0000800000
0000800000
0000800000
0000800000
0000800000
0000800000
0000800000
0000800000
0000800000
0000800000
0000800000
0000800000
0000800000
0000800000
0000800000
0000000000
0000000000
ENDCHAR
STARTCHAR a1e9
ENCODING 41449 
SWIDTH 230 0
DWIDTH 34 0
BBX 34 35 0 -1
BITMAP 
0000000000
0000800000
0000800000
0000800000
0000800000
0000800000
0000800000
0000800000
0000800000
0000800000
0000800000
0000800000
0000800000
0000800000
0000800000
0000800000
0000800000
0000800000
0000800000
0000800000
0000800000
0000800000
0000800000
0000800000
0060830000
0030860000
00188c0000
000c980000
0006b00000
0003e00000
0001c00000
0000800000
0000800000
0000000000
0000000000
ENDCHAR
STARTCHAR a1ea
ENCODING 41450 
SWIDTH 230 0
DWIDTH 34 0
BBX 34 35 0 -1
BITMAP 
0000000000
0000000000
0000000000
0000000000
0000000000
0000000000
0000000000
0000000000
0000000000
0080010000
030000c000
0600006000
1c00003800
3800001c00
7ffffffe00
3800001c00
1c00003800
0e00007000
030000c000
0080010000
0000000000
0000000000
0000000000
0000000000
0000000000
0000000000
0000000000
0000000000
0000000000
0000000000
0000000000
0000000000
0000000000
0000000000
0000000000
ENDCHAR
STARTCHAR a1eb
ENCODING 41451 
SWIDTH 230 0
DWIDTH 34 0
BBX 34 35 0 -1
BITMAP 
0000000000
0000000000
0000000000
0000000000
0000000000
0000000000
0000000000
0000000000
01ffffe000
01ffffe000
01ffffe000
01ffffe000
01ffffe000
01ffffe000
0000000000
0000000000
0000000000
0000000000
0000000000
0000000000
01ffffe000
01ffffe000
01ffffe000
01ffffe000
01ffffe000
01ffffe000
0000000000
0000000000
0000000000
0000000000
0000000000
0000000000
0000000000
0000000000
0000000000
ENDCHAR
STARTCHAR a3db
ENCODING 41947 
SWIDTH 230 0
DWIDTH 34 0
BBX 34 35 0 -1
BITMAP 
0000000000
0000000000
0003fe0000
0003fe0000
0003000000
0003000000
0003000000
0003000000
0003000000
0003000000
0003000000
0003000000
0003000000
0003000000
0003000000
0003000000
0003000000
0003000000
0003000000
0003000000
0003000000
0003000000
0003000000
0003000000
0003000000
0003000000
0003000000
0003000000
0003000000
0003000000
0003fe0000
0003fe0000
0000000000
0000000000
0000000000
ENDCHAR
STARTCHAR a3dd
ENCODING 41949 
SWIDTH 230 0
DWIDTH 34 0
BBX 34 35 0 -1
BITMAP 
0000000000
0000000000
0003fc0000
0003fc0000
00000c0000
00000c0000
00000c0000
00000c0000
00000c0000
00000c0000
00000c0000
00000c0000
00000c0000
00000c0000
00000c0000
00000c0000
00000c0000
00000c0000
00000c0000
00000c0000
00000c0000
00000c0000
00000c0000
00000c0000
00000c0000
00000c0000
00000c0000
00000c0000
00000c0000
00000c0000
00000c0000
0007fc0000
0007fc0000
0000000000
0000000000
ENDCHAR
STARTCHAR a1c1
ENCODING 41409 
SWIDTH 230 0
DWIDTH 34 0
BBX 34 35 0 -1
BITMAP 
0000000000
0000000000
0000000000
0000001c00
000000fc00
000007e000
00003f0000
0001f80000
000fc00000
007e000000
03f0000000
0780000000
0c00000000
0780000000
03f0000000
007e000000
000fc00000
0001f80000
00003f0000
000007e000
000000fc00
0000001c00
0000000000
0000000000
0000000000
0ffffffc00
0ffffffc00
0000000000
0000000000
0000000000
0000000000
0000000000
0000000000
0000000000
0000000000
ENDCHAR
STARTCHAR a1c1
ENCODING 41409 
SWIDTH 230 0
DWIDTH 34 0
BBX 34 35 0 -1
BITMAP 
0000000000
0000000000
0000000000
1800000000
0c00000000
0600000000
0300000000
0180000000
00c0000000
0060000000
0030000000
0018000000
1ffffffe00
1ffffffe00
0003000000
0001800000
0000c00000
0000600000
0000300000
1ffffffe00
1ffffffe00
0000060000
0000030000
0000018000
000000c000
0000006000
0000003000
0000001800
0000000c00
0000000600
0000000000
0000000000
0000000000
0000000000
0000000000
ENDCHAR
STARTCHAR a1c2
ENCODING 41410 
SWIDTH 230 0
DWIDTH 34 0
BBX 34 35 0 -1
BITMAP 
0000000000
0000000000
0000000000
0e00000000
0fc0000000
01f8000000
003f000000
0007e00000
0000fc0000
00001f8000
000003f000
0000007800
0000000c00
0000007800
000003f000
00001f8000
0000fc0000
0007e00000
003f000000
01f8000000
0fc0000000
0e00000000
0000000000
0000000000
0000000000
0ffffffc00
0ffffffc00
0000000000
0000000000
0000000000
0000000000
0000000000
0000000000
0000000000
0000000000
ENDCHAR
STARTCHAR a1ca
ENCODING 41418 
SWIDTH 230 0
DWIDTH 34 0
BBX 34 35 0 -1
BITMAP 
0000000000
0001e00000
0002100000
0002100000
0002100000
0001e00000
0000000000
0000000000
0000c00000
0000c00000
0001600000
0001600000
0002300000
0002300000
0004180000
0004180000
00080c0000
00080c0000
0010060000
0010060000
0020030000
0020030000
0040018000
007fff8000
008000c000
008000c000
0100006000
0100006000
0200003000
0200003000
0f8000fc00
0000000000
0000000000
0000000000
0000000000
ENDCHAR
STARTCHAR a1ce
ENCODING 41422 
SWIDTH 230 0
DWIDTH 34 0
BBX 34 35 0 -1
BITMAP 
0000000000
0000800000
0001c00000
0002a00000
0002a00000
0004900000
0008880000
0010840000
0010840000
0020820000
0040810000
0040810000
0080808000
0100804000
0000800000
0000800000
0000800000
0000800000
0000800000
0000800000
000ff80000
0010040000
0020020000
0020020000
0040010000
0040010000
0040010000
0040010000
0040010000
0020020000
0020020000
0010040000
000ff80000
0000000000
0000000000
ENDCHAR
STARTCHAR a1cf
ENCODING 41423 
SWIDTH 230 0
DWIDTH 34 0
BBX 34 35 0 -1
BITMAP 
0000000000
0000000000
000ff80000
0010040000
0020020000
0020020000
0040010000
0040010000
0040010000
0040010000
0040010000
0020020000
0020020000
0010040000
000ff80000
0000800000
0000800000
0000800000
0000800000
0000800000
0ffffff800
0000800000
0000800000
0000800000
0000800000
0000800000
0000800000
0000800000
0000800000
0000800000
0000800000
0000800000
0000000000
0000000000
0000000000
ENDCHAR
STARTCHAR a1d0
ENCODING 41424 
SWIDTH 230 0
DWIDTH 34 0
BBX 34 35 0 -1
BITMAP 
0000000000
0000000000
0000000000
0000000000
0000000000
0000001000
0000002000
0000004000
0000008000
0000010000
0000020000
0000040000
0000080000
0000100000
0000200000
0000400000
0000800000
0001000000
0002000000
0004000000
0008000000
0010000000
0020000000
0040000000
0080000000
0100000000
0200000000
07fffff800
0000000000
0000000000
0000000000
0000000000
0000000000
0000000000
0000000000
ENDCHAR
STARTCHAR a1d1
ENCODING 41425 
SWIDTH 230 0
DWIDTH 34 0
BBX 34 35 0 -1
BITMAP 
0000000000
0000000000
0000000000
0000000000
0000000000
0000800000
0000800000
0000800000
0000800000
0000800000
0000800000
0000800000
0000800000
0000800000
0000800000
0000800000
0000800000
0000800000
0000800000
0000800000
0000800000
0000800000
0000800000
0000800000
0000800000
0000800000
0000800000
07fffff800
0000000000
0000000000
0000000000
0000000000
0000000000
0000000000
0000000000
ENDCHAR
STARTCHAR a1d2
ENCODING 41426 
SWIDTH 230 0
DWIDTH 34 0
BBX 34 35 0 -1
BITMAP 
0000000000
0007f80000
003fff0000
01f807e000
07c000f800
0c00000c00
3000000300
4000000010
0000000000
0000000000
0000000000
0000000000
0000000000
0000000000
0000000000
0000000000
0000000000
0000000000
0000000000
0000000000
0000000000
0000000000
0000000000
0000000000
0000000000
0000000000
0000000000
0000000000
0000000000
0000000000
0000000000
0000000000
0000000000
0000000000
0000000000
ENDCHAR
STARTCHAR a1d3
ENCODING 41427 
SWIDTH 230 0
DWIDTH 34 0
BBX 34 35 0 -1
BITMAP 
0000000000
0000000000
0000000000
0000000000
00000f8000
00003fc000
0000406000
0000803000
0000003000
0000003000
0000003000
0000006000
0003e06000
000f18c000
001c04c000
0030038000
0060018000
00c0030000
00c0030000
0180060000
01800c0000
01800c0000
0300180000
0300300000
0300300000
0300600000
0101c00000
0103800000
00ce000000
0038000000
0000000000
0000000000
0000000000
0000000000
0000000000
ENDCHAR
STARTCHAR a1d4
ENCODING 41428 
SWIDTH 230 0
DWIDTH 34 0
BBX 34 35 0 -1
BITMAP 
0000000000
0000000000
0000000000
0000000000
0ffffffc00
0600000800
0600000800
0300001000
0300001000
0180002000
0180002000
00c0004000
00c0004000
0060008000
0060008000
0030010000
0030010000
0018020000
0018020000
000c040000
000c040000
0006080000
0006080000
0003100000
0003100000
0001a00000
0001a00000
0000c00000
0000c00000
0000c00000
0000000000
0000000000
0000000000
0000000000
0000000000
ENDCHAR
STARTCHAR a1d5
ENCODING 41429 
SWIDTH 230 0
DWIDTH 34 0
BBX 34 35 0 -1
BITMAP 
0000000000
0000000000
0000000000
0000000000
0000000000
0000000000
0000000000
0000000000
0000000000
0000000000
07fffff800
0000000000
0000000000
0000000000
0000000000
0000000000
07fffff800
0000000000
0000000000
0000000000
0000000000
0000000000
07fffff800
0000000000
0000000000
0000000000
0000000000
0000000000
0000000000
0000000000
0000000000
0000000000
0000000000
0000000000
0000000000
ENDCHAR
STARTCHAR a1d6
ENCODING 41430 
SWIDTH 230 0
DWIDTH 34 0
BBX 34 35 0 -1
BITMAP 
0000000000
0000000000
0000000000
0000000000
0000000000
0000000000
0060000000
00f0000000
00f0000000
0060000000
0000000000
0000000000
0000000000
07fffff800
0000000000
0000000000
0000000000
0000000000
0000000000
07fffff800
0000000000
0000000000
0000000000
0000018000
000003c000
000003c000
0000018000
0000000000
0000000000
0000000000
0000000000
0000000000
0000000000
0000000000
0000000000
ENDCHAR
STARTCHAR a1ec
ENCODING 41452 
SWIDTH 230 0
DWIDTH 34 0
BBX 34 35 0 -1
BITMAP 
0000000000
0000000000
0000000000
0000000000
0000000000
0000040800
0000183000
0000204000
0000c18000
0001020000
00060c0000
0008100000
0030600000
0040800000
0081000000
0306000000
0408000000
0204000000
0102000000
0081000000
0060c00000
0010200000
000c180000
0002040000
0001020000
0000810000
000060c000
0000102000
00000c1800
0000000000
0000000000
0000000000
0000000000
0000000000
0000000000
ENDCHAR
STARTCHAR a1ed
ENCODING 41453 
SWIDTH 230 0
DWIDTH 34 0
BBX 34 35 0 -1
BITMAP 
0000000000
0000000000
0000000000
0000000000
0000000000
0408000000
0306000000
0081000000
0060c00000
0010200000
000c180000
0002040000
0001830000
0000408000
0000204000
0000183000
0000040800
0000081000
0000102000
0000204000
0000c18000
0001020000
00060c0000
0008100000
0010200000
0020400000
00c1800000
0102000000
060c000000
0000000000
0000000000
0000000000
0000000000
0000000000
0000000000
ENDCHAR
STARTCHAR a1ee
ENCODING 41454 
SWIDTH 230 0
DWIDTH 34 0
BBX 34 35 0 -1
BITMAP 
0000000000
00007fff10
0000400000
0000400000
0000400000
0000800000
0000800000
0000800000
0000800000
0001000000
0001000000
0001000000
0001000000
0002000000
0002000000
0002000000
0002000000
0004000000
0004000000
0204000000
0704000000
0b08000000
1308000000
2188000000
4188000000
0190000000
00d0000000
00d0000000
00d0000000
0060000000
0060000000
0060000000
0020000000
0000000000
0000000000
ENDCHAR
STARTCHAR a1ef
ENCODING 41455 
SWIDTH 230 0
DWIDTH 34 0
BBX 34 35 0 -1
BITMAP 
0000000000
0000000000
0000000000
0000000000
0000000000
0000000000
0000000000
0000000000
0000000000
0000000000
01e003c000
06180c3000
0800100800
1000200400
1000200400
2000400200
2000800200
2000800200
2001000200
1002000400
1002000400
0804000800
06180c3000
01e003c000
0000000000
0000000000
0000000000
0000000000
0000000000
0000000000
0000000000
0000000000
0000000000
0000000000
0000000000
ENDCHAR
STARTCHAR a1cb
ENCODING 41419 
SWIDTH 230 0
DWIDTH 34 0
BBX 34 35 0 -1
BITMAP 
0000000000
0000000000
0000000000
0000c00000
0000c00000
0000c00000
0000c00000
0003f00000
000edc0000
0018c60000
0030cf0000
0030cf0000
0060c60000
0060c00000
00c0c00000
00c0c00000
00c0c00000
00c0c00000
00c0c00000
0060c08000
0060c18000
0030c10000
0030c30000
0018c60000
000edc0000
0003f00000
0000c00000
0000c00000
0000c00000
0000c00000
0000000000
0000000000
0000000000
0000000000
0000000000
ENDCHAR
STARTCHAR a3ae
ENCODING 41902 
SWIDTH 230 0
DWIDTH 34 0
BBX 34 35 0 -1
BITMAP 
0000000000
0000000000
0000000000
0000000000
0000000000
0000000000
0000000000
0000000000
0000000000
0000000000
0000000000
0000000000
0000000000
0000000000
0000000000
0000000000
0000000000
0000000000
0000000000
0000000000
0000000000
0000000000
0000000000
0000000000
0000000000
0000000000
0380000000
07c0000000
0fe0000000
0fe0000000
07c0000000
0380000000
0000000000
0000000000
0000000000
ENDCHAR
STARTCHAR a3bc
ENCODING 41916 
SWIDTH 230 0
DWIDTH 34 0
BBX 34 35 0 -1
BITMAP 
0000000000
0000000000
0000000000
0000000e00
0000003800
000000e000
0000038000
00000e0000
0000380000
0000e00000
0003800000
000e000000
0038000000
00e0000000
0380000000
0e00000000
3c00000000
3c00000000
0e00000000
0380000000
00e0000000
0038000000
000e000000
0003800000
0000e00000
0000380000
00000e0000
0000038000
000000e000
0000003800
0000000e00
0000000000
0000000000
0000000000
0000000000
ENDCHAR
STARTCHAR a3a8
ENCODING 41896 
SWIDTH 230 0
DWIDTH 34 0
BBX 34 35 0 -1
BITMAP 
0000000000
0000000000
0000000000
0000080000
0000300000
0000600000
0000c00000
0001800000
0001800000
0003000000
0003000000
0003000000
0003000000
0006000000
0006000000
0006000000
0006000000
0006000000
0006000000
0006000000
0006000000
0003000000
0003000000
0003000000
0003000000
0001800000
0001800000
0000c00000
0000600000
0000300000
0000080000
0000000000
0000000000
0000000000
0000000000
ENDCHAR
STARTCHAR a3ab
ENCODING 41899 
SWIDTH 230 0
DWIDTH 34 0
BBX 34 35 0 -1
BITMAP 
0000000000
0000000000
0000000000
0000000000
0000c00000
0000c00000
0000c00000
0000c00000
0000c00000
0000c00000
0000c00000
0000c00000
0000c00000
0000c00000
0000c00000
07fffffc00
07fffffc00
0000c00000
0000c00000
0000c00000
0000c00000
0000c00000
0000c00000
0000c00000
0000c00000
0000c00000
0000c00000
0000c00000
0000c00000
0000c00000
0000c00000
0000000000
0000000000
0000000000
0000000000
ENDCHAR
STARTCHAR a3fc
ENCODING 41980 
SWIDTH 230 0
DWIDTH 34 0
BBX 34 35 0 -1
BITMAP 
0000000000
0000000000
0000c00000
0000c00000
0000c00000
0000c00000
0000c00000
0000c00000
0000c00000
0000c00000
0000c00000
0000c00000
0000c00000
0000c00000
0000c00000
0000c00000
0000c00000
0000c00000
0000c00000
0000c00000
0000c00000
0000c00000
0000c00000
0000c00000
0000c00000
0000c00000
0000c00000
0000c00000
0000c00000
0000c00000
0000c00000
0000c00000
0000000000
0000000000
0000000000
ENDCHAR
STARTCHAR a3a6
ENCODING 41894 
SWIDTH 230 0
DWIDTH 34 0
BBX 34 35 0 -1
BITMAP 
0000000000
0000000000
0000000000
0000000000
0000000000
0001e00000
0007380000
000e1c0000
001c0e0000
001c0e0000
001c1c0000
001c180000
000e700000
000fc00000
001f000000
0037000000
006703e000
00e3808000
01c3808000
01c3808000
0381c18000
0381c10000
0380e30000
0380e20000
0380760800
01c03c0800
01c01c0800
00e01e1800
0078fff000
000f81e000
0000000000
0000000000
0000000000
0000000000
0000000000
ENDCHAR
STARTCHAR a3a1
ENCODING 41889 
SWIDTH 230 0
DWIDTH 34 0
BBX 34 35 0 -1
BITMAP 
0000000000
0000000000
0000800000
0001c00000
0001c00000
0001c00000
0001c00000
0001c00000
0001c00000
0001c00000
0001c00000
0001c00000
0001c00000
0001c00000
0001c00000
0001c00000
0001c00000
0001c00000
0000800000
0000800000
0000800000
0000800000
0000800000
0000800000
0000800000
0000000000
0000000000
0000000000
0001c00000
0003e00000
0003e00000
0001c00000
0000000000
0000000000
0000000000
ENDCHAR
STARTCHAR a3a4
ENCODING 41892 
SWIDTH 230 0
DWIDTH 34 0
BBX 34 35 0 -1
BITMAP 
0000000000
0000000000
0000000000
0000c00000
0000c00000
0007f80000
001cce0000
0038c30000
0038c38000
0070c78000
0070c78000
0070c30000
0070c00000
0038c00000
0038c00000
001fc00000
0007c00000
0000f80000
0000ff0000
0000c38000
0000c38000
0060c1c000
00f0c1c000
00f0c1c000
00f0c1c000
00e0c38000
0060c38000
0038c70000
000ffc0000
0000c00000
0000c00000
0000000000
0000000000
0000000000
0000000000
ENDCHAR
STARTCHAR a3aa
ENCODING 41898 
SWIDTH 230 0
DWIDTH 34 0
BBX 34 35 0 -1
BITMAP 
0000000000
0000000000
0000000000
0000000000
0000000000
0000400000
0000e00000
00c1f06000
01e0e0f000
00f0e1e000
0038e38000
0018430000
000c460000
00064c0000
0000000000
0000000000
0000000000
0000000000
00060c0000
000c460000
001c470000
0038e38000
00f0e1e000
01e0e0f000
00c1f06000
0000e00000
0000400000
0000000000
0000000000
0000000000
0000000000
0000000000
0000000000
0000000000
0000000000
ENDCHAR
STARTCHAR a3a9
ENCODING 41897 
SWIDTH 230 0
DWIDTH 34 0
BBX 34 35 0 -1
BITMAP 
0000000000
0000000000
0000000000
0004000000
0003000000
0001800000
0000c00000
0000600000
0000600000
0000300000
0000300000
0000300000
0000300000
0000180000
0000180000
0000180000
0000180000
0000180000
0000180000
0000180000
0000180000
0000300000
0000300000
0000300000
0000300000
0000600000
0000600000
0000c00000
0001800000
0003000000
0004000000
0000000000
0000000000
0000000000
0000000000
ENDCHAR
STARTCHAR a3bb
ENCODING 41915 
SWIDTH 230 0
DWIDTH 34 0
BBX 34 35 0 -1
BITMAP 
0000000000
0000000000
0000000000
0000000000
0000000000
0000000000
0000000000
0001c00000
0003e00000
0003e00000
0003e00000
0001c00000
0000000000
0000000000
0000000000
0000000000
0000000000
0000000000
0000000000
0001c00000
0003e00000
0003f00000
0001f00000
0000700000
0000700000
0000600000
0000c00000
0001800000
0003000000
0000000000
0000000000
0000000000
0000000000
0000000000
0000000000
ENDCHAR
STARTCHAR a1fe
ENCODING 41470 
SWIDTH 230 0
DWIDTH 34 0
BBX 34 35 0 -1
BITMAP 
0000000000
0000000000
0000000000
0000000000
0000000000
0000000000
0000000000
0000000000
0000000000
0000000000
0000000000
0ffffff800
0000000800
0000000800
0000000800
0000000800
0000000800
0000000800
0000000800
0000000800
0000000800
0000000800
0000000800
0000000000
0000000000
0000000000
0000000000
0000000000
0000000000
0000000000
0000000000
0000000000
0000000000
0000000000
0000000000
ENDCHAR
STARTCHAR a3ad
ENCODING 41901 
SWIDTH 230 0
DWIDTH 34 0
BBX 34 35 0 -1
BITMAP 
0000000000
0000000000
0000000000
0000000000
0000000000
0000000000
0000000000
0000000000
0000000000
0000000000
0000000000
0000000000
0000000000
0000000000
0000000000
0ffffffe00
0ffffffe00
0000000000
0000000000
0000000000
0000000000
0000000000
0000000000
0000000000
0000000000
0000000000
0000000000
0000000000
0000000000
0000000000
0000000000
0000000000
0000000000
0000000000
0000000000
ENDCHAR
STARTCHAR a3af
ENCODING 41903 
SWIDTH 230 0
DWIDTH 34 0
BBX 34 35 0 -1
BITMAP 
0000000000
0000000000
0000000300
0000000600
0000000c00
0000001800
0000003000
0000006000
000000c000
0000018000
0000030000
0000060000
00000c0000
0000180000
0000300000
0000600000
0000c00000
0001800000
0003000000
0006000000
000c000000
0018000000
0030000000
0060000000
00c0000000
0180000000
0300000000
0600000000
0c00000000
1800000000
3000000000
6000000000
0000000000
0000000000
0000000000
ENDCHAR
STARTCHAR acfd
ENCODING 44285 
SWIDTH 230 0
DWIDTH 34 0
BBX 34 35 0 -1
BITMAP 
0000000000
0000000000
0000c00000
0000c00000
0000c00000
0000c00000
0000c00000
0000c00000
0000c00000
0000c00000
0000c00000
0000c00000
0000c00000
0000c00000
0000000000
0000000000
0000000000
0000000000
0000000000
0000000000
0000c00000
0000c00000
0000c00000
0000c00000
0000c00000
0000c00000
0000c00000
0000c00000
0000c00000
0000c00000
0000c00000
0000c00000
0000000000
0000000000
0000000000
ENDCHAR
STARTCHAR a3ac
ENCODING 41900 
SWIDTH 230 0
DWIDTH 34 0
BBX 34 35 0 -1
BITMAP 
0000000000
0000000000
0000000000
0000000000
0000000000
0000000000
0000000000
0000000000
0000000000
0000000000
0000000000
0000000000
0000000000
0000000000
0000000000
0000000000
0000000000
0000000000
0000000000
0000000000
0000000000
0000000000
0700000000
0f80000000
0f80000000
07c0000000
03c0000000
01c0000000
0180000000
0180000000
0300000000
0600000000
0c00000000
0000000000
0000000000
ENDCHAR
STARTCHAR a3a5
ENCODING 41893 
SWIDTH 230 0
DWIDTH 34 0
BBX 34 35 0 -1
BITMAP 
0000000000
0000000000
0000000000
00f0000000
0398000400
060c000c00
0606001800
0c06003000
0c06006000
180600c000
1806018000
180c030000
180c060000
18180c0000
0c18180000
0670300000
03c0600000
0000c0f000
0001839800
0003060c00
0006060600
000c0c0600
00180c0600
0030180600
0060180600
00c0180c00
0180180c00
0300181800
06000c1800
0400067000
000003c000
0000000000
0000000000
0000000000
0000000000
ENDCHAR
STARTCHAR a3df
ENCODING 41951 
SWIDTH 230 0
DWIDTH 34 0
BBX 34 35 0 -1
BITMAP 
0000000000
0000000000
0000000000
0000000000
0000000000
0000000000
0000000000
0000000000
0000000000
0000000000
0000000000
0000000000
0000000000
0000000000
0000000000
0000000000
0000000000
0000000000
0000000000
0000000000
0000000000
0000000000
0000000000
0000000000
0000000000
0000000000
0000000000
0000000000
0000000000
0000000000
0000000000
7fffffff10
7fffffff10
0000000000
0000000000
ENDCHAR
STARTCHAR a3be
ENCODING 41918 
SWIDTH 230 0
DWIDTH 34 0
BBX 34 35 0 -1
BITMAP 
0000000000
0000000000
0000000000
1c00000000
0700000000
01c0000000
0070000000
001c000000
0007000000
0001c00000
0000700000
00001c0000
0000070000
000001c000
0000007000
0000001c00
0000000f00
0000000f00
0000001c00
0000007000
000001c000
0000070000
00001c0000
0000700000
0001c00000
0007000000
001c000000
0070000000
01c0000000
0600000000
1c00000000
0000000000
0000000000
0000000000
0000000000
ENDCHAR
STARTCHAR a3bf
ENCODING 41919 
SWIDTH 230 0
DWIDTH 34 0
BBX 34 35 0 -1
BITMAP 
0000000000
0000000000
0007c00000
001c700000
00301c0000
00600e0000
00f00e0000
00f0070000
00f0070000
0060070000
00000e0000
00000e0000
00001c0000
00001c0000
0000380000
0000700000
0000600000
0000c00000
0000c00000
0001800000
0001800000
0001800000
0001000000
0001000000
0001000000
0000000000
0000000000
0000000000
0003800000
0007c00000
0007c00000
0003800000
0000000000
0000000000
0000000000
ENDCHAR
STARTCHAR a3e0
ENCODING 41952 
SWIDTH 230 0
DWIDTH 34 0
BBX 34 35 0 -1
BITMAP 
0000000000
0006000000
0007000000
0007800000
0001c00000
0000e00000
0000700000
0000180000
0000080000
0000000000
0000000000
0000000000
0000000000
0000000000
0000000000
0000000000
0000000000
0000000000
0000000000
0000000000
0000000000
0000000000
0000000000
0000000000
0000000000
0000000000
0000000000
0000000000
0000000000
0000000000
0000000000
0000000000
0000000000
0000000000
0000000000
ENDCHAR
STARTCHAR a3ba
ENCODING 41914 
SWIDTH 230 0
DWIDTH 34 0
BBX 34 35 0 -1
BITMAP 
0000000000
0000000000
0000000000
0000000000
0000000000
0000000000
0000000000
0001c00000
0003e00000
0003e00000
0003e00000
0001c00000
0000000000
0000000000
0000000000
0000000000
0000000000
0000000000
0000000000
0001c00000
0003e00000
0003e00000
0003e00000
0001c00000
0000000000
0000000000
0000000000
0000000000
0000000000
0000000000
0000000000
0000000000
0000000000
0000000000
0000000000
ENDCHAR
STARTCHAR a3a3
ENCODING 41891 
SWIDTH 230 0
DWIDTH 34 0
BBX 34 35 0 -1
BITMAP 
0000000000
0000000000
00180c0000
00180c0000
00180c0000
00180c0000
00180c0000
00180c0000
00180c0000
00180c0000
00180ff000
001ffc0000
03f80c0000
00180c0000
00180c0000
00180c0000
00180c0000
00180c0000
00180c0000
00180c0000
00180fe000
001ffc0000
07f80c0000
00180c0000
00180c0000
00180c0000
00180c0000
00180c0000
00180c0000
00180c0000
00180c0000
00180c0000
0000000000
0000000000
0000000000
ENDCHAR
STARTCHAR a3c0
ENCODING 41920 
SWIDTH 230 0
DWIDTH 34 0
BBX 34 35 0 -1
BITMAP 
0000000000
0000000000
0000000000
0000000000
0007fc0000
001c070000
007001c000
01c0006000
0300003000
0300031800
0601f31800
06071b1800
060c0f1800
0c0c071800
0c18071800
0c18061800
0c30061800
0c30061800
0c300c1800
0c301c3000
0c387c7000
061fccc000
060f078800
0600000800
0300001800
0300003000
0180006000
006001c000
003fff0000
0000000000
0000000000
0000000000
0000000000
0000000000
0000000000
ENDCHAR
STARTCHAR a3a7
ENCODING 41895 
SWIDTH 230 0
DWIDTH 34 0
BBX 34 35 0 -1
BITMAP 
0000000000
0000000000
0003e00000
0003e00000
0001c00000
0001c00000
0001c00000
0000800000
0000800000
0000000000
0000000000
0000000000
0000000000
0000000000
0000000000
0000000000
0000000000
0000000000
0000000000
0000000000
0000000000
0000000000
0000000000
0000000000
0000000000
0000000000
0000000000
0000000000
0000000000
0000000000
0000000000
0000000000
0000000000
0000000000
0000000000
ENDCHAR
STARTCHAR a3bd
ENCODING 41917 
SWIDTH 230 0
DWIDTH 34 0
BBX 34 35 0 -1
BITMAP 
0000000000
0000000000
0000000000
0000000000
0000000000
0000000000
0000000000
0000000000
0000000000
0000000000
0000000000
0000000000
07fffff800
07fffff800
0000000000
0000000000
0000000000
0000000000
0000000000
07fffff800
07fffff800
0000000000
0000000000
0000000000
0000000000
0000000000
0000000000
0000000000
0000000000
0000000000
0000000000
0000000000
0000000000
0000000000
0000000000
ENDCHAR
STARTCHAR acfc
ENCODING 44284 
SWIDTH 230 0
DWIDTH 34 0
BBX 34 35 0 -1
BITMAP 
0000000000
0000000000
0007380000
0007380000
0007380000
0007380000
0007380000
0002100000
0002100000
0000000000
0000000000
0000000000
0000000000
0000000000
0000000000
0000000000
0000000000
0000000000
0000000000
0000000000
0000000000
0000000000
0000000000
0000000000
0000000000
0000000000
0000000000
0000000000
0000000000
0000000000
0000000000
0000000000
0000000000
0000000000
0000000000
ENDCHAR
STARTCHAR a3e1
ENCODING 41953 
SWIDTH 230 0
DWIDTH 34 0
BBX 34 35 0 -1
BITMAP 
0000000000
0000000000
0000000000
0000000000
0000000000
0000000000
0000000000
0000000000
0000000000
0000000000
0007e00000
001c780000
003c180000
003c0c0000
00180c0000
0000fc0000
00038c0000
000e0c0000
00180c0000
00180c0000
00300c0000
00300c0000
00300c4000
00301c4000
00383cc000
001cef8000
0007870000
0000000000
0000000000
0000000000
0000000000
0000000000
0000000000
0000000000
0000000000
ENDCHAR
STARTCHAR a3e2
ENCODING 41954 
SWIDTH 230 0
DWIDTH 34 0
BBX 34 35 0 -1
BITMAP 
0000000000
0000000000
0000000000
0000000000
00f0000000
0030000000
0030000000
0030000000
0030000000
0030000000
0031e00000
0037380000
003c0c0000
0038060000
0030060000
0030030000
0030030000
0030030000
0030030000
0030030000
0030030000
0030030000
0030060000
0038060000
003c0c0000
0037380000
0021e00000
0000000000
0000000000
0000000000
0000000000
0000000000
0000000000
0000000000
0000000000
ENDCHAR
STARTCHAR a3e3
ENCODING 41955 
SWIDTH 230 0
DWIDTH 34 0
BBX 34 35 0 -1
BITMAP 
0000000000
0000000000
0000000000
0000000000
0000000000
0000000000
0000000000
0000000000
0000000000
0000000000
0001f00000
00071c0000
000c060000
00180f0000
00180f0000
00300f0000
0030060000
0030000000
0030000000
0030000000
0030010000
0030010000
0018020000
0018060000
000c060000
00071c0000
0001f00000
0000000000
0000000000
0000000000
0000000000
0000000000
0000000000
0000000000
0000000000
ENDCHAR
STARTCHAR a3e4
ENCODING 41956 
SWIDTH 230 0
DWIDTH 34 0
BBX 34 35 0 -1
BITMAP 
0000000000
0000000000
0000000000
0000000000
00000f0000
0000030000
0000030000
0000030000
0000030000
0000030000
0001e30000
00073b0000
000c0f0000
0018070000
0018030000
0030030000
0030030000
0030030000
0030030000
0030030000
0030030000
0030030000
0018030000
0018070000
000c0f0000
00073b0000
0001e3c000
0000000000
0000000000
0000000000
0000000000
0000000000
0000000000
0000000000
0000000000
ENDCHAR
STARTCHAR a3e5
ENCODING 41957 
SWIDTH 230 0
DWIDTH 34 0
BBX 34 35 0 -1
BITMAP 
0000000000
0000000000
0000000000
0000000000
0000000000
0000000000
0000000000
0000000000
0000000000
0000000000
0001e00000
0007380000
000c0c0000
0018060000
0018060000
0030030000
0030030000
0030030000
003fff0000
0030000000
0030010000
0030010000
0018020000
0018060000
000c0c0000
0007180000
0001f00000
0000000000
0000000000
0000000000
0000000000
0000000000
0000000000
0000000000
0000000000
ENDCHAR
STARTCHAR a3e6
ENCODING 41958 
SWIDTH 230 0
DWIDTH 34 0
BBX 34 35 0 -1
BITMAP 
0000000000
0000000000
0000000000
0000000000
0000780000
0000ce0000
00019e0000
00018c0000
0003000000
0003000000
001ff00000
0003000000
0003000000
0003000000
0003000000
0003000000
0003000000
0003000000
0003000000
0003000000
0003000000
0003000000
0003000000
0003000000
0003000000
0003000000
001fe00000
0000000000
0000000000
0000000000
0000000000
0000000000
0000000000
0000000000
0000000000
ENDCHAR
STARTCHAR a3e7
ENCODING 41959 
SWIDTH 230 0
DWIDTH 34 0
BBX 34 35 0 -1
BITMAP 
0000000000
0000000000
0000000000
0000000000
0000000000
0000000000
0000000000
0000000000
0000000000
0000038000
0003e7c000
000e3de000
001818c000
00300c0000
00300c0000
00300c0000
00300c0000
0018180000
000c300000
000fe00000
001c000000
000ff00000
0007fc0000
001c060000
0030030000
0060030000
0060030000
0060030000
0060060000
00381c0000
000ff00000
0000000000
0000000000
0000000000
0000000000
ENDCHAR
STARTCHAR a3e8
ENCODING 41960 
SWIDTH 230 0
DWIDTH 34 0
BBX 34 35 0 -1
BITMAP 
0000000000
0000000000
0000000000
0000000000
0078000000
0018000000
0018000000
0018000000
0018000000
0018000000
0018f80000
001b8c0000
001e060000
001c060000
0018030000
0018030000
0018030000
0018030000
0018030000
0018030000
0018030000
0018030000
0018030000
0018030000
0018030000
0018030000
007e0fc000
0000000000
0000000000
0000000000
0000000000
0000000000
0000000000
0000000000
0000000000
ENDCHAR
STARTCHAR a3e9
ENCODING 41961 
SWIDTH 230 0
DWIDTH 34 0
BBX 34 35 0 -1
BITMAP 
0000000000
0000000000
0000000000
0000000000
0000e00000
0001f00000
0001f00000
0000e00000
0000000000
0000000000
0003e00000
0000600000
0000600000
0000600000
0000600000
0000600000
0000600000
0000600000
0000600000
0000600000
0000600000
0000600000
0000600000
0000600000
0000600000
0000600000
0003fc0000
0000000000
0000000000
0000000000
0000000000
0000000000
0000000000
0000000000
0000000000
ENDCHAR
STARTCHAR a3ea
ENCODING 41962 
SWIDTH 230 0
DWIDTH 34 0
BBX 34 35 0 -1
BITMAP 
0000000000
0000000000
0000000000
0000000000
0000700000
0000f80000
0000f80000
0000700000
0000000000
0000000000
0001f00000
0000300000
0000300000
0000300000
0000300000
0000300000
0000300000
0000300000
0000300000
0000300000
0000300000
0000300000
0000300000
0000300000
0000300000
0000300000
0004300000
000e600000
000e600000
000cc00000
0007800000
0000000000
0000000000
0000000000
0000000000
ENDCHAR
STARTCHAR a3eb
ENCODING 41963 
SWIDTH 230 0
DWIDTH 34 0
BBX 34 35 0 -1
BITMAP 
0000000000
0000000000
0000000000
0000000000
00f0000000
0030000000
0030000000
0030000000
0030000000
0030000000
00303f0000
0030080000
0030100000
0030200000
0030c00000
0031800000
0033800000
0034c00000
0038c00000
0030600000
0030300000
0030300000
0030180000
00300c0000
00300c0000
0030060000
00fc1fc000
0000000000
0000000000
0000000000
0000000000
0000000000
0000000000
0000000000
0000000000
ENDCHAR
STARTCHAR a3ec
ENCODING 41964 
SWIDTH 230 0
DWIDTH 34 0
BBX 34 35 0 -1
BITMAP 
0000000000
0000000000
0000000000
0000000000
0003e00000
0000600000
0000600000
0000600000
0000600000
0000600000
0000600000
0000600000
0000600000
0000600000
0000600000
0000600000
0000600000
0000600000
0000600000
0000600000
0000600000
0000600000
0000600000
0000600000
0000600000
0000600000
0003fc0000
0000000000
0000000000
0000000000
0000000000
0000000000
0000000000
0000000000
0000000000
ENDCHAR
STARTCHAR a3ed
ENCODING 41965 
SWIDTH 230 0
DWIDTH 34 0
BBX 34 35 0 -1
BITMAP 
0000000000
0000000000
0000000000
0000000000
0000000000
0000000000
0000000000
0000000000
0000000000
0000000000
0f1c070000
03771dc000
03c1b06000
0381e06000
0300c03000
0300c03000
0300c03000
0300c03000
0300c03000
0300c03000
0300c03000
0300c03000
0300c03000
0300c03000
0300c03000
0300c03000
0fc3f0fc00
0000000000
0000000000
0000000000
0000000000
0000000000
0000000000
0000000000
0000000000
ENDCHAR
STARTCHAR a3ee
ENCODING 41966 
SWIDTH 230 0
DWIDTH 34 0
BBX 34 35 0 -1
BITMAP 
0000000000
0000000000
0000000000
0000000000
0000000000
0000000000
0000000000
0000000000
0000000000
0000000000
00f1f00000
0037180000
003c0c0000
00380c0000
0030060000
0030060000
0030060000
0030060000
0030060000
0030060000
0030060000
0030060000
0030060000
0030060000
0030060000
0030060000
00fc1f8000
0000000000
0000000000
0000000000
0000000000
0000000000
0000000000
0000000000
0000000000
ENDCHAR
STARTCHAR a3ef
ENCODING 41967 
SWIDTH 230 0
DWIDTH 34 0
BBX 34 35 0 -1
BITMAP 
0000000000
0000000000
0000000000
0000000000
0000000000
0000000000
0000000000
0000000000
0000000000
0000000000
0001e00000
0007380000
000c0c0000
0018060000
0018060000
0030030000
0030030000
0030030000
0030030000
0030030000
0030030000
0030030000
0018060000
0018060000
000c0c0000
0007380000
0001e00000
0000000000
0000000000
0000000000
0000000000
0000000000
0000000000
0000000000
0000000000
ENDCHAR
STARTCHAR a3f0
ENCODING 41968 
SWIDTH 230 0
DWIDTH 34 0
BBX 34 35 0 -1
BITMAP 
0000000000
0000000000
0000000000
0000000000
0000000000
0000000000
0000000000
0000000000
0000000000
0000000000
00f1f00000
00371c0000
003c060000
0038060000
0030030000
0030030000
0030030000
0030030000
0030030000
0030030000
0030030000
0030030000
0030030000
0038060000
003c060000
00371c0000
0031f00000
0030000000
0030000000
0030000000
0030000000
00fc000000
0000000000
0000000000
0000000000
ENDCHAR
STARTCHAR a3f1
ENCODING 41969 
SWIDTH 230 0
DWIDTH 34 0
BBX 34 35 0 -1
BITMAP 
0000000000
0000000000
0000000000
0000000000
0000000000
0000000000
0000000000
0000000000
0000000000
0000000000
0003e10000
000e3b0000
00180f0000
0018070000
0030030000
0030030000
0030030000
0030030000
0030030000
0030030000
0030030000
0030030000
0030030000
0018070000
00180f0000
000e3b0000
0003e30000
0000030000
0000030000
0000030000
0000030000
00000fc000
0000000000
0000000000
0000000000
ENDCHAR
STARTCHAR a3f2
ENCODING 41970 
SWIDTH 230 0
DWIDTH 34 0
BBX 34 35 0 -1
BITMAP 
0000000000
0000000000
0000000000
0000000000
0000000000
0000000000
0000000000
0000000000
0000000000
0000000000
001e380000
00066e0000
0006ce0000
00068e0000
0007040000
0006000000
0006000000
0006000000
0006000000
0006000000
0006000000
0006000000
0006000000
0006000000
0006000000
0006000000
001fc00000
0000000000
0000000000
0000000000
0000000000
0000000000
0000000000
0000000000
0000000000
ENDCHAR
STARTCHAR a1ad
ENCODING 41389 
SWIDTH 230 0
DWIDTH 34 0
BBX 34 35 0 -1
BITMAP 
0000000000
0000000000
0000000000
0000000000
0000000000
0000000000
0000000000
0000000000
0000000000
0000000000
0000000000
0000000000
0000000000
00fc000000
03ff000600
0703c00c00
0c00f03800
18003ff000
00000fc000
0000000000
0000000000
0000000000
0000000000
0000000000
0000000000
0000000000
0000000000
0000000000
0000000000
0000000000
0000000000
0000000000
0000000000
0000000000
0000000000
ENDCHAR
STARTCHAR a3f3
ENCODING 41971 
SWIDTH 230 0
DWIDTH 34 0
BBX 34 35 0 -1
BITMAP 
0000000000
0000000000
0000000000
0000000000
0000000000
0000000000
0000000000
0000000000
0000000000
0000000000
0003f00000
000e1a0000
00180e0000
00180e0000
0018020000
0018020000
000c000000
0007000000
0001e00000
00003c0000
0020070000
0030030000
0030030000
0038030000
003c030000
00360e0000
0023f80000
0000000000
0000000000
0000000000
0000000000
0000000000
0000000000
0000000000
0000000000
ENDCHAR
STARTCHAR a3f4
ENCODING 41972 
SWIDTH 230 0
DWIDTH 34 0
BBX 34 35 0 -1
BITMAP 
0000000000
0000000000
0000000000
0000000000
0000000000
0002000000
0002000000
0006000000
0006000000
0006000000
001ff00000
0006000000
0006000000
0006000000
0006000000
0006000000
0006000000
0006000000
0006000000
0006000000
0006000000
0006080000
0006080000
0006180000
0003180000
0001f00000
0000e00000
0000000000
0000000000
0000000000
0000000000
0000000000
0000000000
0000000000
0000000000
ENDCHAR
STARTCHAR a3f5
ENCODING 41973 
SWIDTH 230 0
DWIDTH 34 0
BBX 34 35 0 -1
BITMAP 
0000000000
0000000000
0000000000
0000000000
0000000000
0000000000
0000000000
0000000000
0000000000
0000000000
00f01e0000
0030060000
0030060000
0030060000
0030060000
0030060000
0030060000
0030060000
0030060000
0030060000
0030060000
0030060000
0030060000
00180e0000
00181e0000
000e760000
0003c78000
0000000000
0000000000
0000000000
0000000000
0000000000
0000000000
0000000000
0000000000
ENDCHAR
STARTCHAR a3f6
ENCODING 41974 
SWIDTH 230 0
DWIDTH 34 0
BBX 34 35 0 -1
BITMAP 
0000000000
0000000000
0000000000
0000000000
0000000000
0000000000
0000000000
0000000000
0000000000
0000000000
03fc0fe000
0060010000
0060010000
0030030000
0030020000
0018060000
0018040000
00180c0000
000c080000
000c080000
0006180000
0006100000
0006300000
0003200000
0003600000
0001c00000
0001c00000
0000800000
0000000000
0000000000
0000000000
0000000000
0000000000
0000000000
0000000000
ENDCHAR
STARTCHAR a3f7
ENCODING 41975 
SWIDTH 230 0
DWIDTH 34 0
BBX 34 35 0 -1
BITMAP 
0000000000
0000000000
0000000000
0000000000
0000000000
0000000000
0000000000
0000000000
0000000000
0000000000
1fc3f8fc00
0600c01000
0600c01000
0301c03000
0301602000
0301606000
0183604000
0182304000
018230c000
00c2308000
00c6318000
00c4190000
0064190000
006c1b0000
00380e0000
00380e0000
0010040000
0000000000
0000000000
0000000000
0000000000
0000000000
0000000000
0000000000
0000000000
ENDCHAR
STARTCHAR a3f8
ENCODING 41976 
SWIDTH 230 0
DWIDTH 34 0
BBX 34 35 0 -1
BITMAP 
0000000000
0000000000
0000000000
0000000000
0000000000
0000000000
0000000000
0000000000
0000000000
0000000000
01fe07f000
0030008000
0018010000
000c020000
0006040000
0006080000
0003100000
0001a00000
0000c00000
0000e00000
0001300000
0002180000
00040c0000
0008060000
0010030000
0020018000
01fc0ff000
0000000000
0000000000
0000000000
0000000000
0000000000
0000000000
0000000000
0000000000
ENDCHAR
STARTCHAR a3f9
ENCODING 41977 
SWIDTH 230 0
DWIDTH 34 0
BBX 34 35 0 -1
BITMAP 
0000000000
0000000000
0000000000
0000000000
0000000000
0000000000
0000000000
0000000000
0000000000
0000000000
01fe0fe000
0030010000
0030010000
0030030000
0018020000
0018060000
000c040000
000c0c0000
000c080000
0006180000
0006100000
0003300000
0003200000
0003e00000
0001c00000
0060c00000
00f0800000
00f1800000
00e1000000
0032000000
001c000000
0000000000
0000000000
0000000000
0000000000
ENDCHAR
STARTCHAR a3fa
ENCODING 41978 
SWIDTH 230 0
DWIDTH 34 0
BBX 34 35 0 -1
BITMAP 
0000000000
0000000000
0000000000
0000000000
0000000000
0000000000
0000000000
0000000000
0000000000
0000000000
001fff0000
001c070000
0018060000
00100c0000
0010180000
0000300000
0000300000
0000600000
0000c00000
0001800000
0003008000
0006008000
0006018000
000c018000
0018038000
0038078000
003fff8000
0000000000
0000000000
0000000000
0000000000
0000000000
0000000000
0000000000
0000000000
ENDCHAR
STARTCHAR a3fb
ENCODING 41979 
SWIDTH 230 0
DWIDTH 34 0
BBX 34 35 0 -1
BITMAP 
0000000000
0000000000
0000000000
0000700000
0000c00000
0001800000
0003000000
0003000000
0003000000
0003000000
0003000000
0001800000
0001800000
0001800000
0001800000
0003000000
000e000000
000e000000
0003000000
0001800000
0001800000
0001800000
0001800000
0003000000
0003000000
0003000000
0003000000
0003000000
0001800000
0000c00000
0000700000
0000000000
0000000000
0000000000
0000000000
ENDCHAR
STARTCHAR a3c1
ENCODING 41921 
SWIDTH 230 0
DWIDTH 34 0
BBX 34 35 0 -1
BITMAP 
0000000000
0000000000
0000000000
0000000000
0000400000
0000e00000
0001e00000
0001700000
0001700000
0003380000
0002380000
00061c0000
00041c0000
00041c0000
000c0e0000
00080e0000
0018070000
0018070000
0010070000
0030038000
0020038000
007fffc000
004001c000
004001c000
00c000e000
008000e000
0180007000
0100007000
0100007000
0fe003fe00
0000000000
0000000000
0000000000
0000000000
0000000000
ENDCHAR
STARTCHAR a3c2
ENCODING 41922 
SWIDTH 230 0
DWIDTH 34 0
BBX 34 35 0 -1
BITMAP 
0000000000
0000000000
0000000000
0000000000
0000000000
07fff80000
00e00e0000
00e0038000
00e0038000
00e001c000
00e001c000
00e001c000
00e001c000
00e0038000
00e0038000
00e00e0000
00fff80000
00e01e0000
00e0038000
00e001c000
00e001c000
00e000e000
00e000e000
00e000e000
00e000e000
00e001c000
00e001c000
00e0038000
00e00e0000
07fff80000
0000000000
0000000000
0000000000
0000000000
0000000000
ENDCHAR
STARTCHAR a3c3
ENCODING 41923 
SWIDTH 230 0
DWIDTH 34 0
BBX 34 35 0 -1
BITMAP 
0000000000
0000000000
0000000000
0000000000
0001f02000
00071f6000
001c03e000
003801e000
007000e000
00e000e000
00e0006000
01c0006000
01c0002000
01c0002000
0380000000
0380000000
0380000000
0380000000
0380000000
0380000000
0380000000
01c0001000
01c0001000
01c0003000
00e0002000
00e0006000
0070004000
003800c000
001c038000
00070e0000
0001f80000
0000000000
0000000000
0000000000
0000000000
ENDCHAR
STARTCHAR a3c4
ENCODING 41924 
SWIDTH 230 0
DWIDTH 34 0
BBX 34 35 0 -1
BITMAP 
0000000000
0000000000
0000000000
0000000000
0000000000
07fff00000
00e01c0000
00e0070000
00e0038000
00e001c000
00e001c000
00e000e000
00e000e000
00e000e000
00e0007000
00e0007000
00e0007000
00e0007000
00e0007000
00e0007000
00e0007000
00e000e000
00e000e000
00e000e000
00e001c000
00e001c000
00e0038000
00e0070000
00e01c0000
07fff00000
0000000000
0000000000
0000000000
0000000000
0000000000
ENDCHAR
STARTCHAR a3c5
ENCODING 41925 
SWIDTH 230 0
DWIDTH 34 0
BBX 34 35 0 -1
BITMAP 
0000000000
0000000000
0000000000
0000000000
0000000000
07ffffc000
00e001c000
00e000e000
00e000e000
00e0006000
00e0006000
00e0002000
00e0002000
00e0040000
00e0040000
00e00c0000
00e01c0000
00fffc0000
00e01c0000
00e00c0000
00e0040000
00e0041000
00e0001000
00e0001000
00e0003000
00e0003000
00e0007000
00e0006000
00e001e000
07ffffe000
0000000000
0000000000
0000000000
0000000000
0000000000
ENDCHAR
STARTCHAR a3c6
ENCODING 41926 
SWIDTH 230 0
DWIDTH 34 0
BBX 34 35 0 -1
BITMAP 
0000000000
0000000000
0000000000
0000000000
0000000000
03ffffe000
007000e000
0070007000
0070007000
0070003000
0070003000
0070001000
0070001000
0070040000
0070040000
00700c0000
00701c0000
007ffc0000
00701c0000
00700c0000
0070040000
0070040000
0070000000
0070000000
0070000000
0070000000
0070000000
0070000000
0070000000
03ff000000
0000000000
0000000000
0000000000
0000000000
0000000000
ENDCHAR
STARTCHAR a3c7
ENCODING 41927 
SWIDTH 230 0
DWIDTH 34 0
BBX 34 35 0 -1
BITMAP 
0000000000
0000000000
0000000000
0000000000
0001f02000
00071f6000
001c03e000
003801e000
007000e000
00e000e000
00e0006000
01c0006000
01c0002000
01c0002000
0380000000
0380000000
0380000000
0380000000
0380000000
03800ff800
038000e000
01c000e000
01c000e000
01c000e000
00e000e000
00e000e000
007001e000
003802e000
001c06e000
00071c6000
0001f02000
0000000000
0000000000
0000000000
0000000000
ENDCHAR
STARTCHAR a3c8
ENCODING 41928 
SWIDTH 230 0
DWIDTH 34 0
BBX 34 35 0 -1
BITMAP 
0000000000
0000000000
0000000000
0000000000
0000000000
07fc0ff800
00e001c000
00e001c000
00e001c000
00e001c000
00e001c000
00e001c000
00e001c000
00e001c000
00e001c000
00e001c000
00e001c000
00ffffc000
00e001c000
00e001c000
00e001c000
00e001c000
00e001c000
00e001c000
00e001c000
00e001c000
00e001c000
00e001c000
00e001c000
07fc0ff800
0000000000
0000000000
0000000000
0000000000
0000000000
ENDCHAR
STARTCHAR a3c9
ENCODING 41929 
SWIDTH 230 0
DWIDTH 34 0
BBX 34 35 0 -1
BITMAP 
0000000000
0000000000
0000000000
0000000000
0000000000
001ffc0000
0001c00000
0001c00000
0001c00000
0001c00000
0001c00000
0001c00000
0001c00000
0001c00000
0001c00000
0001c00000
0001c00000
0001c00000
0001c00000
0001c00000
0001c00000
0001c00000
0001c00000
0001c00000
0001c00000
0001c00000
0001c00000
0001c00000
0001c00000
001ffc0000
0000000000
0000000000
0000000000
0000000000
0000000000
ENDCHAR
STARTCHAR a3fd
ENCODING 41981 
SWIDTH 230 0
DWIDTH 34 0
BBX 34 35 0 -1
BITMAP 
0000000000
0000000000
0000000000
0003800000
0000c00000
0000600000
0000300000
0000300000
0000300000
0000300000
0000300000
0000600000
0000600000
0000600000
0000600000
0000300000
00001c0000
00001c0000
0000300000
0000600000
0000600000
0000600000
0000600000
0000300000
0000300000
0000300000
0000300000
0000300000
0000600000
0000c00000
0003800000
0000000000
0000000000
0000000000
0000000000
ENDCHAR
STARTCHAR a3ca
ENCODING 41930 
SWIDTH 230 0
DWIDTH 34 0
BBX 34 35 0 -1
BITMAP 
0000000000
0000000000
0000000000
0000000000
0000000000
0003ff8000
0000380000
0000380000
0000380000
0000380000
0000380000
0000380000
0000380000
0000380000
0000380000
0000380000
0000380000
0000380000
0000380000
0000380000
0000380000
0018380000
003c380000
007c380000
007c380000
0078380000
0078380000
0030700000
0030700000
0018e00000
000f800000
0000000000
0000000000
0000000000
0000000000
ENDCHAR
STARTCHAR a3cb
ENCODING 41931 
SWIDTH 230 0
DWIDTH 34 0
BBX 34 35 0 -1
BITMAP 
0000000000
0000000000
0000000000
0000000000
0000000000
07fc07f800
00e000c000
00e0018000
00e0030000
00e0060000
00e00c0000
00e0180000
00e0300000
00e0600000
00e0c00000
00e1c00000
00e3c00000
00e6e00000
00ec700000
00f8700000
00f0380000
00e01c0000
00e01c0000
00e00e0000
00e0070000
00e0070000
00e0038000
00e001c000
00e001e000
07fc07f800
0000000000
0000000000
0000000000
0000000000
0000000000
ENDCHAR
STARTCHAR a3cc
ENCODING 41932 
SWIDTH 230 0
DWIDTH 34 0
BBX 34 35 0 -1
BITMAP 
0000000000
0000000000
0000000000
0000000000
0000000000
03fe000000
0070000000
0070000000
0070000000
0070000000
0070000000
0070000000
0070000000
0070000000
0070000000
0070000000
0070000000
0070000000
0070000000
0070000000
0070000000
0070000800
0070000800
0070000800
0070001800
0070001800
0070003800
0070003000
007001f000
03fffff000
0000000000
0000000000
0000000000
0000000000
0000000000
ENDCHAR
STARTCHAR a3cd
ENCODING 41933 
SWIDTH 230 0
DWIDTH 34 0
BBX 34 35 0 -1
BITMAP 
0000000000
0000000000
0000000000
0000000000
0000000000
0fc000fe00
03c000f800
03c000b800
02e001b800
02e0013800
02e0013800
0270033800
0270023800
0270063800
0238043800
0238043800
02380c3800
021c083800
021c083800
021c183800
020e103800
020e303800
020e203800
0207203800
0207603800
0207403800
0207c03800
0203803800
0203803800
0fc103fe00
0000000000
0000000000
0000000000
0000000000
0000000000
ENDCHAR
STARTCHAR a3ce
ENCODING 41934 
SWIDTH 230 0
DWIDTH 34 0
BBX 34 35 0 -1
BITMAP 
0000000000
0000000000
0000000000
0000000000
0000000000
07e003f800
00f0004000
00f0004000
00b8004000
00b8004000
009c004000
008e004000
008e004000
0087004000
0083804000
0083804000
0081c04000
0080e04000
0080e04000
0080704000
0080384000
0080384000
00801c4000
00800e4000
00800e4000
0080074000
008007c000
008003c000
008001c000
07f000c000
0000004000
0000000000
0000000000
0000000000
0000000000
ENDCHAR
STARTCHAR a3cf
ENCODING 41935 
SWIDTH 230 0
DWIDTH 34 0
BBX 34 35 0 -1
BITMAP 
0000000000
0000000000
0000000000
0000000000
0003f00000
000e1c0000
0038070000
0070038000
00e001c000
00e001c000
01c000e000
01c000e000
01c000e000
0380007000
0380007000
0380007000
0380007000
0380007000
0380007000
0380007000
0380007000
0380007000
01c000e000
01c000e000
01c000e000
00e001c000
00e001c000
0070038000
0038070000
000e1c0000
0003f00000
0000000000
0000000000
0000000000
0000000000
ENDCHAR
STARTCHAR a3d0
ENCODING 41936 
SWIDTH 230 0
DWIDTH 34 0
BBX 34 35 0 -1
BITMAP 
0000000000
0000000000
0000000000
0000000000
0000000000
07fff80000
00e00e0000
00e0038000
00e001c000
00e001c000
00e000e000
00e000e000
00e000e000
00e000e000
00e000e000
00e001c000
00e001c000
00e0038000
00e00e0000
00fff80000
00e0000000
00e0000000
00e0000000
00e0000000
00e0000000
00e0000000
00e0000000
00e0000000
00e0000000
07fc000000
0000000000
0000000000
0000000000
0000000000
0000000000
ENDCHAR
STARTCHAR a3d1
ENCODING 41937 
SWIDTH 230 0
DWIDTH 34 0
BBX 34 35 0 -1
BITMAP 
0000000000
0000000000
0000000000
0000000000
0003f00000
000e1c0000
0038070000
0070038000
00e001c000
00e001c000
01c000e000
01c000e000
01c000e000
0380007000
0380007000
0380007000
0380007000
0380007000
0380007000
0380007000
0380007000
0381c0e000
01c3e0e000
01c630e000
01c619c000
00ec19c000
00e80f8000
007c0f0400
001e0e0400
0007fb0c00
0000019800
000000f800
0000007000
0000000000
0000000000
ENDCHAR
STARTCHAR a3d2
ENCODING 41938 
SWIDTH 230 0
DWIDTH 34 0
BBX 34 35 0 -1
BITMAP 
0000000000
0000000000
0000000000
0000000000
0000000000
07fff00000
00e01e0000
00e0070000
00e0038000
00e0038000
00e001c000
00e001c000
00e001c000
00e0038000
00e0038000
00e0070000
00e01c0000
00fff80000
00e0380000
00e01c0000
00e01c0000
00e00e0000
00e00e0000
00e00e0000
00e00e0000
00e00e0800
00e0070800
00e0079800
00e003f000
07fc01e000
0000000000
0000000000
0000000000
0000000000
0000000000
ENDCHAR
STARTCHAR a3dc
ENCODING 41948 
SWIDTH 230 0
DWIDTH 34 0
BBX 34 35 0 -1
BITMAP 
0000000000
0000000000
0000000000
0000000000
0000000000
1f00003e00
0e00001c00
0e00001c00
0e00001c00
0e00001c00
0700003800
0700003800
0700003800
0700403800
0380c07000
0381207000
0381207000
0383307000
7fffffff10
01c618e000
01c618e000
01c618e000
01ec0ce000
00ec0cc000
00ec0cc000
00ec0cc000
00f80d8000
00f8078000
0070070000
0070070000
0020020000
0000000000
0000000000
0000000000
0000000000
ENDCHAR
STARTCHAR a3d3
ENCODING 41939 
SWIDTH 230 0
DWIDTH 34 0
BBX 34 35 0 -1
BITMAP 
0000000000
0000000000
0000000000
0000000000
0000000000
0007f10000
001c1f0000
0038070000
0070070000
0070030000
00e0010000
00e0010000
00e0000000
0070000000
0070000000
003c000000
000f800000
0003e00000
0000f80000
00001e0000
0000070000
0080038000
0080038000
00c001c000
00c001c000
00e001c000
00e0038000
00f0038000
00f8070000
00ce0e0000
0083f80000
0000000000
0000000000
0000000000
0000000000
ENDCHAR
STARTCHAR a3d4
ENCODING 41940 
SWIDTH 230 0
DWIDTH 34 0
BBX 34 35 0 -1
BITMAP 
0000000000
0000000000
0000000000
0000000000
0000000000
07fffff000
0701c07000
0e01c03800
0e01c03800
0c01c01800
0c01c01800
0801c00800
0801c00800
0001c00000
0001c00000
0001c00000
0001c00000
0001c00000
0001c00000
0001c00000
0001c00000
0001c00000
0001c00000
0001c00000
0001c00000
0001c00000
0001c00000
0001c00000
0001c00000
000ff80000
0000000000
0000000000
0000000000
0000000000
0000000000
ENDCHAR
STARTCHAR a3d5
ENCODING 41941 
SWIDTH 230 0
DWIDTH 34 0
BBX 34 35 0 -1
BITMAP 
0000000000
0000000000
0000000000
0000000000
0000000000
07fc03f800
00e0004000
00e0004000
00e0004000
00e0004000
00e0004000
00e0004000
00e0004000
00e0004000
00e0004000
00e0004000
00e0004000
00e0004000
00e0004000
00e0004000
00e0004000
00e0004000
00e0004000
00e0004000
00e0004000
00e000c000
0070008000
0070018000
0038030000
000e0e0000
0003f80000
0000000000
0000000000
0000000000
0000000000
ENDCHAR
STARTCHAR a3d6
ENCODING 41942 
SWIDTH 230 0
DWIDTH 34 0
BBX 34 35 0 -1
BITMAP 
0000000000
0000000000
0000000000
0000000000
0000000000
0ff803fc00
03c0002000
01c0002000
01c0006000
00e0004000
00e000c000
00e0008000
0070008000
0070018000
0038010000
0038030000
0038020000
001c060000
001c040000
001c040000
000e0c0000
000e080000
0007180000
0007100000
0007300000
0003a00000
0003a00000
0003e00000
0001c00000
0001c00000
0000800000
0000000000
0000000000
0000000000
0000000000
ENDCHAR
STARTCHAR a3d7
ENCODING 41943 
SWIDTH 230 0
DWIDTH 34 0
BBX 34 35 0 -1
BITMAP 
0000000000
0000000000
0000000000
0000000000
0000000000
3f83f83e00
0e00e00800
0e00e00800
0e01e00800
0e01e00800
0701701800
0701701000
0701701000
0703701000
0382383000
0382382000
0382382000
0386382000
01c41c6000
01c41c4000
01c41c4000
01c41c4000
00ec0ec000
00e80e8000
00e80e8000
00e80e8000
00f80f8000
0070070000
0070070000
0070070000
0020020000
0000000000
0000000000
0000000000
0000000000
ENDCHAR
STARTCHAR a3d8
ENCODING 41944 
SWIDTH 230 0
DWIDTH 34 0
BBX 34 35 0 -1
BITMAP 
0000000000
0000000000
0000000000
0000000000
0000000000
07fc03f800
00e0006000
007000c000
0070018000
0038030000
001c060000
001c060000
000e0c0000
0007180000
0007300000
0003e00000
0001c00000
0001c00000
0001e00000
0003700000
0006700000
000c380000
00181c0000
00301c0000
00300e0000
0060070000
00c0070000
0180038000
030001c000
0fe00ff800
0000000000
0000000000
0000000000
0000000000
0000000000
ENDCHAR
STARTCHAR a3d9
ENCODING 41945 
SWIDTH 230 0
DWIDTH 34 0
BBX 34 35 0 -1
BITMAP 
0000000000
0000000000
0000000000
0000000000
0000000000
0ff803fc00
01c0003000
00e0006000
00e000c000
0070018000
0038018000
0038030000
001c060000
000e0c0000
000e0c0000
0007180000
0003b00000
0003e00000
0001c00000
0001c00000
0001c00000
0001c00000
0001c00000
0001c00000
0001c00000
0001c00000
0001c00000
0001c00000
0001c00000
0007f80000
0000000000
0000000000
0000000000
0000000000
0000000000
ENDCHAR
STARTCHAR a3da
ENCODING 41946 
SWIDTH 230 0
DWIDTH 34 0
BBX 34 35 0 -1
BITMAP 
0000000000
0000000000
0000000000
0000000000
0000000000
00ffffc000
00f0038000
01c0070000
0180070000
01000e0000
01001c0000
00001c0000
0000380000
0000700000
0000700000
0000e00000
0001c00000
0001c00000
0003800000
0007000000
000e000000
001c000000
001c002000
0038002000
0070006000
0070006000
00e000e000
01c001c000
01c007c000
03ffffc000
0000000000
0000000000
0000000000
0000000000
0000000000
ENDCHAR
STARTCHAR a3b0
ENCODING 41904 
SWIDTH 230 0
DWIDTH 34 0
BBX 34 35 0 -1
BITMAP 
0000000000
0000000000
0000000000
0000000000
0001e00000
0007380000
000c0c0000
001c0e0000
0038070000
0038070000
0070038000
0070038000
0070038000
00e001c000
00e001c000
00e001c000
00e001c000
00e001c000
00e001c000
00e001c000
00e001c000
00e001c000
0070038000
0070038000
0070038000
0038070000
0038070000
001c0e0000
000c0c0000
0007380000
0001e00000
0000000000
0000000000
0000000000
0000000000
ENDCHAR
STARTCHAR a3b1
ENCODING 41905 
SWIDTH 230 0
DWIDTH 34 0
BBX 34 35 0 -1
BITMAP 
0000000000
0000000000
0000000000
0000000000
0000600000
0003e00000
000fe00000
003ce00000
0000e00000
0000e00000
0000e00000
0000e00000
0000e00000
0000e00000
0000e00000
0000e00000
0000e00000
0000e00000
0000e00000
0000e00000
0000e00000
0000e00000
0000e00000
0000e00000
0000e00000
0000e00000
0000e00000
0000e00000
0000e00000
0000e00000
001ffe0000
0000000000
0000000000
0000000000
0000000000
ENDCHAR
STARTCHAR a3b2
ENCODING 41906 
SWIDTH 230 0
DWIDTH 34 0
BBX 34 35 0 -1
BITMAP 
0000000000
0000000000
0000000000
0000000000
0007f00000
001c1c0000
00380e0000
0060070000
0060070000
00e0038000
00f0038000
00f0038000
00f0070000
0060070000
00000e0000
00001c0000
0000380000
0000700000
0001c00000
0003800000
0007000000
000c000000
0018004000
0030004000
003000c000
006000c000
004001c000
00ffff8000
00ffff8000
00ffff0000
0000000000
0000000000
0000000000
0000000000
0000000000
ENDCHAR
STARTCHAR a3b3
ENCODING 41907 
SWIDTH 230 0
DWIDTH 34 0
BBX 34 35 0 -1
BITMAP 
0000000000
0000000000
0000000000
0000000000
0003f00000
000e1c0000
00180e0000
0030070000
0078070000
0078038000
0078038000
0030038000
0000070000
0000070000
00000e0000
00001c0000
0003f00000
00001c0000
0000070000
0000038000
0000038000
000001c000
006001c000
00f001c000
00f001c000
00f001c000
0060038000
0060038000
0030070000
001c1c0000
0007f00000
0000000000
0000000000
0000000000
0000000000
ENDCHAR
STARTCHAR a3b4
ENCODING 41908 
SWIDTH 230 0
DWIDTH 34 0
BBX 34 35 0 -1
BITMAP 
0000000000
0000000000
0000000000
0000000000
0000180000
0000380000
0000780000
0000780000
0000f80000
0001b80000
0001380000
0003380000
0006380000
0004380000
000c380000
0008380000
0018380000
0030380000
0020380000
0060380000
0040380000
00c0380000
0180380000
01ffffc000
0000380000
0000380000
0000380000
0000380000
0000380000
0000380000
0003ff8000
0000000000
0000000000
0000000000
0000000000
ENDCHAR
STARTCHAR a3b5
ENCODING 41909 
SWIDTH 230 0
DWIDTH 34 0
BBX 34 35 0 -1
BITMAP 
0000000000
0000000000
0000000000
0000000000
0000000000
007fff8000
007fff0000
007ffe0000
0040000000
0040000000
0040000000
0040000000
0040000000
0043f00000
00461c0000
005c070000
0060070000
0040078000
0000038000
000001c000
000001c000
006001c000
00f001c000
00f001c000
00f001c000
00e0038000
00c0038000
0060070000
0030070000
001c1c0000
0007f00000
0000000000
0000000000
0000000000
0000000000
ENDCHAR
STARTCHAR a3b6
ENCODING 41910 
SWIDTH 230 0
DWIDTH 34 0
BBX 34 35 0 -1
BITMAP 
0000000000
0000000000
0000000000
0000000000
0001f80000
00070e0000
000e030000
001c038000
0038078000
0038078000
0070078000
0070030000
0070000000
00e0000000
00e1f80000
00e70e0000
00ec070000
00f0038000
00e0038000
00e001c000
00e001c000
00e001c000
00e001c000
007001c000
007001c000
007001c000
0038038000
0038038000
001c070000
000e0e0000
0003f80000
0000000000
0000000000
0000000000
0000000000
ENDCHAR
STARTCHAR a3b7
ENCODING 41911 
SWIDTH 230 0
DWIDTH 34 0
BBX 34 35 0 -1
BITMAP 
0000000000
0000000000
0000000000
0000000000
0000000000
007fffc000
007fffc000
007fff8000
00e0018000
00c0030000
00c0060000
0080060000
00800c0000
00001c0000
0000180000
0000380000
0000380000
0000700000
0000700000
0000e00000
0000e00000
0001c00000
0001c00000
0001c00000
0003800000
0003800000
0003800000
0003800000
0003800000
0003800000
0003800000
0000000000
0000000000
0000000000
0000000000
ENDCHAR
STARTCHAR a3b8
ENCODING 41912 
SWIDTH 230 0
DWIDTH 34 0
BBX 34 35 0 -1
BITMAP 
0000000000
0000000000
0000000000
0000000000
0003f00000
000e1c0000
001c0e0000
0038070000
0038070000
0070038000
0070038000
0070038000
0038070000
0038070000
001e0e0000
0007b80000
0003e00000
0003f00000
000e3c0000
00380f0000
0070038000
0070038000
00e001c000
00e001c000
00e001c000
00e001c000
0070038000
0070038000
0038070000
000e1c0000
0003f00000
0000000000
0000000000
0000000000
0000000000
ENDCHAR
STARTCHAR a3b9
ENCODING 41913 
SWIDTH 230 0
DWIDTH 34 0
BBX 34 35 0 -1
BITMAP 
0000000000
0000000000
0000000000
0000000000
0007f00000
001c1c0000
00380e0000
0070070000
0070070000
00e0038000
00e0038000
00e0038000
00e001c000
00e001c000
00e001c000
00e001c000
007001c000
007003c000
00380dc000
001c39c000
0007e1c000
000001c000
0000038000
0030038000
0078038000
0078070000
0078070000
00700e0000
00301c0000
001c380000
0007e00000
0000000000
0000000000
0000000000
0000000000
ENDCHAR
STARTCHAR a4d5
ENCODING 42197 
SWIDTH 230 0
DWIDTH 34 0
BBX 34 35 0 -1
BITMAP 
0000000000
0000000000
0000000000
0000000000
0000000000
0000000000
0000000000
0000000000
0000000000
0000000000
0000000000
03e03e0000
01e01e0000
00e00e0000
00e00e0000
00e00e0000
00e00e0000
00e00e0200
00e1ce0c00
00e78e7800
00fe0fe000
00f807c000
0060020000
0000000000
0000000000
0000000000
0000000000
0000000000
0000000000
0000000000
0000000000
0000000000
0000000000
0000000000
0000000000
ENDCHAR
STARTCHAR a4d6
ENCODING 42198 
SWIDTH 230 0
DWIDTH 34 0
BBX 34 35 0 -1
BITMAP 
0000000000
0000000000
0000000000
0000000000
0000000000
0000000000
0000000000
0000000000
0000000000
0000000000
0000000000
03c07fe000
01c03fc000
01c0380000
01c0380000
01c0380000
01c0380000
01c0b80000
01c1b80000
01cf380000
00fe386000
00f81ff000
00600fe000
0000000000
0000000000
0000000000
0000000000
0000000000
0000000000
0000000000
0000000000
0000000000
0000000000
0000000000
0000000000
ENDCHAR
STARTCHAR a4d7
ENCODING 42199 
SWIDTH 230 0
DWIDTH 34 0
BBX 34 35 0 -1
BITMAP 
0000000000
0000000000
0000000000
0000000000
0000000000
0000000000
0000000000
0000000000
0000000000
0000000000
0f800e0000
0780070000
0380070000
0380070000
03800f0000
03800d8000
03801cc000
038018e000
0383387000
038e707800
03f8e03c00
03f0c01800
01c1800800
0003000000
0000000000
0000000000
0000000000
0000000000
0000000000
0000000000
0000000000
0000000000
0000000000
0000000000
0000000000
ENDCHAR
STARTCHAR a4d8
ENCODING 42200 
SWIDTH 230 0
DWIDTH 34 0
BBX 34 35 0 -1
BITMAP 
0000000000
0000000000
0000000000
0000000000
0000000000
0000000000
0000000000
0000000000
0000000000
0000000000
0000000000
03c0020000
01c0030000
01c0070000
01c0078000
01c00d8000
01c00dc000
01c098c000
01c198e000
01cf306000
00fe307000
00f87ff800
00607ff800
0000000000
0000000000
0000000000
0000000000
0000000000
0000000000
0000000000
0000000000
0000000000
0000000000
0000000000
0000000000
ENDCHAR
STARTCHAR a4d9
ENCODING 42201 
SWIDTH 230 0
DWIDTH 34 0
BBX 34 35 0 -1
BITMAP 
0000000000
0000000000
0000000000
0000000000
0000000000
0000000000
0000000000
0000000000
0000000000
0000000000
0000100000
3ff7f8e000
3ff7f87000
1072387000
0060307000
0060307000
3ff030f800
3ff031dc00
1c00318e00
1c00338e00
1c1c370700
0cf8360700
0fe03c0700
0f80380200
0000000000
0000000000
0000000000
0000000000
0000000000
0000000000
0000000000
0000000000
0000000000
0000000000
0000000000
ENDCHAR
STARTCHAR a4da
ENCODING 42202 
SWIDTH 230 0
DWIDTH 34 0
BBX 34 35 0 -1
BITMAP 
0000000000
0000000000
0000000000
0000000000
0000000000
0000000000
0000000000
0000000000
0000000000
0000000000
0000000000
07ff7fe000
07ff3fe000
0206380000
0006380000
07fe380000
07fe380000
0380380000
0380380000
0383b80000
01ff381800
01fc1ffc00
00e00ff800
0000000000
0000000000
0000000000
0000000000
0000000000
0000000000
0000000000
0000000000
0000000000
0000000000
0000000000
0000000000
ENDCHAR
STARTCHAR a4db
ENCODING 42203 
SWIDTH 230 0
DWIDTH 34 0
BBX 34 35 0 -1
BITMAP 
0000000000
0000000000
0000000000
0000000000
0000000000
0000000000
0000000000
0000000000
0000000000
0000000000
3fe0387000
3fec1c3800
10ee183800
00e6183800
00c7f83800
3fe7f87c00
3fe618ee00
380618c700
181e19c700
183ff98310
19f7fb8310
1fc61b0310
1f040e0100
00000c0000
0000000000
0000000000
0000000000
0000000000
0000000000
0000000000
0000000000
0000000000
0000000000
0000000000
0000000000
ENDCHAR
STARTCHAR a4dc
ENCODING 42204 
SWIDTH 230 0
DWIDTH 34 0
BBX 34 35 0 -1
BITMAP 
0000000000
0000000000
0000000000
0000000000
0000000000
0000000000
0000000000
0000000000
0000000000
0000000000
0000020000
07fe070000
07fe0f8000
020e0d8000
000e1dc000
03fe18c000
07fe38e000
0380306000
0381e03000
0383603000
03fefff800
01f9fff800
00c0000000
0000000000
0000000000
0000000000
0000000000
0000000000
0000000000
0000000000
0000000000
0000000000
0000000000
0000000000
0000000000
ENDCHAR
STARTCHAR a4dd
ENCODING 42205 
SWIDTH 230 0
DWIDTH 34 0
BBX 34 35 0 -1
BITMAP 
0000000000
0000000000
0000000000
0000000000
0000000000
0000000000
0000000000
0000000000
0000000000
0000000000
0ffe7ffe00
0ffe7ffe00
040c018000
000c078000
000c1ff000
0ffc3c7800
07fc701c00
0380e00e00
0380e00e00
0383e00e00
038e701c00
03fc783c00
03f03ff800
01800fe000
0000000000
0000000000
0000000000
0000000000
0000000000
0000000000
0000000000
0000000000
0000000000
0000000000
0000000000
ENDCHAR
STARTCHAR a4de
ENCODING 42206 
SWIDTH 230 0
DWIDTH 34 0
BBX 34 35 0 -1
BITMAP 
0000000000
0000000000
0000000000
0000000000
0000000000
0000000000
0000000000
0000000000
0000000000
0000000000
0000006000
07ff00f000
03ff787000
03873c7000
03871ff000
03861ff000
0386187000
0386187000
0386187000
03ff1ff000
03ff1f6000
0300184000
0000000000
0000000000
0000000000
0000000000
0000000000
0000000000
0000000000
0000000000
0000000000
0000000000
0000000000
0000000000
0000000000
ENDCHAR
STARTCHAR a4df
ENCODING 42207 
SWIDTH 230 0
DWIDTH 34 0
BBX 34 35 0 -1
BITMAP 
0000000000
0000000000
0000000000
0000000000
0000000000
0000000000
0000000000
0000000000
0000000000
0000000000
0000000000
0000060000
07ff078000
03ff038000
0387038000
0387078000
038607c000
03860ee000
03861c7000
0386383800
03ff703c00
03ffe01e00
0300800c00
0000000000
0000000000
0000000000
0000000000
0000000000
0000000000
0000000000
0000000000
0000000000
0000000000
0000000000
0000000000
ENDCHAR
STARTCHAR a4e0
ENCODING 42208 
SWIDTH 230 0
DWIDTH 34 0
BBX 34 35 0 -1
BITMAP 
0000000000
0000000000
0000000000
0000000000
0000000000
0000000000
0000000000
0000000000
0000000000
0000000000
0000000000
0000020000
0006070000
07ff070000
03ff0f8000
03870d8000
03870dc000
038618c000
038618e000
0386306000
0386306000
03ff7ff000
03ff7ff800
0300000000
0000000000
0000000000
0000000000
0000000000
0000000000
0000000000
0000000000
0000000000
0000000000
0000000000
0000000000
ENDCHAR
STARTCHAR a4e1
ENCODING 42209 
SWIDTH 230 0
DWIDTH 34 0
BBX 34 35 0 -1
BITMAP 
0000000000
0000000000
0000000000
0000000000
0000000000
0000000000
0000000000
0000000000
01ffff8000
00ffff8000
0070070000
0070070000
0070070000
007fff8000
007fff8000
0030000000
0000000000
003fff0000
00ffffc000
01f003e000
01c000e000
01c000e000
01f803e000
00ffffc000
003fff0000
0000000000
0000000000
0000000000
0000000000
0000000000
0000000000
0000000000
0000000000
0000000000
0000000000
ENDCHAR
STARTCHAR a4e2
ENCODING 42210 
SWIDTH 230 0
DWIDTH 34 0
BBX 34 35 0 -1
BITMAP 
0000000000
0000000000
0000000000
0000000000
0000000000
0000000000
0000000000
0000000000
0000000000
0000000000
0000000000
000e33e000
07077ff000
03c73ef000
01df00e000
01ff00e000
01e700e000
01c700e000
01c700e000
01ff00e000
01ff00e000
01c600c000
018000c000
0000000000
0000000000
0000000000
0000000000
0000000000
0000000000
0000000000
0000000000
0000000000
0000000000
0000000000
0000000000
ENDCHAR
STARTCHAR a4e3
ENCODING 42211 
SWIDTH 230 0
DWIDTH 34 0
BBX 34 35 0 -1
BITMAP 
0000000000
0000000000
0000000000
0000000000
0000000000
0000000000
0000000000
0000000000
0000000000
0000000000
0000000000
000e63c000
030f7fc000
0787700000
039f700000
01ff700000
01c7700000
0187700000
0187700000
01ff700000
01ff70c000
01863fe000
01001fc000
0000000000
0000000000
0000000000
0000000000
0000000000
0000000000
0000000000
0000000000
0000000000
0000000000
0000000000
0000000000
ENDCHAR
STARTCHAR a4e4
ENCODING 42212 
SWIDTH 230 0
DWIDTH 34 0
BBX 34 35 0 -1
BITMAP 
0000000000
0000000000
0000000000
0000000000
0000000000
0000000000
0000000000
0000000000
0000000000
0000000000
0000000000
0070600e00
003873ff00
1c3873ff00
1c38710e00
0ff8f00e00
0ff8f00e00
0c39d80e00
0c398e0e00
0c3b870e00
0ffb038e00
0f96038c00
0c0c018c00
0818010000
0000000000
0000000000
0000000000
0000000000
0000000000
0000000000
0000000000
0000000000
0000000000
0000000000
0000000000
ENDCHAR
STARTCHAR a4e5
ENCODING 42213 
SWIDTH 230 0
DWIDTH 34 0
BBX 34 35 0 -1
BITMAP 
0000000000
0000000000
0000000000
0000000000
0000000000
0000000000
0000000000
0000000000
0000000000
0000000000
0000000000
00e0c00600
00f0e3ff00
3870e7ff00
3871c38000
1ff1c38000
1ff3c38000
1873638000
1877338000
18773b8000
1ff61f8000
1f761f8700
186c0dff10
101808ff00
0000000000
0000000000
0000000000
0000000000
0000000000
0000000000
0000000000
0000000000
0000000000
0000000000
0000000000
ENDCHAR
STARTCHAR a4e6
ENCODING 42214 
SWIDTH 230 0
DWIDTH 34 0
BBX 34 35 0 -1
BITMAP 
0000000000
0000000000
0000000000
0000000000
0000000000
0000000000
0000000000
0000000000
0000000000
0000000000
0000000000
000303e000
0007bfe000
03c399c000
01e381c000
00ff838000
00ff838000
00c387c000
00c38ee000
00c39c7000
00ff983800
00fb303800
00c2601800
0000c01000
0000000000
0000000000
0000000000
0000000000
0000000000
0000000000
0000000000
0000000000
0000000000
0000000000
0000000000
ENDCHAR
STARTCHAR a4e7
ENCODING 42215 
SWIDTH 230 0
DWIDTH 34 0
BBX 34 35 0 -1
BITMAP 
0000000000
0000000000
0000000000
0000000000
0000000000
0000000000
0000000000
0000000000
0000000000
0000000000
0000000000
000e73e000
07077fe000
03c3380000
01df380000
01ff380000
01c33fc000
01c33fc000
01c3380000
01c3380000
01ff386000
01ff3ff000
01c20fe000
0080000000
0000000000
0000000000
0000000000
0000000000
0000000000
0000000000
0000000000
0000000000
0000000000
0000000000
0000000000
ENDCHAR
STARTCHAR a4e8
ENCODING 42216 
SWIDTH 230 0
DWIDTH 34 0
BBX 34 35 0 -1
BITMAP 
0000000000
0000000000
0000000000
0000000000
0000000000
0000000000
0000000000
0000000000
0000038000
01c001c000
01e07fc000
00ffffc000
00fc01c000
00e001c000
00ffffc000
00ffffc000
00c0008000
0000000000
003fff0000
00ffffc000
01f003e000
01c000e000
01c000e000
01f803e000
00ffffc000
003fff0000
0000000000
0000000000
0000000000
0000000000
0000000000
0000000000
0000000000
0000000000
0000000000
ENDCHAR
STARTCHAR a4e9
ENCODING 42217 
SWIDTH 230 0
DWIDTH 34 0
BBX 34 35 0 -1
BITMAP 
0000000000
0000000000
0000000000
0000000000
0000000000
0000000000
0000000000
0000000000
0000000000
000200c000
01c770e000
03c3b06000
01ffbfe000
01e3b86000
01c3306000
01ff3fe000
01ff3fe000
0182304000
0000000000
007fffc000
00ffffe000
01f000f000
01e0007000
01f000f000
00ffffe000
007fffc000
0000000000
0000000000
0000000000
0000000000
0000000000
0000000000
0000000000
0000000000
0000000000
ENDCHAR
STARTCHAR a4ea
ENCODING 42218 
SWIDTH 230 0
DWIDTH 34 0
BBX 34 35 0 -1
BITMAP 
0000000000
0000000000
0000000000
0000000000
0000000000
0000000000
0000000000
0000000000
0000000000
0000000000
0000000000
001c006000
001e3ff000
000e1ff000
000e007000
001e007000
001f007000
003b807000
0071c07000
0060f07000
00c0787000
0180387000
0300186000
0000000000
0000000000
0000000000
0000000000
0000000000
0000000000
0000000000
0000000000
0000000000
0000000000
0000000000
0000000000
ENDCHAR
STARTCHAR a4eb
ENCODING 42219 
SWIDTH 230 0
DWIDTH 34 0
BBX 34 35 0 -1
BITMAP 
0000000000
0000000000
0000000000
0000000000
0000000000
0000000000
0000000000
0000000000
0000000000
0000000000
0000000000
0070780000
007c7c0000
003c1c0000
00381c0000
00781c0000
007c1c0000
00ee1c0000
00c71c1c00
01c39c7800
0381dfe000
0701dfc000
0600cf0000
0c00000000
0000000000
0000000000
0000000000
0000000000
0000000000
0000000000
0000000000
0000000000
0000000000
0000000000
0000000000
ENDCHAR
STARTCHAR a4ec
ENCODING 42220 
SWIDTH 230 0
DWIDTH 34 0
BBX 34 35 0 -1
BITMAP 
0000000000
0000000000
0000000000
0000000000
0000000000
0000000000
0000000000
0000000000
0000000000
0000000000
0000000000
0038003000
003c1ff800
001e0ff000
001c0e0000
003c0e0000
003e0e0000
00770e0000
00e38e0000
00c1ce0000
0181ee0000
0300ee7800
030067fc00
0600038000
0000000000
0000000000
0000000000
0000000000
0000000000
0000000000
0000000000
0000000000
0000000000
0000000000
0000000000
ENDCHAR
STARTCHAR a4ed
ENCODING 42221 
SWIDTH 230 0
DWIDTH 34 0
BBX 34 35 0 -1
BITMAP 
0000000000
0000000000
0000000000
0000000000
0000000000
0000000000
0000000000
0000000000
0000000000
0000000000
0000000000
0038007000
003e007800
001e3c3800
001c1e3800
003c0ff800
003e0ff800
00770e3800
00638e3800
00e1ce3800
01c1eff800
0380efb000
03006c2000
0600080000
0000000000
0000000000
0000000000
0000000000
0000000000
0000000000
0000000000
0000000000
0000000000
0000000000
0000000000
ENDCHAR
STARTCHAR a4ee
ENCODING 42222 
SWIDTH 230 0
DWIDTH 34 0
BBX 34 35 0 -1
BITMAP 
0000000000
0000000000
0000000000
0000000000
0000000000
0000000000
0000000000
0000000000
0000000000
0000000000
0000000000
006001f000
00787ff800
0038387000
007000e000
007801c000
00f801c000
00ec03e000
01ce077000
01870e3800
03839c1c00
0303b01c00
0601e00c00
0c01400800
0000000000
0000000000
0000000000
0000000000
0000000000
0000000000
0000000000
0000000000
0000000000
0000000000
0000000000
ENDCHAR
STARTCHAR a4ef
ENCODING 42223 
SWIDTH 230 0
DWIDTH 34 0
BBX 34 35 0 -1
BITMAP 
0000000000
0000000000
0000000000
0000000000
0000000000
0000000000
0000000000
0000000000
0000000000
0000000000
0000c00000
0000c00000
0001e00000
0003f00000
0007380000
000e1c0000
001c0e0000
0038070000
0070038000
00e001c000
01c000e000
0380007000
0700003800
0ffffffc00
1ffffffe00
0000000000
0000000000
0000000000
0000000000
0000000000
0000000000
0000000000
0000000000
0000000000
0000000000
ENDCHAR
STARTCHAR a4f0
ENCODING 42224 
SWIDTH 230 0
DWIDTH 34 0
BBX 34 35 0 -1
BITMAP 
0000000000
0000000000
0000000000
0000000000
0000000000
0000000000
0000000000
0000000000
0000000000
0038038000
00fe0fe000
01c71c7000
0183183000
0383b83800
0383b83800
0383b83800
0383b83800
0383b83800
0383b83800
0383b83800
0383b83800
0183183000
01c71c7000
00fe0fe000
0038038000
0000000000
0000000000
0000000000
0000000000
0000000000
0000000000
0000000000
0000000000
0000000000
0000000000
ENDCHAR
STARTCHAR a4f1
ENCODING 42225 
SWIDTH 230 0
DWIDTH 34 0
BBX 34 35 0 -1
BITMAP 
0000000000
0000000000
0000000000
0000000000
0000000000
0000000000
0000000000
0000000000
0000800000
0001c00000
0001e00000
000ff80000
003ffe0000
007c1f0000
0070078000
00f0038000
00e003c000
01e003c000
01e003c000
01e003c000
00f0038000
00f0078000
007c1f0000
003ffe0000
001ffc0000
0007e00000
0000000000
0000000000
0000000000
0000000000
0000000000
0000000000
0000000000
0000000000
0000000000
ENDCHAR
STARTCHAR a4f2
ENCODING 42226 
SWIDTH 230 0
DWIDTH 34 0
BBX 34 35 0 -1
BITMAP 
0000000000
0000000000
0000000000
0000000000
0000000000
0000000000
0000000000
0000000000
0000000000
0000000000
0020000000
0030000000
00f8038000
03fc01c000
078f01c000
0e0383c000
0c01c3e000
1c01c76000
1c01c73000
1c01ce3800
1e01dc1c00
0f03b80e00
07ff700e00
03fec00600
00f9800400
0000000000
0000000000
0000000000
0000000000
0000000000
0000000000
0000000000
0000000000
0000000000
0000000000
ENDCHAR
STARTCHAR a4f3
ENCODING 42227 
SWIDTH 230 0
DWIDTH 34 0
BBX 34 35 0 -1
BITMAP 
0000000000
0000000000
0000000000
0000000000
0000000000
0000000000
0000000000
0000000000
0000000000
0000000000
0020000000
0030010000
00f0038000
03fe038000
078f07c000
0e0386c000
1c018c6000
1c01cc6000
1c01d83000
0e03983000
0f07b01800
07ff301800
03fe7ffc00
00f87ffc00
0000000000
0000000000
0000000000
0000000000
0000000000
0000000000
0000000000
0000000000
0000000000
0000000000
0000000000
ENDCHAR
STARTCHAR a4f4
ENCODING 42228 
SWIDTH 230 0
DWIDTH 34 0
BBX 34 35 0 -1
BITMAP 
0000000000
0000000000
0000000000
0000000000
0000000000
0000000000
0000000000
0000000000
0000000000
0000004000
03ffffe000
01ffffe000
0010380000
001c300000
000e300000
01c67fe000
01ffffe000
00f0000000
0000000000
007fff8000
00ffffc000
01e001e000
03c000e000
03e001e000
01ffffc000
00ffff8000
0000000000
0000000000
0000000000
0000000000
0000000000
0000000000
0000000000
0000000000
0000000000
ENDCHAR
STARTCHAR a4f5
ENCODING 42229 
SWIDTH 230 0
DWIDTH 34 0
BBX 34 35 0 -1
BITMAP 
0000000000
0000000000
0000000000
0000000000
0000000000
0000000000
0000000000
0000000000
0000000000
0000000000
0000000000
00f001e000
00f001e000
007f00fc00
3fffbffe00
1fe19fc600
00f801f000
01fe03fc00
0387070e00
0303060600
0303060600
0387070e00
01fe03fc00
00fc01f800
0000000000
0000000000
0000000000
0000000000
0000000000
0000000000
0000000000
0000000000
0000000000
0000000000
0000000000
ENDCHAR
STARTCHAR a4f6
ENCODING 42230 
SWIDTH 230 0
DWIDTH 34 0
BBX 34 35 0 -1
BITMAP 
0000000000
0000000000
0000000000
0000000000
0000000000
0000000000
0000000000
0000000000
0000000000
000001c000
01ffffe000
00ffffe000
00c0c00000
0003f00000
001ffe0000
007fff0000
00f8078000
00e003c000
00e003c000
00e003c000
00e003c000
00f0078000
007fff8000
003ffe0000
000ff80000
0000000000
0000000000
0000000000
0000000000
0000000000
0000000000
0000000000
0000000000
0000000000
0000000000
ENDCHAR
STARTCHAR a4f7
ENCODING 42231 
SWIDTH 230 0
DWIDTH 34 0
BBX 34 35 0 -1
BITMAP 
0000000000
0000000000
00000f0000
00000f8000
0000038000
0000038000
0000038000
0000038000
0000038000
0000038000
0000038000
0000038e00
000003ff00
000003fe00
0001c38000
0001e38000
03c1c38000
03c1c38000
00c1878000
00c1ff9f00
00cffbff00
1fffc3e000
1ffc038000
0f80038000
0000038000
0000038000
0000038000
0000038000
0000038000
0000038000
0000038000
0000018000
0000000000
0000000000
0000000000
ENDCHAR
STARTCHAR a4f8
ENCODING 42232 
SWIDTH 230 0
DWIDTH 34 0
BBX 34 35 0 -1
BITMAP 
0000000000
0000000000
0000000e00
0000000f00
0000000700
0000070700
0000078700
0000038700
0000038700
0000038700
0000038700
0000038700
000003ff00
000183ff00
0001e38700
0000e38700
01c0e38700
00e0c38700
00e0c7ff00
00e1ffff00
00e3f18700
00ff818700
1ffc018700
0fe0018700
0700018700
0000018700
0000018700
0000018700
0000010700
0000000700
0000000700
0000000600
0000000000
0000000000
0000000000
ENDCHAR
STARTCHAR a4f9
ENCODING 42233 
SWIDTH 230 0
DWIDTH 34 0
BBX 34 35 0 -1
BITMAP 
0000000000
0000000000
0000001c00
0000001e00
0000000f00
0000000700
0000000700
0000000700
0000000700
0000000700
0000000700
0000000700
0000000700
0000300700
00003c0700
00e01c0700
00f01c0700
0070380f00
007039ff00
00703fe700
0037fe0700
0fffe00700
0ffe000700
07e0000700
0000000700
0000000700
0000000700
0000000700
0000000600
0000000600
0000000600
0000000600
0000000000
0000000000
0000000000
ENDCHAR
STARTCHAR a4fa
ENCODING 42234 
SWIDTH 230 0
DWIDTH 34 0
BBX 34 35 0 -1
BITMAP 
0000000000
0000000000
0000001c00
0000000f00
0000000700
0000000700
0000000700
0000000700
0000000700
0000000700
0000000700
0000000700
0000000700
0000000700
0000000700
0000000700
0000000700
0000007f00
00001fff00
0007ffff00
0ffff9ff00
0ffe188700
0798180700
0018380700
00183b1f00
00183bff00
0018398700
0018380700
0018380700
0018380700
0000300600
0000000600
0000000000
0000000000
0000000000
ENDCHAR
STARTCHAR a4fb
ENCODING 42235 
SWIDTH 230 0
DWIDTH 34 0
BBX 34 35 0 -1
BITMAP 
0000000000
0000000000
0000001e00
0000001f00
0000040700
0000070700
0000038700
0000038700
0000038700
0000038700
0000038700
0000038700
0000038700
0000038700
0000038700
0000038700
0000038700
00000f8700
0000ff8700
001fff8700
1fffbf8700
1ff1b38700
07e1838700
0061838700
0061bf8700
0061bf8700
0061838700
0061838700
0061838700
0061838700
0021818600
0000000600
0000000000
0000000000
0000000000
ENDCHAR
STARTCHAR a4fc
ENCODING 42236 
SWIDTH 230 0
DWIDTH 34 0
BBX 34 35 0 -1
BITMAP 
0000000000
0000000000
0000001c00
0000001f00
0000000f00
0000000700
0000000700
0000000700
0000000700
0000000700
0000000700
0000000700
0000000700
0000000700
0000000700
0000000700
0000000700
0000007f00
00001ff700
0007fe0700
1ffff80700
1ffc180700
07d8180700
0018180700
0018180700
0018180700
0018180700
0018180700
001c180700
0018180700
0008180600
0000180600
0000000000
0000000000
0000000000
ENDCHAR
STARTCHAR a4fd
ENCODING 42237 
SWIDTH 230 0
DWIDTH 34 0
BBX 34 35 0 -1
BITMAP 
0000000000
0000000000
0000000000
0000000000
0000000000
0000000000
0000000000
0000000000
0000000000
0000000000
0000000000
0000000000
0000000000
0000e00000
0001f00000
0003f80000
0003f80000
0001f00000
0000e00000
0000000000
0000000000
0000000000
0000000000
0000000000
0000000000
0000000000
0000000000
0000000000
0000000000
0000000000
0000000000
0000000000
0000000000
0000000000
0000000000
ENDCHAR
STARTCHAR a4fe
ENCODING 42238 
SWIDTH 230 0
DWIDTH 34 0
BBX 34 35 0 -1
BITMAP 
0000000000
0000000000
0000007000
0000007000
0000007000
0000007000
0000007000
0000007000
0000007000
0000007000
0000007000
0000007000
0000007000
0000007000
0000007000
00c0007000
01e0007000
03f0007000
01e0007000
00c0007000
0000007000
0000007000
0000007000
0000007000
0000007000
0000007000
0000007000
0000007000
0000007000
0000007000
0000007000
0000007000
0000007000
0000000000
0000000000
ENDCHAR
STARTCHAR aaa1
ENCODING 43681 
SWIDTH 230 0
DWIDTH 34 0
BBX 34 35 0 -1
BITMAP 
0000000000
0000000000
0000000000
0000000000
0000000000
0000000000
0000000000
0000000000
0000000000
0000000000
0007000000
0003800000
0003800000
0003300000
0043f80000
007fc00000
003e000000
0006600000
0006300000
0007fe0000
001e238000
003620c000
006660c000
00c6c06000
0087806000
0187006000
010600c000
010f80c000
01f9018000
00e0070000
00001c0000
0000000000
0000000000
0000000000
0000000000
ENDCHAR
STARTCHAR aaa2
ENCODING 43682 
SWIDTH 230 0
DWIDTH 34 0
BBX 34 35 0 -1
BITMAP 
0000000000
0000000000
0000000000
0000000000
0007800000
0001c00000
0001c00000
00018c0000
0001fe0000
020ffe0000
03ff000000
01f3000000
0003300000
0006180000
0006180000
0006ff0000
000f99c000
003e306000
00e6303000
0186603000
0306601800
0606c01800
0607801800
0c07001800
0c03001800
0c07803000
0c0d803000
0619c06000
03f081c000
0180070000
00003c0000
0000000000
0000000000
0000000000
0000000000
ENDCHAR
STARTCHAR aaa3
ENCODING 43683 
SWIDTH 230 0
DWIDTH 34 0
BBX 34 35 0 -1
BITMAP 
0000000000
0000000000
0000000000
0000000000
0000000000
0000000000
0000000000
0000000000
0000000000
0000000000
0000000000
0000000000
0000000000
0380100000
01c00c0000
01c0060000
0180030000
0180018000
018101c000
018300c000
018200e000
00c6006000
00c4007000
00cc007000
00cc002000
006c000000
006c000000
0038000000
0018000000
0000000000
0000000000
0000000000
0000000000
0000000000
0000000000
ENDCHAR
STARTCHAR aaa4
ENCODING 43684 
SWIDTH 230 0
DWIDTH 34 0
BBX 34 35 0 -1
BITMAP 
0000000000
0000000000
0000000000
0000000000
0000000000
0c00000000
0600000000
0700000000
0700100000
07000c0000
0600060000
0600030000
0600018000
060000c000
060000e000
0602006000
0602007000
0606003000
0604003800
030c001800
0308001c00
0318001c00
01b0001800
01b0000000
00e0000000
00e0000000
0040000000
0000000000
0000000000
0000000000
0000000000
0000000000
0000000000
0000000000
0000000000
ENDCHAR
STARTCHAR aaa5
ENCODING 43685 
SWIDTH 230 0
DWIDTH 34 0
BBX 34 35 0 -1
BITMAP 
0000000000
0000000000
0000000000
0000000000
0000000000
0000000000
0000000000
0000000000
0000000000
0000000000
0006000000
0003c00000
0001f00000
0000780000
0000000000
0000000000
0000f00000
00239c0000
003f0c0000
001c060000
0000060000
0000060000
0000060000
00000c0000
00000c0000
0000180000
0000180000
0000300000
0000600000
0001c00000
0007000000
0000000000
0000000000
0000000000
0000000000
ENDCHAR
STARTCHAR aaa6
ENCODING 43686 
SWIDTH 230 0
DWIDTH 34 0
BBX 34 35 0 -1
BITMAP 
0000000000
0000000000
0000000000
0000000000
0004000000
0003fc0000
00003e0000
0000040000
0000000000
0000000000
0000000000
0000780000
0103fe0000
01ff830000
00fc018000
0060018000
000000c000
000000c000
000000c000
000000c000
000001c000
0000018000
0000018000
0000030000
0000030000
0000060000
00000c0000
0000180000
0000700000
0001c00000
0007000000
0000000000
0000000000
0000000000
0000000000
ENDCHAR
STARTCHAR aaa7
ENCODING 43687 
SWIDTH 230 0
DWIDTH 34 0
BBX 34 35 0 -1
BITMAP 
0000000000
0000000000
0000000000
0000000000
0000000000
0000000000
0000000000
0000000000
0000000000
0000000000
0002000000
0003800000
0001f00000
0000780000
0000000000
0000100000
0000780000
0023dc0000
003f180000
001c300000
0008600000
0000c00000
0001800000
0003400000
0007e00000
000c300000
0018300000
0070300000
00e0380000
01c01fe000
00800fc000
0000000000
0000000000
0000000000
0000000000
ENDCHAR
STARTCHAR aaa8
ENCODING 43688 
SWIDTH 230 0
DWIDTH 34 0
BBX 34 35 0 -1
BITMAP 
0000000000
0000000000
0000000000
0000000000
0004000000
0007c00000
0000fc0000
00003c0000
0000080000
0000000000
0000000000
0000000000
0080380000
00fffc0000
007f1c0000
0030300000
0000300000
0000600000
0000c00000
0001800000
0003c00000
0007e00000
000c300000
0018300000
0030180000
0060180000
00c0180000
0380180000
07001c0000
07000ff800
020007f000
0000000000
0000000000
0000000000
0000000000
ENDCHAR
STARTCHAR aaa9
ENCODING 43689 
SWIDTH 230 0
DWIDTH 34 0
BBX 34 35 0 -1
BITMAP 
0000000000
0000000000
0000000000
0000000000
0000000000
0000000000
0000000000
0000000000
0000000000
0000000000
000c000000
0007000000
0007000000
00060e0000
0006638000
0006e0c000
0047c06000
007f007000
003e002000
0006000000
00067e0000
0007c38000
000701c000
000e00c000
001e00c000
003600c000
0166018000
01c6018000
01e6030000
003e0c0000
0004380000
0000000000
0000000000
0000000000
0000000000
ENDCHAR
STARTCHAR aaaa
ENCODING 43690 
SWIDTH 230 0
DWIDTH 34 0
BBX 34 35 0 -1
BITMAP 
0000000000
0000000000
0000000000
0000000000
0018000000
003c000000
000e000000
000e038000
000c00e000
000c007000
000c603800
000df01c00
043ff01c00
07fe000800
03cc000000
010c000000
000c000000
000c3f0000
000ce1c000
000f806000
000e003000
003c003000
006c001800
00cc001800
0b8c001800
0f0c003000
0f0c003000
06cc006000
067c40c000
003c338000
00181e0000
0000000000
0000000000
0000000000
0000000000
ENDCHAR
STARTCHAR aaab
ENCODING 43691 
SWIDTH 230 0
DWIDTH 34 0
BBX 34 35 0 -1
BITMAP 
0000000000
0000000000
0000000000
0000000000
000e000000
001f000000
0007000000
0006070000
0006018000
000600c000
0006006000
0006e03000
083ff03800
0fff181800
07cc0c1c00
030c0c1c00
000c0c0800
00180c0000
00180c0000
00300c0000
00301c0000
0060180000
0060180000
00c0180000
00c0180000
0188300000
038c300000
0706300000
0203e00000
0001c00000
0000000000
0000000000
0000000000
0000000000
0000000000
ENDCHAR
STARTCHAR aaac
ENCODING 43692 
SWIDTH 230 0
DWIDTH 34 0
BBX 34 35 0 -1
BITMAP 
0000000000
0000000000
0000000000
000000e000
001c003800
003c071c00
000e01ce00
000e00e400
000c387000
000c0c2000
000c060000
000dc30000
107fe18000
1ffe31c000
0f9818c000
061818e000
003018e000
0030184000
0030180000
0060180000
0060380000
00c0300000
00c0300000
0180300000
0180700000
0310600000
0718600000
0e0c600000
0407c00000
0003800000
0000000000
0000000000
0000000000
0000000000
0000000000
ENDCHAR
STARTCHAR aaad
ENCODING 43693 
SWIDTH 230 0
DWIDTH 34 0
BBX 34 35 0 -1
BITMAP 
0000000000
0000000000
0000000000
0000000000
000c000000
001f080000
00071c0000
00063c0000
0003780000
010fe00000
01ff800000
00f1800000
0000c30000
0000ff8000
0103ff0000
01ffe00000
00fc300000
0000180000
00000c0000
0000060000
001fff8000
00700f8000
00c0010000
0180000000
0180000000
0180000000
0180000000
01c0000000
00f0000000
007ffe0000
001ffc0000
0000000000
0000000000
0000000000
0000000000
ENDCHAR
STARTCHAR aaae
ENCODING 43694 
SWIDTH 230 0
DWIDTH 34 0
BBX 34 35 0 -1
BITMAP 
0000000000
0000000000
0000000000
0000000000
0078007000
00fc171c00
001c79ce00
000cf8e400
0005f07000
043f802000
07fe000000
03c6000000
00030c0000
0003fe0000
0407fc0000
07ffc00000
03f8c00000
0000600000
0000300000
00001c0000
007ffe0000
01c01f0000
0300060000
0600000000
0600000000
0600000000
0600000000
0700000000
03c0000000
00fff80000
003ff00000
0000000000
0000000000
0000000000
0000000000
ENDCHAR
STARTCHAR aaaf
ENCODING 43695 
SWIDTH 230 0
DWIDTH 34 0
BBX 34 35 0 -1
BITMAP 
0000000000
0000000000
0000000000
0000000000
0000380000
00001c0000
00001c0000
0000380000
0000700000
0000600000
0000c00000
0001800000
0003000000
000e000000
0018000000
0030000000
0060000000
0060000000
0030000000
0018000000
000e000000
0007000000
0001800000
0000c00000
0000600000
0000700000
0000380000
0000180000
00001c0000
00001c0000
0000080000
0000000000
0000000000
0000000000
0000000000
ENDCHAR
STARTCHAR aab0
ENCODING 43696 
SWIDTH 230 0
DWIDTH 34 0
BBX 34 35 0 -1
BITMAP 
0000000000
0000000000
0000000000
0000000000
0000700000
0000380000
0000380000
0000700000
0000e00000
0001c38000
000198e000
00030e7000
0006073800
001c039000
0030010000
0060000000
00c0000000
00c0000000
0060000000
0030000000
001c000000
000e000000
0003000000
0001800000
0000c00000
0000e00000
0000700000
0000700000
0000380000
0000380000
0000100000
0000000000
0000000000
0000000000
0000000000
ENDCHAR
STARTCHAR aab1
ENCODING 43697 
SWIDTH 230 0
DWIDTH 34 0
BBX 34 35 0 -1
BITMAP 
0000000000
0000000000
0000000000
0000000000
0600060000
03000f0000
0380038000
0380038000
0300030000
0300030800
0300033c00
06080ffc00
060fffc000
0607f30000
0603030000
0c00030000
0c00030000
0c40030000
0c40030000
0c40030000
0cc0070000
0c80060000
0c80060000
0d80060000
0d00060000
07000c0000
07000c0000
0600180000
0200300000
0000600000
0001c00000
0000000000
0000000000
0000000000
0000000000
ENDCHAR
STARTCHAR aab2
ENCODING 43698 
SWIDTH 230 0
DWIDTH 34 0
BBX 34 35 0 -1
BITMAP 
0000000000
0000000000
0000000000
0000000000
0c00607000
0600f01c00
0700380e00
07003b8400
060030e000
0600307000
0600313800
0c00339000
0c83ff8000
0cfffe0000
0c30300000
1c00300000
1800300000
1880300000
1880300000
1880300000
1980700000
1900600000
1900600000
1b00600000
1a00c00000
0e00c00000
0e00c00000
0c01800000
0403000000
0006000000
001c000000
0000000000
0000000000
0000000000
0000000000
ENDCHAR
STARTCHAR aab3
ENCODING 43699 
SWIDTH 230 0
DWIDTH 34 0
BBX 34 35 0 -1
BITMAP 
0000000000
0000000000
0000000000
0000000000
0000000000
0000000000
0020000000
0038030000
001fff8000
0003ffc000
00001e0000
0000380000
0000e00000
0003800000
0000000000
0000000000
0000000000
0000000000
0040000000
00c0000000
0180000000
0180000000
0180000000
0180000000
01c0000000
00e0000000
007800e000
003ffff000
000ffff000
0000000000
0000000000
0000000000
0000000000
0000000000
0000000000
ENDCHAR
STARTCHAR aab4
ENCODING 43700 
SWIDTH 230 0
DWIDTH 34 0
BBX 34 35 0 -1
BITMAP 
0000000000
0000000000
0000000000
0000000000
0000007000
0000001c00
0040030e00
007009c400
003ffce000
0007fe7000
0000382000
0000700000
0000e00000
0007800000
0000000000
0000000000
0000000000
0000000000
0080000000
0180000000
0300000000
0300000000
0300000000
0300000000
0380000000
01c0000000
00f001c000
007fffe000
001fffe000
0000000000
0000000000
0000000000
0000000000
0000000000
0000000000
ENDCHAR
STARTCHAR aab5
ENCODING 43701 
SWIDTH 230 0
DWIDTH 34 0
BBX 34 35 0 -1
BITMAP 
0000000000
0000000000
0000000000
0000000000
0006000000
000f800000
000380c000
000181e000
0000c7e000
0000ef8000
0200fe0000
0387f80000
01ff980000
00780c0000
0000060000
0000060000
0000030000
0007f18000
001c1d8000
00300fc000
006003e000
0060004000
00c0000000
00c0000000
00c0000000
00c0000000
00c0000000
0070000000
003c000000
001fff0000
0007fe0000
0000000000
0000000000
0000000000
0000000000
ENDCHAR
STARTCHAR aab6
ENCODING 43702 
SWIDTH 230 0
DWIDTH 34 0
BBX 34 35 0 -1
BITMAP 
0000000000
0000000000
0000000000
0000000000
0038007000
00fc001c00
001c000e00
0006198400
00033ce000
00037c7000
0403f03800
071fc01000
03fce00000
00e0600000
0000300000
0000180000
00001c0000
003f8c0000
00e0ee0000
01807e0000
03001f0000
0300020000
0600000000
0600000000
0600000000
0600000000
0600000000
0380000000
01e0000000
007ff80000
001ff00000
0000000000
0000000000
0000000000
0000000000
ENDCHAR
STARTCHAR aab7
ENCODING 43703 
SWIDTH 230 0
DWIDTH 34 0
BBX 34 35 0 -1
BITMAP 
0000000000
0000000000
0000000000
0000000000
00c0000000
0070000000
0038000000
0038000000
0038000000
0030000000
0030000000
0030000000
0030000000
0030000000
0030000000
0030000000
0030000000
0030000000
0030000000
0030000800
0030000800
0030000800
0030001800
0030001000
0030003000
0030006000
003000e000
001801c000
001c078000
000fff0000
0003fc0000
0000000000
0000000000
0000000000
0000000000
ENDCHAR
STARTCHAR aab8
ENCODING 43704 
SWIDTH 230 0
DWIDTH 34 0
BBX 34 35 0 -1
BITMAP 
0000000000
0000000000
0000000000
0000000000
00c0000000
0070000000
0038000000
0038070000
003001c000
003000e000
0030707000
00301c2000
00300e0000
00300e0000
0030040000
0030000000
0030000000
0030000000
0030000000
0030000000
0030000800
0030000800
0030000800
0030001800
0030001000
0030007000
003000e000
001801c000
001c078000
000fff0000
0003fc0000
0000000000
0000000000
0000000000
0000000000
ENDCHAR
STARTCHAR aab9
ENCODING 43705 
SWIDTH 230 0
DWIDTH 34 0
BBX 34 35 0 -1
BITMAP 
0000000000
0000000000
0000000000
0000600000
0000f00000
0000380000
0000380000
0000300000
0000301c00
1001fffe00
183ffffe00
0fff300c00
07c0300000
0303f00000
0006700000
000c380000
0018180000
0018180000
0018180000
0018180000
000c380000
0006700000
0003b00000
0000300000
0000600000
0000600000
0000c00000
0000c00000
0001800000
0003000000
000e000000
0000000000
0000000000
0000000000
0000000000
ENDCHAR
STARTCHAR aaba
ENCODING 43706 
SWIDTH 230 0
DWIDTH 34 0
BBX 34 35 0 -1
BITMAP 
0000000000
0000000000
0000000000
0000007000
0000601c00
0000fb8e00
000038e400
0000304000
0000300c00
1003fffe00
183ffffe00
0ffe300c00
07c0300000
0303f00000
0006700000
000c380000
0018180000
0018180000
0018180000
0018180000
000c380000
0006700000
0003b00000
0000300000
0000600000
0000600000
0000c00000
0000c00000
0001800000
0003000000
000e000000
0000000000
0000000000
0000000000
0000000000
ENDCHAR
STARTCHAR aabb
ENCODING 43707 
SWIDTH 230 0
DWIDTH 34 0
BBX 34 35 0 -1
BITMAP 
0000000000
0000000000
0000000000
0000000000
0000030000
0000078000
006001c000
00f001c000
0038018000
0038018000
0030018000
0030018000
0030018c00
00303ffe00
103ffffe00
183fe30000
1ff0030000
0ff0030000
0430030000
0030830000
0030660000
00303e0000
00301c0000
0030080000
0038000000
0018000000
001c000000
000e007000
0007fff800
0001fff000
0000000000
0000000000
0000000000
0000000000
0000000000
ENDCHAR
STARTCHAR aabc
ENCODING 43708 
SWIDTH 230 0
DWIDTH 34 0
BBX 34 35 0 -1
BITMAP 
0000000000
0000000000
0000000000
0000007000
0000001c00
00001e0e00
00c0070400
01e0076000
0070063800
0070061c00
0060060800
0060060000
0060061800
0061fffc00
107ffff800
19ff0c0000
1fe00c0000
0f600c0000
04600c0000
00600c0000
00639c0000
0060f80000
0060380000
0060100000
0070000000
0030000000
0038000000
001c00e000
000ffff000
0003ffe000
0000000000
0000000000
0000000000
0000000000
0000000000
ENDCHAR
STARTCHAR aabd
ENCODING 43709 
SWIDTH 230 0
DWIDTH 34 0
BBX 34 35 0 -1
BITMAP 
0000000000
0000000000
0000000000
0000080000
00007c0000
0083fe0000
007f8f0000
003c1c0000
0018380000
0000700000
0000e00000
0003800000
0006001800
000c01fc00
00180ffc00
0030ff0000
0067fc0000
08fe600000
0ff8c00000
0fc1800000
0601800000
0003000000
0003000000
0003000000
0003000000
0003000000
0001800000
0001c00000
0000f80000
00003f8000
00000f8000
0000000000
0000000000
0000000000
0000000000
ENDCHAR
STARTCHAR aabe
ENCODING 43710 
SWIDTH 230 0
DWIDTH 34 0
BBX 34 35 0 -1
BITMAP 
0000000000
0000000000
0000000000
0000000000
0000f07000
020ff81c00
01fc7b0e00
00f0e1c400
0061c0e000
0003807000
0007002000
000e000000
001c006000
003007f000
00603fe000
00c1f80000
019fe00000
03fd800000
27e3000000
3f06000000
1c06000000
000c000000
000c000000
000c000000
000c000000
000c000000
000e000000
0007000000
0003e00000
0000fe0000
00003c0000
0000000000
0000000000
0000000000
0000000000
ENDCHAR
STARTCHAR aabf
ENCODING 43711 
SWIDTH 230 0
DWIDTH 34 0
BBX 34 35 0 -1
BITMAP 
0000000000
0000000000
0000000000
0000000000
001c000000
003e000000
000e000000
000c000000
000c700000
000df80000
001ff80000
08ff000000
0ffc201800
07183ffc00
00180ffc00
001801e000
0030038000
00300e0000
0030000000
0060000000
0060400000
00e0c00000
00c1800000
00c1800000
0181800000
0181800000
0381800000
0701c00000
0700f01800
02007ffc00
00001ffc00
0000000000
0000000000
0000000000
0000000000
ENDCHAR
STARTCHAR aac0
ENCODING 43712 
SWIDTH 230 0
DWIDTH 34 0
BBX 34 35 0 -1
BITMAP 
0000000000
0000000000
0000000000
000000e000
001c003800
003e0e1c00
000e038e00
000c01c400
000c60e000
000df04000
001ff00000
08ff800000
0ffc201800
07183ff800
00180ff800
001801e000
0030038000
00300e0000
0030000000
0060000000
0060400000
0060c00000
00c1800000
00c1800000
01c1800000
0381800000
0381800000
0701c00000
0700e00000
02007ff800
00001ff800
0000000000
0000000000
0000000000
0000000000
ENDCHAR
STARTCHAR aac1
ENCODING 43713 
SWIDTH 230 0
DWIDTH 34 0
BBX 34 35 0 -1
BITMAP 
0000000000
0000000000
0000000000
0000000000
001c000000
003e000000
000e000000
000c180000
000c3c0000
000dfc0000
041fe00000
07ff000000
07fc000000
0318000000
0018000000
0018000000
0030000000
00300f0000
003079c000
0031c06000
0067003000
006c001800
00f8001800
00f0001800
00e0003800
0040003000
0000007000
000000e000
000003c000
00000f0000
0001f80000
0000000000
0000000000
0000000000
0000000000
ENDCHAR
STARTCHAR aac2
ENCODING 43714 
SWIDTH 230 0
DWIDTH 34 0
BBX 34 35 0 -1
BITMAP 
0000000000
0000000000
0000000000
0000000000
001c007000
003e001c00
000e070e00
000c31c400
000cf8e000
041ff87000
07ffc02000
07fc000000
0318000000
0018000000
0018000000
0030000000
0030000000
00300f8000
003078e000
0061c03000
0067003000
006c001800
00f8001800
00f0001800
00e0003800
0040003000
0000007000
000000e000
000003c000
00001f0000
0001f00000
0000000000
0000000000
0000000000
0000000000
ENDCHAR
STARTCHAR aac3
ENCODING 43715 
SWIDTH 230 0
DWIDTH 34 0
BBX 34 35 0 -1
BITMAP 
0000000000
0000000000
0000000000
0000000000
0000000000
0000000000
0000000000
0000000000
0000000000
0000000000
0000000000
0000000000
0000000000
0000ff0000
0007e1c000
021f006000
03f8006000
01e0003000
00c0003000
0000003000
0000003000
0000003000
0000006000
0000006000
000000c000
0000018000
0000070000
00003c0000
0007e00000
0000000000
0000000000
0000000000
0000000000
0000000000
0000000000
ENDCHAR
STARTCHAR aac4
ENCODING 43716 
SWIDTH 230 0
DWIDTH 34 0
BBX 34 35 0 -1
BITMAP 
0000000000
0000000000
0000000000
0000000000
0000000000
0000000000
0000000000
0000000000
00000fc000
0000787000
0007c01800
001e000c00
10f8000c00
1fe0000e00
0f80000600
0600000600
0000000600
0000000600
0000000e00
0000000c00
0000000c00
0000001800
0000003800
0000007000
000000e000
000003c000
00001e0000
0003f00000
0000000000
0000000000
0000000000
0000000000
0000000000
0000000000
0000000000
ENDCHAR
STARTCHAR aac5
ENCODING 43717 
SWIDTH 230 0
DWIDTH 34 0
BBX 34 35 0 -1
BITMAP 
0000000000
0000000000
0000000000
0000007000
0000001c00
0000038e00
000000e400
0000007000
0000002000
0000000000
00000fc000
0000787000
000fc01800
107e000c00
1ff0000c00
0fc0000e00
0600000600
0000000600
0000000600
0000000600
0000000e00
0000000c00
0000000c00
0000001800
0000003800
0000007000
000001e000
0000078000
0001fc0000
0000000000
0000000000
0000000000
0000000000
0000000000
0000000000
ENDCHAR
STARTCHAR aac6
ENCODING 43718 
SWIDTH 230 0
DWIDTH 34 0
BBX 34 35 0 -1
BITMAP 
0000000000
0000000000
0000000000
0000000000
0000000000
000000f000
00001ff800
0000fff800
0007e3c000
083f070000
0ff81c0000
07c0300000
0300600000
0000c00000
0001800000
0001800000
0003000000
0003000000
0006000000
0006000000
0006000000
0006000000
0007000000
0003000000
0003000000
0001800000
0001c00000
0000e00000
0000780000
00001fc000
000007c000
0000000000
0000000000
0000000000
0000000000
ENDCHAR
STARTCHAR aac7
ENCODING 43719 
SWIDTH 230 0
DWIDTH 34 0
BBX 34 35 0 -1
BITMAP 
0000000000
0000000000
0000000000
0000000000
0000000000
000001e000
00003ff000
0001fff000
000fc78000
107e0e0000
1ff039c000
0f80607000
0600c03800
0001871c00
000301c800
000300e000
0006007000
0006002000
000c000000
000c000000
000c000000
000c000000
000e000000
0006000000
0006000000
0003000000
0003800000
0001c00000
0000f00000
00003f8000
00000f8000
0000000000
0000000000
0000000000
0000000000
ENDCHAR
STARTCHAR aac8
ENCODING 43720 
SWIDTH 230 0
DWIDTH 34 0
BBX 34 35 0 -1
BITMAP 
0000000000
0000000000
0000000000
0000000000
000c000000
001e000000
0007000000
0007000000
0006000000
0006000000
0006018000
000700c000
000300e000
000303f000
00018fe000
0001be0000
0000f00000
0001c00000
0007000000
000c000000
0018000000
0030000000
0030000000
0060000000
0060000000
0060000000
0060000000
0070000000
003c018000
001fffc000
0007ffc000
0000000000
0000000000
0000000000
0000000000
ENDCHAR
STARTCHAR aac9
ENCODING 43721 
SWIDTH 230 0
DWIDTH 34 0
BBX 34 35 0 -1
BITMAP 
0000000000
0000000000
0000000000
0000000000
001800e000
003c003800
000e001c00
000e038e00
000c00e400
000c007000
000c003800
000e031000
0006018000
000607c000
00031f8000
0003780000
0001e00000
0003800000
000e000000
0018000000
0030000000
0060000000
0060000000
00c0000000
00c0000000
00c0000000
00c0000000
00e0000000
0078030000
003fff8000
000fff8000
0000000000
0000000000
0000000000
0000000000
ENDCHAR
STARTCHAR aaca
ENCODING 43722 
SWIDTH 230 0
DWIDTH 34 0
BBX 34 35 0 -1
BITMAP 
0000000000
0000000000
0000000000
0000000000
001c000000
003e000000
000e000000
000c600000
000cf00000
081ff00000
0fff000000
07f8038000
001800c000
0038007000
003003f800
0070061c00
00600c0e00
00e00c0400
01c0180000
0380180000
0f00180000
0e00180000
0407d80000
000c780000
00183e0000
00301b8000
003019e000
0030187000
0018303800
000ff01000
0003c00000
0000000000
0000000000
0000000000
0000000000
ENDCHAR
STARTCHAR aacb
ENCODING 43723 
SWIDTH 230 0
DWIDTH 34 0
BBX 34 35 0 -1
BITMAP 
0000000000
0000000000
0000000000
0000000000
0000000000
0700000000
0184000000
01c700e000
01c3fff000
01807ff800
018001e000
0300038000
0300070000
03001c0000
0300000000
0600000000
0621000000
0623000000
0622000000
0626000000
0666000000
0646000000
06c6000000
0686000000
0683000000
0383800000
0381e03000
0300fff800
01003ff800
0000000000
0000000000
0000000000
0000000000
0000000000
0000000000
ENDCHAR
STARTCHAR aacc
ENCODING 43724 
SWIDTH 230 0
DWIDTH 34 0
BBX 34 35 0 -1
BITMAP 
0000000000
0000000000
0000000000
0000000000
0003000000
0007800000
0001c00000
0001c00000
0001800000
0c01800000
1e03fc0000
0607878000
063f00e000
06e3003000
0783001800
0306001800
0306000c00
0706000c00
0786000c00
0d8c000c00
0ccc000c00
18d8000c00
18780f8c00
183031d800
1838607800
186c403800
18c6403c00
0d80606e00
07007fc400
00003f8000
0000000000
0000000000
0000000000
0000000000
0000000000
ENDCHAR
STARTCHAR aacd
ENCODING 43725 
SWIDTH 230 0
DWIDTH 34 0
BBX 34 35 0 -1
BITMAP 
0000000000
0000000000
0000000000
0000000000
0060000000
00f0000000
0038000000
0038000000
0030000000
0030000000
0030078000
00781ce000
13fc703000
1fb9c03000
0e33001800
0036001800
003c001800
0038001800
0070001800
00f0001800
01b0001800
0330001800
03300f1800
063019d800
0630307800
0c30603800
0c30603c00
183830ee00
18f81fc700
00780f0200
0030000000
0000000000
0000000000
0000000000
0000000000
ENDCHAR
STARTCHAR aace
ENCODING 43726 
SWIDTH 230 0
DWIDTH 34 0
BBX 34 35 0 -1
BITMAP 
0000000000
0000000000
0000000000
0000000000
0000000000
0000000000
0001f80000
000f0f0000
0038c1c000
00e0607000
0180701800
0300701800
0600600c00
0600e00c00
0c00c00e00
0c00c00600
1801800600
1801800600
1803000600
1806000600
1806000e00
180c000c00
1818000c00
1c18001800
0c30001800
0c60003000
07c000e000
0380038000
00003e0000
0000000000
0000000000
0000000000
0000000000
0000000000
0000000000
ENDCHAR
STARTCHAR aacf
ENCODING 43727 
SWIDTH 230 0
DWIDTH 34 0
BBX 34 35 0 -1
BITMAP 
0000000000
0000000000
0000000000
0000000000
0700060000
03800f8000
0380038000
0380030000
0300030000
0300030000
0600031800
060403fc00
06071ffc00
0603ff0000
0401e30000
0c00030000
0c00030000
0c20030000
0c20030000
0c60018000
0c40018000
0cc07d8000
0c81c78000
0c8303c000
0d8601e000
0704037000
0704033800
0706071c00
0603fe0800
0201f80000
0000000000
0000000000
0000000000
0000000000
0000000000
ENDCHAR
STARTCHAR aad0
ENCODING 43728 
SWIDTH 230 0
DWIDTH 34 0
BBX 34 35 0 -1
BITMAP 
0000000000
0000000000
0000006000
0000003800
0e00331c00
07007dce00
07001ce400
0700187000
0600182000
0600180000
0c00186000
0c101ff000
0c18fff000
0c0ff80000
1807180000
1800180000
1800180000
1840180000
1840180000
18c00c0000
18800c0000
1983ec0000
19063c0000
190c1e0000
1b181f0000
0e101b8000
0e1019c000
0e1838e000
0c0ff04000
0407c00000
0000000000
0000000000
0000000000
0000000000
0000000000
ENDCHAR
STARTCHAR aad1
ENCODING 43729 
SWIDTH 230 0
DWIDTH 34 0
BBX 34 35 0 -1
BITMAP 
0000000000
0000000000
0000000000
0000001c00
0c000c3600
07001f4100
0700074100
0700064100
0600063600
0600061c00
0c00063000
0c0807f800
0c0e3ff800
0c07fe0000
1803c60000
1800060000
1800060000
1840060000
1840060000
1840030000
1880030000
1980f30000
19039f0000
1b0e078000
1a0807c000
1e0806e000
0e08067800
0c0c0e3800
0c07fc1000
0403f80000
0000000000
0000000000
0000000000
0000000000
0000000000
ENDCHAR
STARTCHAR aad2
ENCODING 43730 
SWIDTH 230 0
DWIDTH 34 0
BBX 34 35 0 -1
BITMAP 
0000000000
0000000000
0000000000
0000000000
0000000000
0018018000
007c038000
13fc038000
1fb8018000
0e30018000
046001c000
006001c000
00c0016000
00c0016000
0180033000
0180033800
0300021c00
0300021c00
0600020800
0600060000
0600060000
0600040000
0600040000
06000c0000
0300080000
0300180000
01c0300000
00ffe00000
003f800000
0000000000
0000000000
0000000000
0000000000
0000000000
0000000000
ENDCHAR
STARTCHAR aad3
ENCODING 43731 
SWIDTH 230 0
DWIDTH 34 0
BBX 34 35 0 -1
BITMAP 
0000000000
0000000000
000000e000
0000003800
0000001c00
0030030e00
00f8074400
23f8077000
3f70033800
1c60031c00
08c0038800
00c0038000
018002c000
018002c000
0300066000
0300067000
0600043800
0600043800
0c00041000
0c000c0000
0c000c0000
0c00080000
0c00080000
0c00180000
0600100000
0600300000
0380600000
01ffc00000
007f000000
0000000000
0000000000
0000000000
0000000000
0000000000
0000000000
ENDCHAR
STARTCHAR aad4
ENCODING 43732 
SWIDTH 230 0
DWIDTH 34 0
BBX 34 35 0 -1
BITMAP 
0000000000
0000000000
0000000000
0000001c00
0000003600
0030034100
00f8074100
27f8074100
3f70033600
1c60031c00
08c0038000
00c0038000
01c003c000
018002c000
0300066000
0300067000
0600043800
0600043800
0c00041000
0c000c0000
0c000c0000
0c00080000
0c00080000
0c00180000
0600100000
0600300000
0380600000
01ffc00000
007f000000
0000000000
0000000000
0000000000
0000000000
0000000000
0000000000
ENDCHAR
STARTCHAR aad5
ENCODING 43733 
SWIDTH 230 0
DWIDTH 34 0
BBX 34 35 0 -1
BITMAP 
0000000000
0000000000
0000000000
0000000000
0004000000
0007c00000
0001f80000
00003c0000
0000380000
0000e00000
0001800000
0003000000
0006000000
0006000000
0003f80000
00038f0000
000ec1c000
0018606000
1030303000
1060303000
10c0381800
1980181800
1980181c00
0f00180c00
0f00180e00
0600180e00
0018180c00
000c180000
0007380000
0001f00000
0000e00000
0000000000
0000000000
0000000000
0000000000
ENDCHAR
STARTCHAR aad6
ENCODING 43734 
SWIDTH 230 0
DWIDTH 34 0
BBX 34 35 0 -1
BITMAP 
0000000000
0000000000
0000000000
0000000000
0004000000
0007c1c000
0001f87000
00003c3800
0000381c00
0000e38800
000180e000
0003007000
0006003800
0006001000
0003f80000
00038f0000
000ec1c000
1018606000
1030303000
1860303000
10c0381800
1980181800
1980181c00
1f00180c00
0f00180e00
0e00180e00
0418180c00
000c180000
0007f80000
0001f00000
0000c00000
0000000000
0000000000
0000000000
0000000000
ENDCHAR
STARTCHAR aad7
ENCODING 43735 
SWIDTH 230 0
DWIDTH 34 0
BBX 34 35 0 -1
BITMAP 
0000000000
0000000000
0000000000
0000000000
0004000000
0007c00000
0001f87000
00003cd800
0000390400
0000e10400
0001810400
000300d800
0006007000
0006000000
0003f80000
00038f0000
000ec1c000
0018606000
1030303000
1060303000
10c0381800
1980181800
1980181c00
1f00180c00
0f00180e00
0e00180e00
0418180c00
000c180000
0007380000
0001f00000
0000c00000
0000000000
0000000000
0000000000
0000000000
ENDCHAR
STARTCHAR aad8
ENCODING 43736 
SWIDTH 230 0
DWIDTH 34 0
BBX 34 35 0 -1
BITMAP 
0000000000
0000000000
0000000000
0000000000
0000000000
0000000000
0000000000
0000000000
0004000000
000e000000
001b000000
0031800000
0030c00000
0060e00000
0060700000
00c0380000
11c01c0000
13800e0000
1f00070000
1e00038000
0c0001c000
000000e000
0000007000
0000003c00
0000001e00
0000000e00
0000000400
0000000000
0000000000
0000000000
0000000000
0000000000
0000000000
0000000000
0000000000
ENDCHAR
STARTCHAR aad9
ENCODING 43737 
SWIDTH 230 0
DWIDTH 34 0
BBX 34 35 0 -1
BITMAP 
0000000000
0000000000
0000000000
0000000000
0000000000
0000038000
000000e000
0000007000
00041c3800
000e071000
001b038000
003181c000
0030c08000
0060e00000
0060700000
00c0380000
11c01c0000
13800e0000
1f00070000
1e00038000
0c0001c000
000000e000
0000007000
0000003c00
0000001e00
0000000e00
0000000400
0000000000
0000000000
0000000000
0000000000
0000000000
0000000000
0000000000
0000000000
ENDCHAR
STARTCHAR aada
ENCODING 43738 
SWIDTH 230 0
DWIDTH 34 0
BBX 34 35 0 -1
BITMAP 
0000000000
0000000000
0000000000
0000000000
0000000000
000001c000
0000036000
0000041000
0004041000
000e041000
001b036000
003181c000
0030c00000
0060e00000
0060700000
00c0380000
11c01c0000
13800e0000
1f00070000
1e00038000
0c0001c000
000000e000
0000007000
0000003c00
0000001e00
0000000e00
0000000400
0000000000
0000000000
0000000000
0000000000
0000000000
0000000000
0000000000
0000000000
ENDCHAR
STARTCHAR aadb
ENCODING 43739 
SWIDTH 230 0
DWIDTH 34 0
BBX 34 35 0 -1
BITMAP 
0000000000
0000000000
0000000000
0000000000
0600003000
030003f800
03820ff800
0383fe0000
0301f20000
0300038000
0600038000
0600030000
0600031800
06020ffc00
0c03fffc00
0c01f30000
0c40030000
0c40030000
0c40030000
0cc0018000
0c80018000
0d80018000
0d007d8000
0d01c78000
0d0303c000
070201e000
070201b800
0703839c00
0601ff0e00
0200fe0400
0000000000
0000000000
0000000000
0000000000
0000000000
ENDCHAR
STARTCHAR aadc
ENCODING 43740 
SWIDTH 230 0
DWIDTH 34 0
BBX 34 35 0 -1
BITMAP 
0000000000
0000000000
0000006000
0000003800
0c00019c00
06000fce00
07083fc400
070ff80000
0607c8c000
06000e7000
0c000e3800
0c000c1c00
0c000cc800
0c083fe000
180fffe000
1807cc0000
18800c0000
18800c0000
18800c0000
1980060000
1900060000
1b00060000
1a01f60000
1a071e0000
1a0c0f0000
1e08078000
0e0806e000
0e0e0e7000
0c07fc3800
0403f81000
0000000000
0000000000
0000000000
0000000000
0000000000
ENDCHAR
STARTCHAR aadd
ENCODING 43741 
SWIDTH 230 0
DWIDTH 34 0
BBX 34 35 0 -1
BITMAP 
0000000000
0000000000
0000000000
0000000000
0c00018000
06000fc000
07087fdc00
070ff03600
0607904100
06001c4100
0c001c4100
0c00183600
0c0018dc00
0c087fe000
180fffe000
1807980000
1880180000
1880180000
1880180000
19800c0000
19000c0000
1b000c0000
1a03ec0000
1a063c0000
1a0c1e0000
1e080f0000
0e080dc000
0c0c1ce000
0c07f87000
0403f02000
0000000000
0000000000
0000000000
0000000000
0000000000
ENDCHAR
STARTCHAR aade
ENCODING 43742 
SWIDTH 230 0
DWIDTH 34 0
BBX 34 35 0 -1
BITMAP 
0000000000
0000000000
0000000000
0000000000
0000e00000
0001f80000
0000380000
0000300000
000031c000
02003fe000
0383ffe000
01ffe00000
007c600000
0000600000
0000638000
01007fc000
01c3ffc000
00ffe00000
003c600000
0000600000
0000300000
0000300000
001f300000
0071f00000
00c0780000
01803e0000
0180378000
018061c000
00c060e000
007fc04000
001f800000
0000000000
0000000000
0000000000
0000000000
ENDCHAR
STARTCHAR aadf
ENCODING 43743 
SWIDTH 230 0
DWIDTH 34 0
BBX 34 35 0 -1
BITMAP 
0000000000
0000000000
0000000000
0000000000
0000300000
0083f80000
00fffc0000
007c1c0000
0030180000
0000380000
0000300000
0000700000
000060e000
0000e03000
0000c03800
0001803800
003fe03000
01e33c7000
07030f6000
0c0603e000
0c0600f000
180c00f800
180c00dc00
1818018e00
1830018400
1860038000
18c0070000
0f800e0000
06001c0000
0000700000
0003c00000
0000000000
0000000000
0000000000
0000000000
ENDCHAR
STARTCHAR aae0
ENCODING 43744 
SWIDTH 230 0
DWIDTH 34 0
BBX 34 35 0 -1
BITMAP 
0000000000
0000000000
0000000000
0000000000
00c0000000
01e0000000
0070038000
007000c000
0061806000
0067c03000
18ffc03800
0ffc003800
07e0001c00
0060001c00
0060000800
03e0000000
0670000000
0c30000000
0c30004000
0c30004000
0c30004000
06e0004000
03e0004000
00c0006000
00c0006000
00c0007000
00e0007000
007801e000
003fffc000
000fff0000
0000000000
0000000000
0000000000
0000000000
0000000000
ENDCHAR
STARTCHAR aae1
ENCODING 43745 
SWIDTH 230 0
DWIDTH 34 0
BBX 34 35 0 -1
BITMAP 
0000000000
0000000000
0000000000
0000000000
0000600000
0000f00000
0400380000
0e00380000
0700300000
0700300000
0600300000
0307fe0000
033c63c000
03e0e07000
0180c03800
0380c01800
06c1801c00
06c1800c00
0cc3000e00
0cc3000600
1866000600
1866000600
183c000600
1838000c00
1838000c00
186c001800
1dce003000
0f8400e000
0600038000
00001e0000
0000000000
0000000000
0000000000
0000000000
0000000000
ENDCHAR
STARTCHAR aae2
ENCODING 43746 
SWIDTH 230 0
DWIDTH 34 0
BBX 34 35 0 -1
BITMAP 
0000000000
0000000000
0000000000
0000000000
000c000000
001e000000
0007000000
0107000000
0306000000
0306000000
01cc000000
00fc600000
003ff00000
000ff00000
0018000000
0218030000
0618018000
061800c000
03b000c000
01f0006000
00ffe06000
003fe03000
0030c03000
0030003000
0030003000
0030006000
0018006000
001800c000
000e038000
0007ff0000
0001fc0000
0000000000
0000000000
0000000000
0000000000
ENDCHAR
STARTCHAR aae3
ENCODING 43747 
SWIDTH 230 0
DWIDTH 34 0
BBX 34 35 0 -1
BITMAP 
0000000000
0000000000
0000000000
0000000000
0000000000
0000000000
0000000000
0000000000
0000000000
0000600000
000c380000
001e1c0000
0007080000
0007078000
00061ce000
0006f06000
0003803000
0007003000
023f003000
03f3006000
01c319c000
00018f0000
0001800000
0001800000
0001800000
0000c00000
0000c00000
0000c00000
0000e00000
0000e00000
0000400000
0000000000
0000000000
0000000000
0000000000
ENDCHAR
STARTCHAR aae4
ENCODING 43748 
SWIDTH 230 0
DWIDTH 34 0
BBX 34 35 0 -1
BITMAP 
0000000000
0000000000
0000000000
0000000000
00e1c00000
01f0780000
00381c0000
00380e0000
0018040000
0018000000
001807e000
00183c3800
0019f00c00
000fc00600
103e000600
1ffc000600
0fcc000c00
060c080c00
00060e3800
000607f000
000601c000
0006000000
0006000000
0006000000
0006000000
0003000000
0003000000
0003000000
0003800000
0003800000
0001000000
0000000000
0000000000
0000000000
0000000000
ENDCHAR
STARTCHAR aae5
ENCODING 43749 
SWIDTH 230 0
DWIDTH 34 0
BBX 34 35 0 -1
BITMAP 
0000000000
0000000000
0000000000
0000000000
0000000000
0000000000
0000000000
0000000000
0000000000
0000000000
0001c00000
0000600000
0300700000
01c03e0000
01c0fb8000
018398c000
0186186000
018c186000
0318183000
0310183000
0330183000
0320183000
0364186000
0346186000
034330c000
01c1b18000
01c0f70000
00c07c0000
0000600000
0001c00000
0007000000
0000000000
0000000000
0000000000
0000000000
ENDCHAR
STARTCHAR aae6
ENCODING 43750 
SWIDTH 230 0
DWIDTH 34 0
BBX 34 35 0 -1
BITMAP 
0000000000
0000000000
0000000000
0000000000
0000e00000
0001f00000
0000380000
0c00180000
06007f0000
0701d9c000
0707187000
060c181800
0618181800
0630180c00
0c60180c00
0c60180c00
0cc0180c00
0cc0180c00
0d80180c00
0d80181c00
0d08181800
0d0c303800
0706303000
0703306000
0601f1c000
0200ff8000
00007e0000
0000600000
0000c00000
0003800000
000e000000
0000000000
0000000000
0000000000
0000000000
ENDCHAR
STARTCHAR aae7
ENCODING 43751 
SWIDTH 230 0
DWIDTH 34 0
BBX 34 35 0 -1
BITMAP 
0000000000
0000000000
0000000000
0000000000
0000000000
0000000000
0000000000
0000000000
0000000000
0000000000
0001800000
0003c00000
0000e00000
0000e00000
0000c30000
0000c78000
0000df0000
0000f80000
0000c00000
0000c00000
0000c00000
0000c00000
0000c00000
001ec00000
0033c00000
0061f00000
00c0fc0000
00c0ce0000
00e1c70000
007f820000
001f000000
0000000000
0000000000
0000000000
0000000000
ENDCHAR
STARTCHAR aae8
ENCODING 43752 
SWIDTH 230 0
DWIDTH 34 0
BBX 34 35 0 -1
BITMAP 
0000000000
0000000000
0000000000
0000000000
0003000000
0007c00000
0000e00000
0000e00000
0000c00000
0000c00000
0000c06000
0000c1f000
0000cff000
0000fe0000
0000c00000
0000c00000
0000c00000
0000c00000
0000600000
0000600000
0000600000
0000600000
003e600000
00e3e00000
0180fc0000
03007f8000
030067e000
030060f000
01c1c02000
00ff800000
003e000000
0000000000
0000000000
0000000000
0000000000
ENDCHAR
STARTCHAR aae9
ENCODING 43753 
SWIDTH 230 0
DWIDTH 34 0
BBX 34 35 0 -1
BITMAP 
0000000000
0000000000
0000000000
0000000000
001c000000
0007000000
0001c00000
0000e00000
0007f00000
000c700000
0018200000
0030000000
0030000000
0060000000
0060000000
0060000000
00607f0000
00c1c1c000
00c3006000
00c6003000
00cc003000
00d8001800
01f0001800
01e0001800
00e0003000
0040003000
0000006000
000000c000
0000038000
00001e0000
0001f00000
0000000000
0000000000
0000000000
0000000000
ENDCHAR
STARTCHAR aaea
ENCODING 43754 
SWIDTH 230 0
DWIDTH 34 0
BBX 34 35 0 -1
BITMAP 
0000000000
0000000000
0000000000
0000000000
00e00c0000
0070060000
0070030000
0060030000
0060018000
0060018000
00c0018000
00c0018000
00c2018000
00c2018000
00c6018000
00c4018000
00c4018000
006c018000
0068018000
0038038000
0030030000
0010030000
0000030000
0000070000
0000060000
0000060000
00000c0000
0000180000
0000300000
0000e00000
0007800000
0000000000
0000000000
0000000000
0000000000
ENDCHAR
STARTCHAR aaeb
ENCODING 43755 
SWIDTH 230 0
DWIDTH 34 0
BBX 34 35 0 -1
BITMAP 
0000000000
0000000000
0000000000
0000000000
0040180000
0063fc0000
003f9e0000
001e1c0000
0008380000
0000700000
0000e00000
0001c00000
0001800000
0003000000
0006000000
000c7e0000
0019c38000
003f00c000
0078006000
01e0006000
03c0003000
0380003000
0101e03000
0003303000
0006183000
000c0c6000
000c0c6000
000e0dc000
0007ff8000
0001fe0000
0000000000
0000000000
0000000000
0000000000
0000000000
ENDCHAR
STARTCHAR aaec
ENCODING 43756 
SWIDTH 230 0
DWIDTH 34 0
BBX 34 35 0 -1
BITMAP 
0000000000
0000000000
0000000000
0000000000
00c0000000
01e0000000
0070000000
0070000000
00601c0000
00607e0000
0060e30000
00f9830000
13f3030000
1fe6030000
0c6c030000
0078030000
0070060000
00e0060000
01e0060000
01e0060000
0360060000
06600c0200
06600c0200
0c600c0200
1c600c0600
38600c0600
18600c0c00
00700e0c00
01f007f800
00f003f000
0060000000
0000000000
0000000000
0000000000
0000000000
ENDCHAR
STARTCHAR aaed
ENCODING 43757 
SWIDTH 230 0
DWIDTH 34 0
BBX 34 35 0 -1
BITMAP 
0000000000
0000000000
0000000000
0000000000
0080300000
00c3f80000
007f3c0000
003c380000
0018700000
0000e00000
0001c00000
0003800000
0007000000
0006000000
000c3f0000
0018e1c000
0033806000
006e003000
00f8003000
03e0001800
0780001800
0700001800
0200001800
0000003000
0000003000
0000006000
000000c000
0000038000
00001e0000
0007f00000
0000000000
0000000000
0000000000
0000000000
0000000000
ENDCHAR
STARTCHAR aaee
ENCODING 43758 
SWIDTH 230 0
DWIDTH 34 0
BBX 34 35 0 -1
BITMAP 
0000000000
0000000000
0000000000
0000000000
0000000000
0000000000
0000000000
0000000000
0000000000
0000000000
000c000000
0007000000
0007000000
0006000000
0006000000
0007000000
011f800000
01ff1e0000
00e6738000
0047c0c000
0007006000
000e006000
001e006000
0036006000
0066006000
00c600c000
01c600c000
0386018000
0107070000
00073c0000
0006000000
0000000000
0000000000
0000000000
0000000000
ENDCHAR
STARTCHAR aaef
ENCODING 43759 
SWIDTH 230 0
DWIDTH 34 0
BBX 34 35 0 -1
BITMAP 
0000000000
0000000000
0000000000
0000000000
0030000000
0078000000
001c000000
001c000000
0018000000
0018000000
0018000000
003e0f8000
09fc38e000
0fd8e03000
061b801800
001e001800
001c000c00
0038000c00
0038000c00
0078000c00
00d8000c00
0198000c00
0318000c00
0318001800
0618001800
0e18003000
1c18003000
0c1c006000
007c01c000
003c3f0000
0018000000
0000000000
0000000000
0000000000
0000000000
ENDCHAR
STARTCHAR aaf0
ENCODING 43760 
SWIDTH 230 0
DWIDTH 34 0
BBX 34 35 0 -1
BITMAP 
0000000000
0000000000
0000000000
0000000000
0000600000
0083f00000
00fff80000
007c700000
0030600000
0000600000
0000c00000
0000c00000
0000c00000
0001fc0000
000f878000
003980e000
00e3007000
0183003000
0303003800
0306001800
0606001800
060c001800
0c0c1c1800
0c18771800
0c18c19800
0c30c1b000
0c30c1b000
0660e0e000
01c07fc000
00001f0000
0000000000
0000000000
0000000000
0000000000
0000000000
ENDCHAR
STARTCHAR aaf1
ENCODING 43761 
SWIDTH 230 0
DWIDTH 34 0
BBX 34 35 0 -1
BITMAP 
0000000000
0000000000
0000000000
0000000000
0000600000
0087f00000
00fff80000
0078700000
0030c00000
0003800000
00063c0000
000ce60000
001f830000
007c030000
00f0018000
01c0018000
0383818000
0106c30000
000cc60000
000d9c0000
0007f00000
000c000000
0018000000
0030000000
0060070000
01f00dc000
0398187000
070c303c00
0e06600e00
1c03c00e00
0801800400
0000000000
0000000000
0000000000
0000000000
ENDCHAR
STARTCHAR aaf2
ENCODING 43762 
SWIDTH 230 0
DWIDTH 34 0
BBX 34 35 0 -1
BITMAP 
0000000000
0000000000
0000000000
0000000000
0007000000
0003c00000
0003800000
00038c0000
00031e0000
0207fe0000
03fffc0000
01fe000000
00cc000000
000c01f000
0018003800
0037007800
007981e000
01e0cfc000
0380fe0000
0701f00000
0607600000
000c600000
0018700000
0018700000
0030200000
0030000000
0030000000
0030000000
0038000000
001fffc000
0007ff8000
0000000000
0000000000
0000000000
0000000000
ENDCHAR
STARTCHAR aaf3
ENCODING 43763 
SWIDTH 230 0
DWIDTH 34 0
BBX 34 35 0 -1
BITMAP 
0000000000
0000000000
0000000000
0000000000
0003800000
0007c00000
0001c00000
0001800000
0003000000
0003000000
0006000000
0006000000
000c000000
0018000000
0018000000
0030000000
0060000000
0060000000
00c7000000
00cfc00400
01b8e00400
01e0600400
03c0300400
0380300c00
0300300800
0700301800
0600301800
0e00387000
0e001fe000
0400078000
0000000000
0000000000
0000000000
0000000000
0000000000
ENDCHAR
STARTCHAR aba1
ENCODING 43937 
SWIDTH 230 0
DWIDTH 34 0
BBX 34 35 0 -1
BITMAP 
0000000000
0000000000
0000000000
0000000000
0000000000
0000000000
0000000000
0000000000
0000000000
0000000000
0000018000
00001fc000
0207f0e000
03ff80e000
00fc00c000
0060018000
0000c18000
0001e30000
0000730000
0000660000
00006c0000
0000600000
0000600000
0000c00000
0000c00000
0000c00000
0001800000
0001800000
0003000000
0006000000
001c000000
0000000000
0000000000
0000000000
0000000000
ENDCHAR
STARTCHAR aba2
ENCODING 43938 
SWIDTH 230 0
DWIDTH 34 0
BBX 34 35 0 -1
BITMAP 
0000000000
0000000000
0000000000
0000002000
0000007000
08003ff800
0c0fff9c00
0fffc01c00
0ff0001800
0300001800
0000003000
0000c03000
0001e06000
000070c000
0000618000
0000630000
0000660000
00006c0000
0000780000
0000600000
0000c00000
0000c00000
0000c00000
0001800000
0001800000
0003000000
0003000000
0006000000
000c000000
0018000000
0070000000
0000000000
0000000000
0000000000
0000000000
ENDCHAR
STARTCHAR aba3
ENCODING 43939 
SWIDTH 230 0
DWIDTH 34 0
BBX 34 35 0 -1
BITMAP 
0000000000
0000000000
0000000000
0000000000
0000000000
0000000000
0000000000
0000000000
0000000000
0000000000
00000e0000
0000070000
0000070000
0000070000
00000e0000
00001c0000
0000380000
0000700000
0000e00000
0001e00000
0003b00000
000e300000
001c300000
0070300000
01c0300000
0000300000
0000300000
0000300000
0000700000
0000700000
0000200000
0000000000
0000000000
0000000000
0000000000
ENDCHAR
STARTCHAR aba4
ENCODING 43940 
SWIDTH 230 0
DWIDTH 34 0
BBX 34 35 0 -1
BITMAP 
0000000000
0000000000
0000000000
0000000000
000001c000
000007e000
000001e000
000001c000
0000038000
0000038000
0000070000
00000e0000
00001c0000
0000380000
0000700000
0000c00000
0001a00000
0007300000
001c380000
0070300000
01c0300000
0700300000
0000300000
0000300000
0000300000
0000300000
0000300000
0000300000
0000700000
0000700000
0000200000
0000000000
0000000000
0000000000
0000000000
ENDCHAR
STARTCHAR aba5
ENCODING 43941 
SWIDTH 230 0
DWIDTH 34 0
BBX 34 35 0 -1
BITMAP 
0000000000
0000000000
0000000000
0000000000
0000000000
0000000000
0000000000
0000000000
0000000000
0000000000
0003000000
0007c00000
0001800000
0001830000
0181ff8000
00fff3c000
00ff01c000
00c0018000
00c0018000
00c0018000
00c0038000
00e0030000
0040030000
0000060000
0000060000
00000c0000
00000c0000
0000180000
0000300000
0000e00000
0003800000
0000000000
0000000000
0000000000
0000000000
ENDCHAR
STARTCHAR aba6
ENCODING 43942 
SWIDTH 230 0
DWIDTH 34 0
BBX 34 35 0 -1
BITMAP 
0000000000
0000000000
0000000000
0000000000
0003000000
0007c00000
0001c00000
0001800000
0001806000
00018ff000
0c07ff3800
07fff03800
07f8003800
0600003000
0600003000
0700007000
0300006000
0300006000
038000e000
038000c000
010000c000
0000018000
0000018000
0000030000
0000030000
0000060000
00000c0000
0000180000
0000700000
0001c00000
0007000000
0000000000
0000000000
0000000000
0000000000
ENDCHAR
STARTCHAR aba7
ENCODING 43943 
SWIDTH 230 0
DWIDTH 34 0
BBX 34 35 0 -1
BITMAP 
0000000000
0000000000
0000000000
0000000000
0000000000
0000000000
0000000000
0000000000
0000000000
0000000000
0000000000
0000000000
0000010000
00803f8000
00ffffc000
007fc00000
0030800000
0000e00000
0000e00000
0000c00000
0000c00000
0000c00000
0000c00000
0000c00000
0000c06000
0200fff000
03fffff000
01ff800000
00c0000000
0000000000
0000000000
0000000000
0000000000
0000000000
0000000000
ENDCHAR
STARTCHAR aba8
ENCODING 43944 
SWIDTH 230 0
DWIDTH 34 0
BBX 34 35 0 -1
BITMAP 
0000000000
0000000000
0000000000
0000000000
0000000000
0000000000
0000000000
0000030000
00001f8000
0101ffc000
01fff00000
00ff800000
0060e00000
0000e00000
0000c00000
0000c00000
0000c00000
0000c00000
0000c00000
0000c00000
0000c00000
0000c01800
0000c1fc00
1003fffe00
1ffffe0c00
1ffc000000
0c00000000
0000000000
0000000000
0000000000
0000000000
0000000000
0000000000
0000000000
0000000000
ENDCHAR
STARTCHAR aba9
ENCODING 43945 
SWIDTH 230 0
DWIDTH 34 0
BBX 34 35 0 -1
BITMAP 
0000000000
0000000000
0000000000
0000000000
0000000000
0000000000
0000000000
0000000000
0000000000
0000000000
0000700000
0000f80000
0000300000
000030c000
00003fe000
0041ffe000
007ff80000
003e780000
0018780000
0000d80000
0000d80000
0001980000
0003180000
0006180000
000c180000
0018180000
0030180000
00e1180000
0381f80000
0000780000
0000300000
0000000000
0000000000
0000000000
0000000000
ENDCHAR
STARTCHAR abaa
ENCODING 43946 
SWIDTH 230 0
DWIDTH 34 0
BBX 34 35 0 -1
BITMAP 
0000000000
0000000000
0000000000
0000000000
0000600000
0000f80000
00001c0000
00001c0000
0000180000
0000183000
04001ff800
0603fffc00
07fffc0800
03fc6c0000
01806c0000
0000cc0000
0000cc0000
00018c0000
00018c0000
00030c0000
00060c0000
000c0c0000
00180c0000
00300c0000
00600c0000
01c00c0000
07030c0000
1c01cc0000
0000fc0000
00003c0000
0000180000
0000000000
0000000000
0000000000
0000000000
ENDCHAR
STARTCHAR abab
ENCODING 43947 
SWIDTH 230 0
DWIDTH 34 0
BBX 34 35 0 -1
BITMAP 
0000000000
0000000000
0000000000
0000000000
0000c00000
0001e00000
0000700000
0000700000
0000600000
0000600000
040060c000
0600ffe000
07fffe7000
03ffc07800
0180c07000
0000c06000
0001806000
0001806000
0001806000
000300e000
000300c000
000600c000
000600c000
000c01c000
0018018000
0030018000
0061818000
01c0c30000
0700730000
1c001e0000
00000c0000
0000000000
0000000000
0000000000
0000000000
ENDCHAR
STARTCHAR abac
ENCODING 43948 
SWIDTH 230 0
DWIDTH 34 0
BBX 34 35 0 -1
BITMAP 
0000000000
0000000000
000000e000
0000003800
0003001c00
0007870e00
0001c1c400
0001c0e000
0001807000
0001802000
0801830000
0c03ff8000
0ffff9c000
07ff01e000
030301c000
0003018000
0006018000
0006018000
0006018000
000c038000
000c030000
0018030000
0018030000
0030070000
0060060000
00c0060000
0186060000
03030e0000
0e01cc0000
1800780000
0000300000
0000000000
0000000000
0000000000
0000000000
ENDCHAR
STARTCHAR abad
ENCODING 43949 
SWIDTH 230 0
DWIDTH 34 0
BBX 34 35 0 -1
BITMAP 
0000000000
0000000000
0000000000
0000000000
0006000000
000f800000
0003800000
0003000000
0003000000
0003830000
00018f8000
0401ffc000
07fff00000
03ff800000
00c1800000
0001800000
0000c0c000
0000c3f000
0000fff800
0807fc1000
0fffc00000
07f8600000
0300600000
0000600000
0000700000
0000300000
0000300000
0000300000
0000380000
0000380000
0000100000
0000000000
0000000000
0000000000
0000000000
ENDCHAR
STARTCHAR abae
ENCODING 43950 
SWIDTH 230 0
DWIDTH 34 0
BBX 34 35 0 -1
BITMAP 
0000000000
0000000000
0000000000
000000e000
000c003800
001f001c00
0007038e00
000600e400
0006007000
0007063800
00031f1000
0803ff0000
0fffe00000
07ff000000
0183000000
0003000000
0001818000
00018fe000
0001fff000
1007f06000
1fff800000
0ff8c00000
0600c00000
0000c00000
0000e00000
0000600000
0000600000
0000600000
0000700000
0000700000
0000200000
0000000000
0000000000
0000000000
0000000000
ENDCHAR
STARTCHAR abaf
ENCODING 43951 
SWIDTH 230 0
DWIDTH 34 0
BBX 34 35 0 -1
BITMAP 
0000000000
0000000000
0000000000
0000000000
0006000000
000f80c000
000381e000
00030ff000
0007fe7800
0007f07000
000e006000
000c006000
0018006000
003000c000
006000c000
00c000c000
0180018000
0700018000
0000030000
0000030000
0000060000
00000c0000
0000180000
0000300000
0000600000
0000c00000
0001800000
0007000000
001c000000
00f0000000
0780000000
0000000000
0000000000
0000000000
0000000000
ENDCHAR
STARTCHAR abb0
ENCODING 43952 
SWIDTH 230 0
DWIDTH 34 0
BBX 34 35 0 -1
BITMAP 
0000000000
0000000000
000000e000
0000003800
0030001c00
007c040e00
001c1e0400
00187f7000
003fe39800
003f838c00
0070030e00
0060030400
00c0030000
0180060000
0300060000
0600060000
0c000c0000
38000c0000
0000180000
0000180000
0000300000
0000600000
0000c00000
0001800000
0003000000
0006000000
000c000000
0038000000
00e0000000
0380000000
1e00000000
0000000000
0000000000
0000000000
0000000000
ENDCHAR
STARTCHAR abb1
ENCODING 43953 
SWIDTH 230 0
DWIDTH 34 0
BBX 34 35 0 -1
BITMAP 
0000000000
0000000000
0000000000
0000000000
000c000000
001e000000
0007000000
0007000000
0006000000
000c000000
000c003800
000c07fc00
001ffffe00
003ffc0000
00300e0000
00600e0000
00c00c0000
01800c0000
03001c0000
0e00180000
0000180000
0000380000
0000300000
0000300000
0000600000
0000600000
0000c00000
0001800000
0007000000
001c000000
0000000000
0000000000
0000000000
0000000000
0000000000
ENDCHAR
STARTCHAR abb2
ENCODING 43954 
SWIDTH 230 0
DWIDTH 34 0
BBX 34 35 0 -1
BITMAP 
0000000000
0000000000
0000000000
000001c000
000c007000
001e0e3800
0007039c00
000701c800
000600e000
000c004000
000c001800
000c07fc00
001ffffe00
001ffc0000
00300e0000
00600e0000
00c00c0000
01800c0000
07001c0000
0c00180000
0000180000
0000380000
0000300000
0000300000
0000600000
0000600000
0000c00000
0001800000
0007000000
001c000000
0000000000
0000000000
0000000000
0000000000
0000000000
ENDCHAR
STARTCHAR abb3
ENCODING 43955 
SWIDTH 230 0
DWIDTH 34 0
BBX 34 35 0 -1
BITMAP 
0000000000
0000000000
0000000000
0000000000
0000000000
0000000000
0000000000
000000c000
04001fe000
0607fe7000
07ffe07800
03f8007000
0180006000
0000006000
0000006000
0000006000
000000c000
000000c000
000000c000
000000c000
0000018000
0000018000
0000018000
04003fc000
0607ffe000
07ffc0c000
03f8000000
0180000000
0000000000
0000000000
0000000000
0000000000
0000000000
0000000000
0000000000
ENDCHAR
STARTCHAR abb4
ENCODING 43956 
SWIDTH 230 0
DWIDTH 34 0
BBX 34 35 0 -1
BITMAP 
0000000000
0000000000
000000e000
0000003800
0000001c00
0000001e00
000001c400
0000007000
0000033800
08007f9c00
0c0ffdc800
0fff81e000
07f001c000
0300018000
0000018000
0000018000
0000030000
0000030000
0000030000
0000030000
0000060000
0000060000
0000060000
0000060000
08007f0000
0c0fff8000
07ff830000
07f0000000
0300000000
0000000000
0000000000
0000000000
0000000000
0000000000
0000000000
ENDCHAR
STARTCHAR abb5
ENCODING 43957 
SWIDTH 230 0
DWIDTH 34 0
BBX 34 35 0 -1
BITMAP 
0000000000
0000000000
0000000000
0000000000
0000060000
00300f0000
007c038000
001c038000
0018030000
0018030000
0018030c00
001803fe00
101fffff00
1fffff0000
0ff8030000
0618030000
0018030000
0018030000
0038070000
0038060000
0018060000
0000060000
00000c0000
00000c0000
00000c0000
0000180000
0000180000
0000300000
0000600000
0001c00000
0007000000
0000000000
0000000000
0000000000
0000000000
ENDCHAR
STARTCHAR abb6
ENCODING 43958 
SWIDTH 230 0
DWIDTH 34 0
BBX 34 35 0 -1
BITMAP 
0000000000
0000000000
000000e000
0000003800
00000c1c00
00601f8e00
00f006e400
0038067000
0038063800
0030061000
0030060000
0030061800
1030fffc00
1ffffffe00
0fff060000
0630060000
0030060000
0030060000
00300e0000
00300c0000
00700c0000
00700c0000
0030180000
0000180000
0000180000
0000300000
0000300000
0000600000
0000c00000
0003800000
000e000000
0000000000
0000000000
0000000000
0000000000
ENDCHAR
STARTCHAR abb7
ENCODING 43959 
SWIDTH 230 0
DWIDTH 34 0
BBX 34 35 0 -1
BITMAP 
0000000000
0000000000
0000000000
0000000000
0180000000
00e0000000
0038000000
001c000000
000e000000
0007000800
0002000800
0000000800
0c00001800
0700001000
01c0003000
00e0002000
0070006000
003800c000
0010018000
0000030000
0000060000
00000c0000
0000380000
0400700000
0601c00000
030f800000
03ff000000
01f8000000
00c0000000
0000000000
0000000000
0000000000
0000000000
0000000000
0000000000
ENDCHAR
STARTCHAR abb8
ENCODING 43960 
SWIDTH 230 0
DWIDTH 34 0
BBX 34 35 0 -1
BITMAP 
0000000000
0000000000
0000000000
000000e000
0300003800
01c0071c00
007001ce00
003800e400
001c007000
000e002000
0004000000
0000001000
0c00001000
0700003000
0380006000
01c0004000
00e000c000
0070018000
0020030000
0000060000
00000c0000
0000180000
0000700000
0400e00000
0403800000
061f000000
07fe000000
03f0000000
0180000000
0000000000
0000000000
0000000000
0000000000
0000000000
0000000000
ENDCHAR
STARTCHAR abb9
ENCODING 43961 
SWIDTH 230 0
DWIDTH 34 0
BBX 34 35 0 -1
BITMAP 
0000000000
0000000000
0000000000
0000000000
0000000000
0000000000
00000c0000
01003e0000
0183ff0000
01ffc78000
00fc070000
0060060000
00000e0000
00000c0000
00000c0000
0000180000
0000180000
0000300000
0000300000
0000780000
0000ce0000
0001838000
000301c000
000600e000
000c007000
0038003800
00e0003c00
0380001c00
1e00000800
0000000000
0000000000
0000000000
0000000000
0000000000
0000000000
ENDCHAR
STARTCHAR abba
ENCODING 43962 
SWIDTH 230 0
DWIDTH 34 0
BBX 34 35 0 -1
BITMAP 
0000000000
0000000000
000000e000
0000003800
0000001c00
0000000e00
00000cc400
01003e7000
0183f73800
01ffc79c00
00fc070800
0060060000
00000e0000
00000c0000
00000c0000
0000180000
0000180000
0000300000
0000300000
0000780000
0000ce0000
0001838000
000301c000
000600e000
000c007000
0038003800
00e0003c00
0380001c00
1e00000800
0000000000
0000000000
0000000000
0000000000
0000000000
0000000000
ENDCHAR
STARTCHAR abbb
ENCODING 43963 
SWIDTH 230 0
DWIDTH 34 0
BBX 34 35 0 -1
BITMAP 
0000000000
0000000000
0000000000
0000000000
0000000000
000c000000
001e000000
0007000000
0007000000
0006000000
0006003000
000601f800
00060fdc00
00067e1800
0007f03800
100f803000
187e006000
1ff600c000
0fc6038000
06060e0000
0006000000
0006000000
0006000000
0006000000
0006000000
0006000000
0003001800
0003fffc00
0001fffc00
0000000000
0000000000
0000000000
0000000000
0000000000
0000000000
ENDCHAR
STARTCHAR abbc
ENCODING 43964 
SWIDTH 230 0
DWIDTH 34 0
BBX 34 35 0 -1
BITMAP 
0000000000
0000000000
0000000000
000000e000
0000003800
000c071c00
001e01ce00
000700e400
0007007000
0006002000
0006000000
0006003000
000603f800
00061fbc00
0006fc3800
1007e03000
187f007000
1ffe006000
0fc600c000
0606038000
00060e0000
0006000000
0006000000
0006000000
0006000000
0006000000
0003001800
0003fffc00
0000fffc00
0000000000
0000000000
0000000000
0000000000
0000000000
0000000000
ENDCHAR
STARTCHAR abbd
ENCODING 43965 
SWIDTH 230 0
DWIDTH 34 0
BBX 34 35 0 -1
BITMAP 
0000000000
0000000000
0000000000
0000000000
0000000000
0c0000e000
0600003000
0300003800
0380003800
0180003000
01c0003000
00c0007000
00e0006000
00e0006000
004000c000
000000c000
0000018000
0000018000
0000030000
0000030000
0000060000
0000060000
00000c0000
0000180000
0000300000
0000600000
0001c00000
0007000000
001c000000
00f0000000
0000000000
0000000000
0000000000
0000000000
0000000000
ENDCHAR
STARTCHAR abbe
ENCODING 43966 
SWIDTH 230 0
DWIDTH 34 0
BBX 34 35 0 -1
BITMAP 
0000000000
0000000000
000000e000
0000003800
0000001c00
00000c0e00
30001ec400
1800037000
0c0003b800
0e00039c00
0600030c00
0700070000
0700060000
0380060000
03800e0000
01000c0000
00000c0000
0000180000
0000180000
0000300000
0000300000
0000600000
0000600000
0000c00000
0001800000
0003000000
0006000000
001c000000
0070000000
01c0000000
0f00000000
0000000000
0000000000
0000000000
0000000000
ENDCHAR
STARTCHAR abbf
ENCODING 43967 
SWIDTH 230 0
DWIDTH 34 0
BBX 34 35 0 -1
BITMAP 
0000000000
0000000000
0000000000
0000000000
000c000000
001f018000
000707c000
00063fe000
000ffcf000
000fc0e000
001c00c000
001800c000
003801c000
003c018000
0067018000
00c1c30000
0380e30000
0600760000
00003e0000
00001e0000
00001e0000
00003e0000
0000370000
0000638000
0000c38000
0001810000
0003000000
000e000000
0038000000
00e0000000
0780000000
0000000000
0000000000
0000000000
0000000000
ENDCHAR
STARTCHAR abc0
ENCODING 43968 
SWIDTH 230 0
DWIDTH 34 0
BBX 34 35 0 -1
BITMAP 
0000000000
0000000000
000000e000
0000003800
0030001c00
007c040e00
001c0e0400
00187f6000
003ff3b800
003fc39c00
0070030e00
0060030400
00c0070000
00f0060000
019c060000
03060c0000
0e038c0000
1801d80000
0000f80000
0000700000
0000780000
0000f80000
0000dc0000
00018e0000
00030e0000
0006040000
000c000000
0038000000
00e0000000
0380000000
1e00000000
0000000000
0000000000
0000000000
0000000000
ENDCHAR
STARTCHAR abc1
ENCODING 43969 
SWIDTH 230 0
DWIDTH 34 0
BBX 34 35 0 -1
BITMAP 
0000000000
0000000000
0000000000
0000000000
00000c0000
00001e0000
00007f0000
0001f80000
0007e00000
001e300000
00f0380000
0000300000
0000301800
10003ffc00
1807fffe00
1ffff00c00
0ff8300000
0600300000
0000300000
0000300000
0000600000
0000600000
0000600000
0000600000
0000c00000
0000c00000
0001800000
0001800000
0003000000
000e000000
0038000000
0000000000
0000000000
0000000000
0000000000
ENDCHAR
STARTCHAR abc2
ENCODING 43970 
SWIDTH 230 0
DWIDTH 34 0
BBX 34 35 0 -1
BITMAP 
0000000000
0000000000
0000000000
000000e000
00000c3800
00001e1c00
00007e0e00
0001f8c400
0007e07000
001e303800
01f0381c00
0000300800
0000300000
10003ffc00
1807fffe00
1ffff00c00
0ff8300000
0600300000
0000300000
0000300000
0000600000
0000600000
0000600000
0000600000
0000c00000
0000c00000
0001800000
0001800000
0003000000
000e000000
0038000000
0000000000
0000000000
0000000000
0000000000
ENDCHAR
STARTCHAR abc3
ENCODING 43971 
SWIDTH 230 0
DWIDTH 34 0
BBX 34 35 0 -1
BITMAP 
0000000000
0000000000
0000000000
0000000000
0000000000
0000000000
0000000000
0000000000
0000000000
0000000000
0000000000
0000000000
0006018000
018303c000
00c380e000
00e1c0e000
0060e0c000
0070e0c000
0038c1c000
0038018000
0030018000
0000030000
0000030000
0000060000
0000060000
00000c0000
0000380000
0000e00000
0003800000
001e000000
0000000000
0000000000
0000000000
0000000000
0000000000
ENDCHAR
STARTCHAR abc4
ENCODING 43972 
SWIDTH 230 0
DWIDTH 34 0
BBX 34 35 0 -1
BITMAP 
0000000000
0000000000
0000000000
0000000000
0000000000
000c007000
0006001800
0003001c00
0c01801c00
0601c01800
0300c01800
0180e03800
01c0e03000
01c0403000
00e0006000
00e0006000
004000c000
000000c000
0000018000
0000018000
0000030000
0000060000
00000c0000
0000180000
0000300000
0000600000
0000c00000
0003800000
000e000000
0078000000
0000000000
0000000000
0000000000
0000000000
0000000000
ENDCHAR
STARTCHAR abc5
ENCODING 43973 
SWIDTH 230 0
DWIDTH 34 0
BBX 34 35 0 -1
BITMAP 
0000000000
0000000000
000000e000
0000003800
0000001c00
0000000e00
0030038400
001800e000
000c007000
300e033800
1807079000
0c0701c000
0e0381e000
070381e000
070101c000
0380018000
0380038000
0100030000
0000030000
0000060000
0000060000
00000c0000
0000180000
0000300000
0000600000
0000c00000
0001800000
0003000000
000e000000
0038000000
01e0000000
0000000000
0000000000
0000000000
0000000000
ENDCHAR
STARTCHAR abc6
ENCODING 43974 
SWIDTH 230 0
DWIDTH 34 0
BBX 34 35 0 -1
BITMAP 
0000000000
0000000000
0000000000
0000000000
0080018000
00c07fc000
00ffffe000
007f800000
0030000000
0000000000
0000003000
080007f800
0c01fffc00
0ffff81800
07fe300000
0300380000
0000380000
0000300000
0000300000
0000300000
0000600000
0000600000
0000600000
0000c00000
0000c00000
0000c00000
0001800000
0001800000
0003000000
000e000000
0038000000
0000000000
0000000000
0000000000
0000000000
ENDCHAR
STARTCHAR abc7
ENCODING 43975 
SWIDTH 230 0
DWIDTH 34 0
BBX 34 35 0 -1
BITMAP 
0000000000
0000000000
000000e000
0000003800
0000001c00
0100060e00
0180ff0400
01ffff6000
00ff003800
0060001c00
0000000800
0000006000
10000ff000
1803fff800
1ffff03000
0ffc600000
0600700000
0000700000
0000600000
0000600000
0000600000
0000c00000
0000c00000
0000c00000
0001800000
0001800000
0001800000
0003000000
0003000000
0006000000
001c000000
0070000000
0000000000
0000000000
0000000000
ENDCHAR
STARTCHAR abc8
ENCODING 43976 
SWIDTH 230 0
DWIDTH 34 0
BBX 34 35 0 -1
BITMAP 
0000000000
0000000000
0000000000
0000000000
000c000000
001e000000
0007000000
0007000000
0006000000
0006000000
0006000000
0006000000
0006000000
0007800000
0006e00000
0006380000
00061c0000
00060e0000
0006070000
0006038000
0006010000
0006000000
0006000000
0006000000
0006000000
0006000000
0006000000
0006000000
000e000000
000e000000
0004000000
0000000000
0000000000
0000000000
0000000000
ENDCHAR
STARTCHAR abc9
ENCODING 43977 
SWIDTH 230 0
DWIDTH 34 0
BBX 34 35 0 -1
BITMAP 
0000000000
0000000000
0000000000
0000000000
000c000000
001e038000
000700e000
0007007000
0006003800
00061c1000
0006070000
0006038000
000601c000
0007808000
0006e00000
0006380000
00061c0000
00060e0000
0006070000
0006038000
0006010000
0006000000
0006000000
0006000000
0006000000
0006000000
0006000000
0006000000
000e000000
000e000000
0004000000
0000000000
0000000000
0000000000
0000000000
ENDCHAR
STARTCHAR abca
ENCODING 43978 
SWIDTH 230 0
DWIDTH 34 0
BBX 34 35 0 -1
BITMAP 
0000000000
0000000000
0000000000
0000000000
0000600000
0001f00000
0000380000
0000380000
0000300000
0000300000
0000300000
0000300000
0000303800
101ffffc00
1ffffffe00
1fe0300c00
0600300000
0000300000
0000700000
0000600000
0000600000
0000c00000
0000c00000
0000c00000
0001800000
0001800000
0003000000
0003000000
0006000000
001c000000
0070000000
0000000000
0000000000
0000000000
0000000000
ENDCHAR
STARTCHAR abcb
ENCODING 43979 
SWIDTH 230 0
DWIDTH 34 0
BBX 34 35 0 -1
BITMAP 
0000000000
0000000000
0000000000
0000000000
0000000000
0000000000
0000000000
0000000000
01000e0000
0181ff8000
01ffffc000
00fe018000
0060000000
0000000000
0000000000
0000000000
0000000000
0000000000
0000000000
0000000000
0000003000
10003ffc00
180ffffe00
1fffc00c00
0ff0000000
0600000000
0000000000
0000000000
0000000000
0000000000
0000000000
0000000000
0000000000
0000000000
0000000000
ENDCHAR
STARTCHAR abcc
ENCODING 43980 
SWIDTH 230 0
DWIDTH 34 0
BBX 34 35 0 -1
BITMAP 
0000000000
0000000000
0000000000
0000000000
0000018000
00000fc000
0020ffe000
003ff0f000
001f00e000
000c00c000
000001c000
0000018000
0000018000
0070030000
001c030000
0007060000
0001860000
0000ec0000
0000780000
00003c0000
00006e0000
0000c70000
0001838000
0003038000
0006038000
000c010000
0038000000
00e0000000
0380000000
0e00000000
0000000000
0000000000
0000000000
0000000000
0000000000
ENDCHAR
STARTCHAR abcd
ENCODING 43981 
SWIDTH 230 0
DWIDTH 34 0
BBX 34 35 0 -1
BITMAP 
0000000000
0000000000
0000000000
0000000000
000f000000
0003f00000
0000780000
0000180000
0000030000
0200ff8000
030fffc000
01ff038000
01f0070000
00c00e0000
00001c0000
0000300000
0000700000
0000f80000
0001ee0000
0003638000
000e60e000
0038607800
00e0603c00
0780601c00
1c00600800
0000600000
0000600000
0000600000
0000e00000
0000e00000
0000400000
0000000000
0000000000
0000000000
0000000000
ENDCHAR
STARTCHAR abce
ENCODING 43982 
SWIDTH 230 0
DWIDTH 34 0
BBX 34 35 0 -1
BITMAP 
0000000000
0000000000
0000000000
0000000000
0000000000
0000030000
000007c000
000000e000
000000e000
000000c000
000000c000
000001c000
0000018000
0000018000
0000030000
0000030000
0000060000
0000060000
00000c0000
00000c0000
0000180000
0000300000
0000600000
0000c00000
0001800000
0006000000
001c000000
0070000000
01c0000000
0f00000000
0000000000
0000000000
0000000000
0000000000
0000000000
ENDCHAR
STARTCHAR abcf
ENCODING 43983 
SWIDTH 230 0
DWIDTH 34 0
BBX 34 35 0 -1
BITMAP 
0000000000
0000000000
0000000000
0000000000
0000000000
0000000000
0000000000
0038300000
001c180000
000e0c0000
000e060000
000c060000
000c030000
001c018000
001800c000
001800c000
0038006000
0030007000
0030003000
0060003800
0060001800
00c0001c00
0180000c00
0300000e00
0600000e00
1c00000400
0000000000
0000000000
0000000000
0000000000
0000000000
0000000000
0000000000
0000000000
0000000000
ENDCHAR
STARTCHAR abd0
ENCODING 43984 
SWIDTH 230 0
DWIDTH 34 0
BBX 34 35 0 -1
BITMAP 
0000000000
0000000000
0000000000
000000e000
0000003800
0000001c00
0000038e00
003830e400
001c187000
000e0c3800
000e061000
000c060000
000c030000
001c018000
001800c000
001800c000
0038006000
0030007000
0030003000
0060003800
00e0001800
00c0001c00
0180000c00
0300000e00
0600000e00
1c00000400
0000000000
0000000000
0000000000
0000000000
0000000000
0000000000
0000000000
0000000000
0000000000
ENDCHAR
STARTCHAR abd1
ENCODING 43985 
SWIDTH 230 0
DWIDTH 34 0
BBX 34 35 0 -1
BITMAP 
0000000000
0000000000
0000000000
0000000000
0000003800
0000006c00
0000008200
0038308200
001c188200
000c0c6c00
000e063800
000e060000
000c030000
001c018000
001800c000
001800c000
0038006000
0030007000
0030003000
0060003800
0060001800
00c0001c00
0180000c00
0300000e00
0600000e00
1c00000400
0000000000
0000000000
0000000000
0000000000
0000000000
0000000000
0000000000
0000000000
0000000000
ENDCHAR
STARTCHAR abd2
ENCODING 43986 
SWIDTH 230 0
DWIDTH 34 0
BBX 34 35 0 -1
BITMAP 
0000000000
0000000000
0000000000
0000000000
0000000000
00c0000000
01e0000000
0070000000
0070000000
0060000000
0060000000
0060000000
0060018000
006007c000
00603fe000
0063fc0000
007fc00000
0060000000
0060000000
0060000000
0060000000
0060000000
0060000000
0060000000
0060000000
0060000000
0030000000
003000e000
001ffff000
000fffe000
0000000000
0000000000
0000000000
0000000000
0000000000
ENDCHAR
STARTCHAR abd3
ENCODING 43987 
SWIDTH 230 0
DWIDTH 34 0
BBX 34 35 0 -1
BITMAP 
0000000000
0000000000
0000000000
0000000000
000001c000
0180007000
03c0003800
00e0071c00
00e001c800
00c000e000
00c0007000
00c0002000
00c0030000
00c00f8000
00c07fc000
00c7f80000
00ff800000
00c0000000
00c0000000
00c0000000
00c0000000
00c0000000
00c0000000
00c0000000
00c0000000
00c0000000
0060000000
006001c000
003fffe000
001fffc000
0000000000
0000000000
0000000000
0000000000
0000000000
ENDCHAR
STARTCHAR abd4
ENCODING 43988 
SWIDTH 230 0
DWIDTH 34 0
BBX 34 35 0 -1
BITMAP 
0000000000
0000000000
0000000000
0000000000
000000e000
018001b000
03c0020800
00e0020800
00e0020800
00c001b000
00c000e000
00c0000000
00c0030000
00c00f8000
00c07fc000
00c7f80000
00ff800000
00c0000000
00c0000000
00c0000000
00c0000000
00c0000000
00c0000000
00c0000000
00c0000000
00c0000000
0060000000
006001c000
003fffe000
001fffc000
0000000000
0000000000
0000000000
0000000000
0000000000
ENDCHAR
STARTCHAR abd5
ENCODING 43989 
SWIDTH 230 0
DWIDTH 34 0
BBX 34 35 0 -1
BITMAP 
0000000000
0000000000
0000000000
0000000000
0000006000
04000ff000
0607fff800
07fff03800
03f8003000
0180003000
0000007000
0000006000
0000006000
000000e000
000000c000
000001c000
0000018000
0000038000
0000030000
0000030000
0000060000
0000060000
00000c0000
0000180000
0000300000
0000600000
0000c00000
0003800000
000e000000
0038000000
0000000000
0000000000
0000000000
0000000000
0000000000
ENDCHAR
STARTCHAR abd6
ENCODING 43990 
SWIDTH 230 0
DWIDTH 34 0
BBX 34 35 0 -1
BITMAP 
0000000000
0000000000
0000000000
0000007000
0000001c00
0000030e00
10007f8400
181fffc000
1fff81f800
0fe0019c00
0600018e00
0000038400
0000030000
0000030000
0000070000
0000060000
00000e0000
00000c0000
00000c0000
0000180000
0000180000
0000300000
0000300000
0000600000
0000c00000
0001800000
0003000000
0006000000
001c000000
0070000000
01c0000000
0000000000
0000000000
0000000000
0000000000
ENDCHAR
STARTCHAR abd7
ENCODING 43991 
SWIDTH 230 0
DWIDTH 34 0
BBX 34 35 0 -1
BITMAP 
0000000000
0000000000
0000000000
0000003800
0000006c00
0000038200
10007f8200
181fff8200
1fff81ec00
0fe001b800
0600018000
0000038000
0000030000
0000030000
0000070000
0000060000
00000e0000
00000c0000
00001c0000
0000180000
0000180000
0000300000
0000300000
0000600000
0000c00000
0001800000
0003000000
0006000000
001c000000
0070000000
01c0000000
0000000000
0000000000
0000000000
0000000000
ENDCHAR
STARTCHAR abd8
ENCODING 43992 
SWIDTH 230 0
DWIDTH 34 0
BBX 34 35 0 -1
BITMAP 
0000000000
0000000000
0000000000
0000000000
0000000000
0000000000
0000000000
0000000000
0004000000
000e000000
001b000000
0019800000
0031c00000
0070e00000
00e0700000
01c0700000
13c0380000
1f801c0000
1f000e0000
0c00070000
0000038000
000001c000
000000e000
0000007800
0000003c00
0000001c00
0000000800
0000000000
0000000000
0000000000
0000000000
0000000000
0000000000
0000000000
0000000000
ENDCHAR
STARTCHAR abd9
ENCODING 43993 
SWIDTH 230 0
DWIDTH 34 0
BBX 34 35 0 -1
BITMAP 
0000000000
0000000000
0000000000
0000000000
0000000000
0000038000
000000e000
00001c7000
0004073800
000e039000
001b01c000
0019808000
0031c00000
0070e00000
00e0700000
01c0700000
13c0380000
1f801c0000
1f000e0000
0c00070000
0000038000
000001c000
000000e000
0000007800
0000003c00
0000001c00
0000000800
0000000000
0000000000
0000000000
0000000000
0000000000
0000000000
0000000000
0000000000
ENDCHAR
STARTCHAR abda
ENCODING 43994 
SWIDTH 230 0
DWIDTH 34 0
BBX 34 35 0 -1
BITMAP 
0000000000
0000000000
0000000000
0000000000
0000000000
0000038000
000006c000
0000082000
0004082000
000e082000
001b06c000
0019838000
0031c00000
0070e00000
00e0700000
01c0700000
13c0380000
1f801c0000
1f000e0000
0c00070000
0000038000
000001c000
000000e000
0000007800
0000003c00
0000001c00
0000000800
0000000000
0000000000
0000000000
0000000000
0000000000
0000000000
0000000000
0000000000
ENDCHAR
STARTCHAR abdb
ENCODING 43995 
SWIDTH 230 0
DWIDTH 34 0
BBX 34 35 0 -1
BITMAP 
0000000000
0000000000
0000000000
0000000000
0001800000
0007c00000
0000e00000
0000e00000
0000c00000
0000c00000
0000c07000
0407fff800
07fffff800
03f8c01000
0180c00000
0000c00000
0000c00000
01c0c30000
0060c18000
0070c0c000
00e0c06000
00c0c07000
00c0c03000
0180c03800
0180c01800
0300c01c00
0618c00e00
0c0cc00e00
1807c00400
0003c00000
0001800000
0000000000
0000000000
0000000000
0000000000
ENDCHAR
STARTCHAR abdc
ENCODING 43996 
SWIDTH 230 0
DWIDTH 34 0
BBX 34 35 0 -1
BITMAP 
0000000000
0000000000
0000000000
000000e000
00018e3800
0007c39c00
0000e1ce00
0000e0e400
0000c04000
0000c00000
0000c07000
0407fff800
07fffff800
03f8c01000
0180c00000
0000c00000
0000c00000
01c0c30000
0060c18000
0070c0c000
00e0c06000
00c0c07000
00c0c07000
0180c03800
0180c01c00
0300c01c00
0618c00e00
0c0cc00e00
3807c00400
0003c00000
0001800000
0000000000
0000000000
0000000000
0000000000
ENDCHAR
STARTCHAR abdd
ENCODING 43997 
SWIDTH 230 0
DWIDTH 34 0
BBX 34 35 0 -1
BITMAP 
0000000000
0000000000
0000000000
0000003800
0001806c00
0007c08200
0000e08200
0000e08200
0000c06c00
0000c03800
0000c07000
0407fff800
07fffff800
03f8c01000
0180c00000
0000c00000
0000c00000
01c0c30000
0060c18000
0070c0c000
00e0c06000
00c0c07000
00c0c07000
0180c03800
0180c01c00
0300c01c00
0318c00e00
060cc00e00
1c07c00400
0003c00000
0001800000
0000000000
0000000000
0000000000
0000000000
ENDCHAR
STARTCHAR abde
ENCODING 43998 
SWIDTH 230 0
DWIDTH 34 0
BBX 34 35 0 -1
BITMAP 
0000000000
0000000000
0000000000
0000000000
0000000000
0000000000
0000000000
0000001800
100007fc00
1803fffe00
1ffff81e00
0ffc001c00
0600003800
0000003000
0000006000
0000006000
000000c000
001c018000
0006030000
0003060000
00019c0000
0000f00000
0000600000
0000700000
0000300000
0000380000
00001c0000
00001c0000
0000080000
0000000000
0000000000
0000000000
0000000000
0000000000
0000000000
ENDCHAR
STARTCHAR abdf
ENCODING 43999 
SWIDTH 230 0
DWIDTH 34 0
BBX 34 35 0 -1
BITMAP 
0000000000
0000000000
0000000000
0000000000
00fc000000
000fc00000
0001f00000
00003c0000
00000e0000
0000070000
0000020000
0000000000
0000000000
00fe000000
0007e00000
0000f80000
00001e0000
0000070000
0000038000
0000010000
0000000000
03e0000000
003e000000
0007c00000
0000f80000
00003e0000
0000078000
000001c000
000000e000
0000004000
0000000000
0000000000
0000000000
0000000000
0000000000
ENDCHAR
STARTCHAR abe0
ENCODING 44000 
SWIDTH 230 0
DWIDTH 34 0
BBX 34 35 0 -1
BITMAP 
0000000000
0000000000
0000000000
0000000000
0001800000
0007c00000
0000e00000
0000f00000
0000e00000
0000c00000
0001c00000
0001800000
0001800000
0003800000
0003000000
0006030000
0006018000
000c00c000
000c006000
0018006000
0018003000
0030003800
006001f800
00c00ffc00
1183fe0c00
1ffff00c00
0ffc000e00
0600000e00
0000000400
0000000000
0000000000
0000000000
0000000000
0000000000
0000000000
ENDCHAR
STARTCHAR abe1
ENCODING 44001 
SWIDTH 230 0
DWIDTH 34 0
BBX 34 35 0 -1
BITMAP 
0000000000
0000000000
0000000000
0000000000
000000c000
000003e000
0000007000
0000007800
0000007000
000000e000
001c00c000
000601c000
0003018000
0001838000
0000c30000
0000670000
0000660000
00003c0000
0000380000
0000380000
00003c0000
00006e0000
0000c60000
0001870000
0003038000
0006038000
001c010000
0070000000
01c0000000
0e00000000
0000000000
0000000000
0000000000
0000000000
0000000000
ENDCHAR
STARTCHAR abe2
ENCODING 44002 
SWIDTH 230 0
DWIDTH 34 0
BBX 34 35 0 -1
BITMAP 
0000000000
0000000000
0000000000
0000000000
000000c000
00000fe000
0107ffe000
01fff00000
00fe000000
0063000000
0003800000
0003800000
0003000000
0003000000
0003001800
00030ffc00
100ffffe00
1ffff80c00
0ff3000000
0603000000
0003000000
0003000000
0003000000
0003000000
0003000000
0003000000
0003000000
0001803000
0001fff800
00007ff800
0000000000
0000000000
0000000000
0000000000
0000000000
ENDCHAR
STARTCHAR abe3
ENCODING 44003 
SWIDTH 230 0
DWIDTH 34 0
BBX 34 35 0 -1
BITMAP 
0000000000
0000000000
0000000000
0000000000
0000000000
0000000000
0000000000
0000000000
0000000000
0000000000
0006000000
000f000000
0007000000
000700c000
000303e000
00031ff000
00037c7000
0003e06000
021f80c000
03fd838000
01e18e0000
0081800000
0001800000
0001800000
0000c00000
0000c00000
0000c00000
0000c00000
0000e00000
0000e00000
0000400000
0000000000
0000000000
0000000000
0000000000
ENDCHAR
STARTCHAR abe4
ENCODING 44004 
SWIDTH 230 0
DWIDTH 34 0
BBX 34 35 0 -1
BITMAP 
0000000000
0000000000
0000000000
0000000000
0030000000
007c000000
001e000000
000e000000
000c001800
000c00fc00
000e07fe00
00063f0e00
0007f81c00
100fc01800
18ff001800
0ff3003000
0f83006000
060300c000
0003018000
0003030000
0003000000
0001800000
0001800000
0001800000
0001800000
0000c00000
0000c00000
0000c00000
0000e00000
0000e00000
0000400000
0000000000
0000000000
0000000000
0000000000
ENDCHAR
STARTCHAR abe5
ENCODING 44005 
SWIDTH 230 0
DWIDTH 34 0
BBX 34 35 0 -1
BITMAP 
0000000000
0000000000
0000000000
0000000000
0000000000
0000000000
0000000000
0000000000
0000000000
0000000000
0000000000
0000000000
0000080000
0041fc0000
007fee0000
003e0e0000
00100c0000
00000c0000
00000c0000
00000c0000
0000180000
0000180000
0000180000
000018c000
00001fe000
0203fff000
03fff80000
01fc000000
00c0000000
0000000000
0000000000
0000000000
0000000000
0000000000
0000000000
ENDCHAR
STARTCHAR abe6
ENCODING 44006 
SWIDTH 230 0
DWIDTH 34 0
BBX 34 35 0 -1
BITMAP 
0000000000
0000000000
0000000000
0000000000
0000000000
0000000000
0000000000
0000080000
0103fc0000
01fffe0000
00fc0f0000
00600e0000
00000c0000
00000c0000
00000c0000
00001c0000
0000180000
0000180000
0000180000
0000180000
0000380000
0000300000
0000300000
0000303800
10007ffc00
180ffffe00
0fff800c00
0ff0000000
0600000000
0000000000
0000000000
0000000000
0000000000
0000000000
0000000000
ENDCHAR
STARTCHAR abe7
ENCODING 44007 
SWIDTH 230 0
DWIDTH 34 0
BBX 34 35 0 -1
BITMAP 
0000000000
0000000000
0000000000
0000000000
0000000000
0000000000
0000000000
0000000000
0000000000
0000000000
0000000000
0000000000
0000060000
0040ff0000
003ff38000
001f030000
0008030000
0000030000
0000030000
0020fe0000
003fe60000
001f060000
0008060000
00000c0000
00000c0000
00000c0000
00407e0000
007fff0000
003f800000
0018000000
0000000000
0000000000
0000000000
0000000000
0000000000
ENDCHAR
STARTCHAR abe8
ENCODING 44008 
SWIDTH 230 0
DWIDTH 34 0
BBX 34 35 0 -1
BITMAP 
0000000000
0000000000
0000000000
0000000000
0000000000
0000000000
000000c000
02007fe000
03fffff000
01ff807800
00c0007000
0000006000
0000006000
0000006000
0000006000
01007fe000
01ffffc000
00ff80c000
006000c000
000000c000
000000c000
0000018000
0000018000
0000018000
0000018000
0201ffc000
03ffffe000
01fe000000
00c0000000
0000000000
0000000000
0000000000
0000000000
0000000000
0000000000
ENDCHAR
STARTCHAR abe9
ENCODING 44009 
SWIDTH 230 0
DWIDTH 34 0
BBX 34 35 0 -1
BITMAP 
0000000000
0000000000
0000000000
0000000000
0080038000
00ffffc000
007fffe000
0030000000
0000000000
0000006000
00001ff000
040ffff800
07ffe07c00
07f0007800
0180007000
0000007000
000000e000
000000e000
000000c000
000000c000
0000018000
0000018000
0000030000
0000060000
00000c0000
0000180000
0000300000
0000e00000
0003800000
001e000000
00f0000000
0000000000
0000000000
0000000000
0000000000
ENDCHAR
STARTCHAR abea
ENCODING 44010 
SWIDTH 230 0
DWIDTH 34 0
BBX 34 35 0 -1
BITMAP 
0000000000
0000000000
0000000000
0000000000
0000060000
00780f0000
001c038000
001c038000
0018030000
0018030000
0018030000
0018030000
0018030000
0018030000
0018030000
0018030000
0018030000
0018070000
0018060000
0038060000
0038060000
00100e0000
00000c0000
00000c0000
0000180000
0000180000
0000300000
0000300000
0000600000
0001c00000
0007000000
0000000000
0000000000
0000000000
0000000000
ENDCHAR
STARTCHAR abeb
ENCODING 44011 
SWIDTH 230 0
DWIDTH 34 0
BBX 34 35 0 -1
BITMAP 
0000000000
0000000000
0000000000
0000000000
0000000000
0001800000
0003c00000
00c0e00000
01e0e00000
0060c00000
0070c00000
0070c00000
0060c00000
0060c00000
0060c00200
0060c00200
00c0c00600
00c0c00600
00c0c00c00
00c0c00c00
0180c01800
0180c01800
0180c03000
0300c06000
0300c0e000
0600c1c000
0601c78000
0c00fe0000
1800780000
0000200000
0000000000
0000000000
0000000000
0000000000
0000000000
ENDCHAR
STARTCHAR abec
ENCODING 44012 
SWIDTH 230 0
DWIDTH 34 0
BBX 34 35 0 -1
BITMAP 
0000000000
0000000000
0000000000
0000000000
0000000000
0180000000
03c0000000
00e0000000
00e0000000
00c0000000
00c0000000
00c0001000
00c0001000
00c0003000
00c0002000
00c0006000
00c0004000
00c000c000
00c0018000
00c0018000
00c0030000
00c0060000
00c00c0000
00c0180000
00c0700000
00c1e00000
01c7800000
00fe000000
007c000000
0020000000
0000000000
0000000000
0000000000
0000000000
0000000000
ENDCHAR
STARTCHAR abed
ENCODING 44013 
SWIDTH 230 0
DWIDTH 34 0
BBX 34 35 0 -1
BITMAP 
0000000000
0000000000
0000000000
0000000000
0000000000
0000000000
0000000000
000000c000
0300ffe000
07fffff000
01ff007800
0180007000
0180006000
0180006000
0180006000
0180006000
0180006000
0180006000
0180006000
00c000e000
00c000c000
00c000c000
00c000c000
00c000c000
00c03fe000
00fffff000
00ffc02000
00c0000000
0000000000
0000000000
0000000000
0000000000
0000000000
0000000000
0000000000
ENDCHAR
STARTCHAR abee
ENCODING 44014 
SWIDTH 230 0
DWIDTH 34 0
BBX 34 35 0 -1
BITMAP 
0000000000
0000000000
0000000000
0000000000
0000000000
0000000000
0000000000
0000000000
0000000000
0000000000
0000000000
0000030000
01c0ff8000
00fff9c000
007f01c000
0060018000
0060018000
0060018000
0060038000
0060030000
0070030000
0020060000
0000060000
0000060000
00000c0000
00000c0000
0000180000
0000300000
0000e00000
0001c00000
0007000000
0000000000
0000000000
0000000000
0000000000
ENDCHAR
STARTCHAR abef
ENCODING 44015 
SWIDTH 230 0
DWIDTH 34 0
BBX 34 35 0 -1
BITMAP 
0000000000
0000000000
0000000000
0000000000
0000006000
04000ff000
0e01fff800
07fff03c00
07fe003800
0600003000
0600003000
0600007000
0700006000
0300006000
0300006000
030000e000
038000c000
038000c000
010001c000
0000018000
0000018000
0000030000
0000030000
0000060000
00000c0000
0000180000
0000300000
0000e00000
0003800000
001e000000
0000000000
0000000000
0000000000
0000000000
0000000000
ENDCHAR
STARTCHAR abf0
ENCODING 44016 
SWIDTH 230 0
DWIDTH 34 0
BBX 34 35 0 -1
BITMAP 
0000000000
0000000000
0000000000
0000000000
0000380000
00007c0000
00001c0000
0000180000
000018e000
0101fff000
01fffff000
00fe180000
0010180000
0018180000
0018180000
0018180000
0018180000
0018181800
00187ffc00
101ffffe00
1fff980c00
0ff0180000
0600180000
0000180000
0000180000
0000180000
0000180000
0000180000
0000380000
0000380000
0000180000
0000000000
0000000000
0000000000
0000000000
ENDCHAR
STARTCHAR abf1
ENCODING 44017 
SWIDTH 230 0
DWIDTH 34 0
BBX 34 35 0 -1
BITMAP 
0000000000
0000000000
0000000000
0000000000
0000000000
0000000000
0000030000
0200ff8000
03ffffc000
01ff01c000
00c001c000
0000038000
0000030000
0001860000
0003cc0000
0000f80000
0000e00000
0000c00000
0000c00000
0000c00000
0000c00000
0000c00000
0000c00000
0000c01c00
1000fffe00
180ffffe00
0fff000c00
0ff0000000
0600000000
0000000000
0000000000
0000000000
0000000000
0000000000
0000000000
ENDCHAR
STARTCHAR abf2
ENCODING 44018 
SWIDTH 230 0
DWIDTH 34 0
BBX 34 35 0 -1
BITMAP 
0000000000
0000000000
0000000000
0000000000
0000006000
02007ff000
03fffc7800
01ff807000
00e0006000
0000006000
000000e000
000000c000
000000c000
0201ffc000
03fff18000
01fe018000
00e0018000
0000030000
0000030000
0000030000
0000060000
0000060000
00000c0000
00000c0000
0000180000
0000300000
0000e00000
0003800000
000e000000
0078000000
0000000000
0000000000
0000000000
0000000000
0000000000
ENDCHAR
STARTCHAR abf3
ENCODING 44019 
SWIDTH 230 0
DWIDTH 34 0
BBX 34 35 0 -1
BITMAP 
0000000000
0000000000
0000000000
0000000000
0000000000
0000000000
0000000000
0700000000
01c0000000
0070000800
0038000800
001c000800
000e000800
0004001800
0000001000
0000003000
0000002000
0000006000
0000004000
000000c000
0000018000
0000030000
00000e0000
04001c0000
0600780000
0301e00000
0307c00000
01ff000000
01fc000000
00c0000000
0000000000
0000000000
0000000000
0000000000
0000000000
ENDCHAR
STARTCHAR abf4
ENCODING 44020 
SWIDTH 230 0
DWIDTH 34 0
BBX 34 35 0 -1
BITMAP 
0000000000
0000000000
000000e000
0000003800
0006001c00
000f800e00
0003800400
0003003000
0003019800
00031fdc00
0c0ffcee00
07ffe0f400
07f000e000
060000c000
060000c000
070001c000
0300018000
0300018000
0380038000
0380030000
0100030000
0000060000
0000060000
00000c0000
00000c0000
0000180000
0000300000
0000600000
0001c00000
0007000000
001c000000
0000000000
0000000000
0000000000
0000000000
ENDCHAR
STARTCHAR abf5
ENCODING 44021 
SWIDTH 230 0
DWIDTH 34 0
BBX 34 35 0 -1
BITMAP 
0000000000
0000000000
0000000000
0000000000
0000000000
0000000000
0000000000
0000000000
0000000000
0000000000
0000c00000
0001e00000
0000700000
0000700000
000060c000
00807fe000
00fffe7000
00ffe07000
0060c06000
0000c06000
0000c06000
0000c06000
000180e000
000180c000
000300c000
000300c000
000620c000
000c318000
0018198000
00300f0000
00e0060000
0000000000
0000000000
0000000000
0000000000
ENDCHAR
STARTCHAR abf6
ENCODING 44022 
SWIDTH 230 0
DWIDTH 34 0
BBX 34 35 0 -1
BITMAP 
0000000000
0000000000
0000000000
0000000000
0000000000
0000000000
0000000000
0000000000
0000000000
0000000000
000c000000
001e000000
0007000000
0006000000
000c000000
000c006000
001807f000
001ffff000
0037f80000
0060100000
00c01c0000
0180180000
0300180000
0000180000
0000300000
0000300000
0000600000
0000600000
0000c00000
0001800000
0007000000
0000000000
0000000000
0000000000
0000000000
ENDCHAR
STARTCHAR a5a1
ENCODING 42401 
SWIDTH 230 0
DWIDTH 34 0
BBX 34 35 0 -1
BITMAP 
0000000000
0000000000
0000000000
0000000000
0000000000
0000c00000
0001e00000
0001e00000
0000c00000
0000000000
0000000000
0003c00000
0000c00000
0000c00000
0000c00000
0000c00000
0000c00000
0000c00000
0000c00000
0000c00000
0000c00000
0000c00000
0000c00000
0000c00000
0000c00000
0000c00000
0000c00000
0003f00000
0000000000
0000000000
0000000000
0000000000
0000000000
0000000000
0000000000
ENDCHAR
STARTCHAR a5a2
ENCODING 42402 
SWIDTH 230 0
DWIDTH 34 0
BBX 34 35 0 -1
BITMAP 
0000000000
0000000000
0000000000
0000000000
0000000000
00180c0000
003c1e0000
003c1e0000
00180c0000
0000000000
0000000000
00783c0000
00180c0000
00180c0000
00180c0000
00180c0000
00180c0000
00180c0000
00180c0000
00180c0000
00180c0000
00180c0000
00180c0000
00180c0000
00180c0000
00180c0000
00180c0000
007e3f0000
0000000000
0000000000
0000000000
0000000000
0000000000
0000000000
0000000000
ENDCHAR
STARTCHAR a5a3
ENCODING 42403 
SWIDTH 230 0
DWIDTH 34 0
BBX 34 35 0 -1
BITMAP 
0000000000
0000000000
0000000000
0000000000
0000000000
0300c03000
0781e07800
0781e07800
0300c03000
0000000000
0000000000
0f03c0f000
0300c03000
0300c03000
0300c03000
0300c03000
0300c03000
0300c03000
0300c03000
0300c03000
0300c03000
0300c03000
0300c03000
0300c03000
0300c03000
0300c03000
0300c03000
0fc3f0fc00
0000000000
0000000000
0000000000
0000000000
0000000000
0000000000
0000000000
ENDCHAR
STARTCHAR a5a4
ENCODING 42404 
SWIDTH 230 0
DWIDTH 34 0
BBX 34 35 0 -1
BITMAP 
0000000000
0000000000
0000000000
0000000000
0000000000
0300000000
0780000000
0780000000
0300000000
0000000000
0000000000
078fe0fc00
0183001000
0183001000
0183003000
0181802000
0181806000
0181804000
0180c04000
0180c0c000
0180608000
0180618000
0180610000
0180330000
0180320000
0180360000
01801c0000
07e01c0000
0000080000
0000000000
0000000000
0000000000
0000000000
0000000000
0000000000
ENDCHAR
STARTCHAR a5a5
ENCODING 42405 
SWIDTH 230 0
DWIDTH 34 0
BBX 34 35 0 -1
BITMAP 
0000000000
0000000000
0000000000
0000000000
0000000000
0000000000
0000000000
0000000000
0000000000
0000000000
0000000000
01fe0fc000
0030010000
0030010000
0030030000
0018020000
0018060000
0018040000
000c040000
000c0c0000
0006080000
0006180000
0006100000
0003300000
0003200000
0003600000
0001c00000
0001c00000
0000800000
0000000000
0000000000
0000000000
0000000000
0000000000
0000000000
ENDCHAR
STARTCHAR a5a6
ENCODING 42406 
SWIDTH 230 0
DWIDTH 34 0
BBX 34 35 0 -1
BITMAP 
0000000000
0000000000
0000000000
0000000000
0000000000
0000003000
0000007800
0000007800
0000003000
0000000000
0000000000
0fe0fcf000
0300103000
0300103000
0300303000
0180203000
0180603000
0180403000
00c0403000
00c0c03000
0060803000
0061803000
0061003000
0033003000
0032003000
0036003000
001c003000
001c00fc00
0008000000
0000000000
0000000000
0000000000
0000000000
0000000000
0000000000
ENDCHAR
STARTCHAR a5a7
ENCODING 42407 
SWIDTH 230 0
DWIDTH 34 0
BBX 34 35 0 -1
BITMAP 
0000000000
0000000000
0000000000
0000000000
0000000000
0000081000
00001c3800
00001c3800
0000081000
0000000000
0000000000
1f87dc3800
06010c1800
06010c1800
06010c1800
03030c1800
03020c1800
03020c1800
03020c1800
01860c1800
01840c1800
01840c1800
00cc0c1800
00c80c1800
00c80c1800
00d80c1800
00700c1800
00703f7e00
0020000000
0000000000
0000000000
0000000000
0000000000
0000000000
0000000000
ENDCHAR
STARTCHAR a5a8
ENCODING 42408 
SWIDTH 230 0
DWIDTH 34 0
BBX 34 35 0 -1
BITMAP 
0000000000
0000000000
0000000000
0000000000
0000000000
0000210800
0000739c00
0000739c00
0000210800
0000000000
0000000000
1f8ef79c00
0604318c00
0604318c00
0604318c00
0604318c00
030c318c00
0308318c00
0308318c00
0308318c00
0318318c00
0190318c00
0190318c00
0190318c00
01b0318c00
00e0318c00
00e0318c00
00e1fbdf00
0040000000
0000000000
0000000000
0000000000
0000000000
0000000000
0000000000
ENDCHAR
STARTCHAR a5a9
ENCODING 42409 
SWIDTH 230 0
DWIDTH 34 0
BBX 34 35 0 -1
BITMAP 
0000000000
0000000000
0000000000
0000000000
0000000000
0300000000
0780000000
0780000000
0300000000
0000000000
0000000000
0f0ff0fc00
0301c03000
0300e06000
030070c000
0300718000
03003b0000
03001e0000
03000e0000
03000e0000
03001f0000
0300338000
030061c000
0300c1c000
030180e000
0303007000
0306003800
0fdf80fe00
0000000000
0000000000
0000000000
0000000000
0000000000
0000000000
0000000000
ENDCHAR
STARTCHAR a5aa
ENCODING 42410 
SWIDTH 230 0
DWIDTH 34 0
BBX 34 35 0 -1
BITMAP 
0000000000
0000000000
0000000000
0000000000
0000000000
0000000000
0000000000
0000000000
0000000000
0000000000
0000000000
00fe0fc000
0038030000
001c060000
000e0c0000
000e180000
0007300000
0003e00000
0001c00000
0000e00000
0001f00000
0003380000
00061c0000
000c1c0000
00180e0000
0030070000
0060038000
03f80fe000
0000000000
0000000000
0000000000
0000000000
0000000000
0000000000
0000000000
ENDCHAR
STARTCHAR a5b0
ENCODING 42416 
SWIDTH 230 0
DWIDTH 34 0
BBX 34 35 0 -1
BITMAP 
0000000000
0000000000
0000000000
0000000000
0000000000
0000000000
000ff80000
0001c00000
0001c00000
0001c00000
0001c00000
0001c00000
0001c00000
0001c00000
0001c00000
0001c00000
0001c00000
0001c00000
0001c00000
0001c00000
0001c00000
0001c00000
0001c00000
0001c00000
0001c00000
0001c00000
0001c00000
000ff80000
0000000000
0000000000
0000000000
0000000000
0000000000
0000000000
0000000000
ENDCHAR
STARTCHAR a5b1
ENCODING 42417 
SWIDTH 230 0
DWIDTH 34 0
BBX 34 35 0 -1
BITMAP 
0000000000
0000000000
0000000000
0000000000
0000000000
0000000000
00fe1fc000
0038070000
0038070000
0038070000
0038070000
0038070000
0038070000
0038070000
0038070000
0038070000
0038070000
0038070000
0038070000
0038070000
0038070000
0038070000
0038070000
0038070000
0038070000
0038070000
0038070000
00fe1fc000
0000000000
0000000000
0000000000
0000000000
0000000000
0000000000
0000000000
ENDCHAR
STARTCHAR a5b2
ENCODING 42418 
SWIDTH 230 0
DWIDTH 34 0
BBX 34 35 0 -1
BITMAP 
0000000000
0000000000
0000000000
0000000000
0000000000
0000000000
1fc7f0fe00
0701c03800
0701c03800
0701c03800
0701c03800
0701c03800
0701c03800
0701c03800
0701c03800
0701c03800
0701c03800
0701c03800
0701c03800
0701c03800
0701c03800
0701c03800
0701c03800
0701c03800
0701c03800
0701c03800
0701c03800
1fc7f0fe00
0000000000
0000000000
0000000000
0000000000
0000000000
0000000000
0000000000
ENDCHAR
STARTCHAR a5b3
ENCODING 42419 
SWIDTH 230 0
DWIDTH 34 0
BBX 34 35 0 -1
BITMAP 
0000000000
0000000000
0000000000
0000000000
0000000000
0000000000
1fdfc03e00
0707000800
0707000800
0703801800
0703801000
0703801000
0701c03000
0701c02000
0701c02000
0700e06000
0700e04000
0700e04000
070070c000
0700708000
0700708000
0700398000
0700390000
0700390000
07001f0000
07001f0000
07000e0000
1fc00e0000
0000040000
0000000000
0000000000
0000000000
0000000000
0000000000
0000000000
ENDCHAR
STARTCHAR a5b4
ENCODING 42420 
SWIDTH 230 0
DWIDTH 34 0
BBX 34 35 0 -1
BITMAP 
0000000000
0000000000
0000000000
0000000000
0000000000
0000000000
07fc07f000
00e0008000
00e0008000
0070018000
0070010000
0070010000
0038030000
0038020000
0038060000
001c040000
001c040000
001c0c0000
000e080000
000e180000
000e100000
0007100000
0007300000
0007200000
0003e00000
0003e00000
0001c00000
0001c00000
0000800000
0000000000
0000000000
0000000000
0000000000
0000000000
0000000000
ENDCHAR
STARTCHAR a5b5
ENCODING 42421 
SWIDTH 230 0
DWIDTH 34 0
BBX 34 35 0 -1
BITMAP 
0000000000
0000000000
0000000000
0000000000
0000000000
0000000000
1fc0f9fc00
0700107000
0700107000
0700307000
0380207000
0380207000
0380607000
0380407000
01c0407000
01c0c07000
01c0807000
00e0807000
00e1807000
00e1007000
00e1007000
0071007000
0073007000
0072007000
003e007000
003e007000
001c007000
001c01fc00
0008000000
0000000000
0000000000
0000000000
0000000000
0000000000
0000000000
ENDCHAR
STARTCHAR a5b6
ENCODING 42422 
SWIDTH 230 0
DWIDTH 34 0
BBX 34 35 0 -1
BITMAP 
0000000000
0000000000
0000000000
0000000000
0000000000
0000000000
1fc7df7e00
07010e3800
07010e3800
07010e3800
07010e3800
07010e3800
03830e3800
03820e3800
03820e3800
03820e3800
03820e3800
01c60e3800
01c40e3800
01c40e3800
01c40e3800
01cc0e3800
00e80e3800
00e80e3800
00e80e3800
00f80e3800
00700e3800
00703f7e00
0020000000
0000000000
0000000000
0000000000
0000000000
0000000000
0000000000
ENDCHAR
STARTCHAR a5b7
ENCODING 42423 
SWIDTH 230 0
DWIDTH 34 0
BBX 34 35 0 -1
BITMAP 
0000000000
0000000000
0000000000
0000000000
0000000000
0000000000
3f0efffe00
1c04631800
1c04631800
1c04631800
1c04631800
0e04631800
0e0c631800
0e08631800
0e08631800
0e08631800
0718631800
0710631800
0710631800
0710631800
0730631800
03a0631800
03a0631800
03a0631800
03e0631800
01e0631800
01c0631800
01c1fffe00
0080000000
0000000000
0000000000
0000000000
0000000000
0000000000
0000000000
ENDCHAR
STARTCHAR a5b8
ENCODING 42424 
SWIDTH 230 0
DWIDTH 34 0
BBX 34 35 0 -1
BITMAP 
0000000000
0000000000
0000000000
0000000000
0000000000
0000000000
1fcfe07e00
0703801800
0701c03000
0701c03000
0700e06000
0700e0c000
070070c000
0700718000
0700398000
07003b0000
07001e0000
07000e0000
07000f0000
07001b8000
070031c000
070061c000
070060e000
0700c0e000
0701807000
0701807000
0703003800
1fcfc0fe00
0000000000
0000000000
0000000000
0000000000
0000000000
0000000000
0000000000
ENDCHAR
STARTCHAR a5b9
ENCODING 42425 
SWIDTH 230 0
DWIDTH 34 0
BBX 34 35 0 -1
BITMAP 
0000000000
0000000000
0000000000
0000000000
0000000000
0000000000
00fe07e000
0038018000
001c030000
001c030000
000e060000
000e0c0000
00070c0000
0007180000
0003980000
0003b00000
0001e00000
0000e00000
0000f00000
0001b80000
00031c0000
00061c0000
00060e0000
000c0e0000
0018070000
0018070000
0030038000
01fc0ff000
0000000000
0000000000
0000000000
0000000000
0000000000
0000000000
0000000000
ENDCHAR
STARTCHAR a5c1
ENCODING 42433 
SWIDTH 230 0
DWIDTH 34 0
BBX 34 35 0 -1
BITMAP 
0000000000
0000000000
0000000000
0000000000
0000000000
0000400000
0000e00000
0000e00000
0000f00000
0001f00000
0001380000
0003380000
0002380000
00021c0000
00061c0000
00040e0000
000c0e0000
00080e0000
0008070000
0018070000
001fff8000
0030038000
0020038000
002001c000
006001c000
004000e000
004000e000
03f80ff800
0000000000
0000000000
0000000000
0000000000
0000000000
0000000000
0000000000
ENDCHAR
STARTCHAR a5c2
ENCODING 42434 
SWIDTH 230 0
DWIDTH 34 0
BBX 34 35 0 -1
BITMAP 
0000000000
0000000000
0000000000
0000000000
0000000000
0000000000
00fff00000
00381c0000
0038070000
0038038000
0038038000
0038038000
0038038000
0038070000
00380e0000
0038380000
003ff00000
00381c0000
0038070000
0038038000
003801c000
003801c000
003801c000
003801c000
0038038000
0038070000
00381c0000
00fff00000
0000000000
0000000000
0000000000
0000000000
0000000000
0000000000
0000000000
ENDCHAR
STARTCHAR a5c3
ENCODING 42435 
SWIDTH 230 0
DWIDTH 34 0
BBX 34 35 0 -1
BITMAP 
0000000000
0000000000
0000000000
0000000000
0000000000
0000000000
00ffffc000
003807c000
003801c000
003800e000
0038006000
0038002000
0038002000
0038000000
0038000000
0038000000
0038000000
0038000000
0038000000
0038000000
0038000000
0038000000
0038000000
0038000000
0038000000
0038000000
0038000000
00fe000000
0000000000
0000000000
0000000000
0000000000
0000000000
0000000000
0000000000
ENDCHAR
STARTCHAR a5c4
ENCODING 42436 
SWIDTH 230 0
DWIDTH 34 0
BBX 34 35 0 -1
BITMAP 
0000000000
0000000000
0000000000
0000000000
0000000000
0000400000
0000e00000
0000e00000
0001f00000
0001f00000
0001700000
0003380000
0002380000
00061c0000
00041c0000
00040e0000
000c0e0000
00080e0000
0018070000
0010070000
0010038000
0030038000
002001c000
006001c000
004000e000
00ffffe000
00ffffe000
01fffff000
0000000000
0000000000
0000000000
0000000000
0000000000
0000000000
0000000000
ENDCHAR
STARTCHAR a5c5
ENCODING 42437 
SWIDTH 230 0
DWIDTH 34 0
BBX 34 35 0 -1
BITMAP 
0000000000
0000000000
0000000000
0000000000
0000000000
0000000000
01ffff8000
0070078000
0070018000
007000c000
0070004000
0070004000
0070040000
0070040000
0070040000
00700c0000
007ffc0000
00700c0000
0070040000
0070040000
0070040000
0070002000
0070002000
0070006000
007000e000
007001c000
007007c000
01ffffc000
0000000000
0000000000
0000000000
0000000000
0000000000
0000000000
0000000000
ENDCHAR
STARTCHAR a5c6
ENCODING 42438 
SWIDTH 230 0
DWIDTH 34 0
BBX 34 35 0 -1
BITMAP 
0000000000
0000000000
0000000000
0000000000
0000000000
0000000000
00ffffc000
00f0038000
00c0070000
01800e0000
01000e0000
01001c0000
0000380000
0000700000
0000700000
0000e00000
0001c00000
0003800000
0003800000
0007000000
000e000000
001c001000
001c001000
0038003000
0070007000
00e000e000
00e003e000
01ffffe000
0000000000
0000000000
0000000000
0000000000
0000000000
0000000000
0000000000
ENDCHAR
ENDFONT
